<svg width="18" height="16" viewBox="0 0 18 16" fill="none" xmlns="http://www.w3.org/2000/svg">
<path d="M11.4374 1.49962C11.3526 1.18315 11.1496 0.918583 10.8659 0.754801C10.2802 0.416639 9.52854 0.617956 9.19028 1.2038L9.00147 1.53078L8.81267 1.20375C8.47446 0.618054 7.72282 0.416639 7.13707 0.754752H7.13702C6.55127 1.09296 6.3499 1.8446 6.68807 2.4304L7.58504 3.98402L4.27535 9.71663H1.86239C1.18602 9.71663 0.635742 10.2669 0.635742 10.9433C0.635742 11.6197 1.18602 12.1699 1.86239 12.1699H11.178L9.7616 9.71663H7.10817L11.3148 2.43045C11.4787 2.1467 11.5222 1.8161 11.4374 1.49962Z" fill="white"/>
<path d="M16.1389 9.71658H13.7259L10.9828 4.96533L9.56641 7.41863L13.8255 14.7956C13.9893 15.0794 14.2538 15.2824 14.5704 15.3672C14.6761 15.3955 14.7833 15.4095 14.8899 15.4095C15.1024 15.4095 15.3122 15.3538 15.5013 15.2446C16.087 14.9064 16.2884 14.1547 15.9502 13.569L15.1423 12.1699H16.1389C16.8152 12.1699 17.3655 11.6196 17.3655 10.9432C17.3655 10.2669 16.8152 9.71658 16.1389 9.71658Z" fill="white"/>
<path d="M2.29108 13.1514L2.04982 13.5692C1.71166 14.155 1.91308 14.9066 2.49883 15.2448C2.69151 15.356 2.9021 15.4089 3.11009 15.4089C3.53431 15.4089 3.94749 15.1889 4.17447 14.7958L5.1239 13.1514H2.29108Z" fill="white"/>
</svg>
