<svg width="14" height="14" viewBox="0 0 14 14" fill="none" xmlns="http://www.w3.org/2000/svg">
<path d="M5.65559 7.72806C5.61359 7.72806 4.68959 7.72806 4.26959 7.72806C4.04559 7.72806 3.97559 7.64406 3.97559 7.43406C3.97559 6.87406 3.97559 6.30006 3.97559 5.74006C3.97559 5.51606 4.05959 5.44606 4.26959 5.44606H5.65559C5.65559 5.40406 5.65559 4.59206 5.65559 4.21406C5.65559 3.65406 5.75359 3.12206 6.03359 2.63206C6.32759 2.12806 6.74759 1.79206 7.27959 1.59606C7.62959 1.47006 7.97959 1.41406 8.35759 1.41406H9.72959C9.92559 1.41406 10.0096 1.49806 10.0096 1.69406V3.29006C10.0096 3.48606 9.92559 3.57006 9.72959 3.57006C9.35159 3.57006 8.97359 3.57006 8.59559 3.58406C8.21759 3.58406 8.02159 3.76606 8.02159 4.15806C8.00759 4.57806 8.02159 4.98406 8.02159 5.41806H9.64559C9.86959 5.41806 9.95359 5.50206 9.95359 5.72606V7.42006C9.95359 7.64406 9.88359 7.71406 9.64559 7.71406C9.14159 7.71406 8.06359 7.71406 8.02159 7.71406V12.2781C8.02159 12.5161 7.95159 12.6001 7.69959 12.6001C7.11159 12.6001 6.53759 12.6001 5.94959 12.6001C5.73959 12.6001 5.65559 12.5161 5.65559 12.3061C5.65559 10.8361 5.65559 7.77006 5.65559 7.72806V7.72806Z" fill="white"/>
</svg>
