<svg width="14" height="14" viewBox="0 0 14 14" fill="none" xmlns="http://www.w3.org/2000/svg">
<g clip-path="url(#clip0_5290_3107)">
<path d="M13.9861 4.11616C13.9533 3.37229 13.833 2.86088 13.6607 2.41774C13.4829 1.94736 13.2094 1.52622 12.8511 1.17613C12.501 0.820595 12.0771 0.544326 11.6122 0.369335C11.1665 0.197014 10.6578 0.0767209 9.91388 0.0439233C9.16445 0.00834816 8.92654 0.00012207 7.02578 0.00012207C5.12502 0.00012207 4.8871 0.00834816 4.14045 0.0411457C3.39658 0.0739433 2.88517 0.194343 2.44214 0.366557C1.97165 0.544326 1.55051 0.817817 1.20042 1.17613C0.844886 1.52622 0.568725 1.95013 0.393627 2.41507C0.221306 2.86088 0.101013 3.36951 0.0682153 4.11338C0.0326401 4.86281 0.0244141 5.10073 0.0244141 7.00149C0.0244141 8.90225 0.0326401 9.14017 0.0654377 9.88682C0.0982352 10.6307 0.218635 11.1421 0.390956 11.5852C0.568725 12.0556 0.844886 12.4768 1.20042 12.8268C1.55051 13.1824 1.97442 13.4587 2.43936 13.6336C2.88517 13.806 3.3938 13.9263 4.13778 13.9591C4.88432 13.992 5.12234 14.0001 7.02311 14.0001C8.92387 14.0001 9.16178 13.992 9.90843 13.9591C10.6523 13.9263 11.1637 13.806 11.6067 13.6336C12.5476 13.2699 13.2915 12.526 13.6553 11.5852C13.8275 11.1394 13.9479 10.6307 13.9807 9.88682C14.0135 9.14017 14.0217 8.90225 14.0217 7.00149C14.0217 5.10073 14.0189 4.86281 13.9861 4.11616ZM12.7254 9.83212C12.6953 10.5158 12.5804 10.8851 12.4847 11.1312C12.2494 11.7411 11.7654 12.2252 11.1555 12.4604C10.9093 12.5561 10.5375 12.671 9.8564 12.701C9.11798 12.7339 8.89652 12.742 7.02855 12.742C5.16059 12.742 4.93635 12.7339 4.2006 12.701C3.51687 12.671 3.14766 12.5561 2.90151 12.4604C2.598 12.3482 2.32174 12.1705 2.09749 11.938C1.86503 11.711 1.68726 11.4375 1.57508 11.134C1.47936 10.8878 1.36452 10.5158 1.3345 9.8349C1.30159 9.09647 1.29348 8.8749 1.29348 7.00694C1.29348 5.13897 1.30159 4.91473 1.3345 4.17908C1.36452 3.49536 1.47936 3.12614 1.57508 2.88C1.68726 2.57639 1.86503 2.30022 2.10027 2.07588C2.32718 1.84341 2.60068 1.66564 2.90429 1.55357C3.15043 1.45785 3.52242 1.34301 4.20337 1.31288C4.9418 1.28008 5.16337 1.27185 7.03122 1.27185C8.90197 1.27185 9.12343 1.28008 9.85918 1.31288C10.5429 1.34301 10.9121 1.45785 11.1583 1.55357C11.4618 1.66564 11.738 1.84341 11.9623 2.07588C12.1947 2.30289 12.3725 2.57639 12.4847 2.88C12.5804 3.12614 12.6953 3.49803 12.7254 4.17908C12.7582 4.91751 12.7664 5.13897 12.7664 7.00694C12.7664 8.8749 12.7582 9.09369 12.7254 9.83212Z" fill="white"/>
<path d="M7.02609 3.40503C5.04061 3.40503 3.42969 5.01585 3.42969 7.00144C3.42969 8.98702 5.04061 10.5978 7.02609 10.5978C9.01167 10.5978 10.6225 8.98702 10.6225 7.00144C10.6225 5.01585 9.01167 3.40503 7.02609 3.40503ZM7.02609 9.33434C5.73801 9.33434 4.69319 8.28962 4.69319 7.00144C4.69319 5.71325 5.73801 4.66854 7.02609 4.66854C8.31427 4.66854 9.35899 5.71325 9.35899 7.00144C9.35899 8.28962 8.31427 9.33434 7.02609 9.33434Z" fill="white"/>
<path d="M11.6041 3.26294C11.6041 3.72659 11.2282 4.10253 10.7644 4.10253C10.3007 4.10253 9.9248 3.72659 9.9248 3.26294C9.9248 2.79918 10.3007 2.42334 10.7644 2.42334C11.2282 2.42334 11.6041 2.79918 11.6041 3.26294Z" fill="white"/>
</g>
<defs>
<clipPath id="clip0_5290_3107">
<rect width="14" height="14" fill="white" transform="translate(0 0.00012207)"/>
</clipPath>
</defs>
</svg>
