<svg width="14" height="14" viewBox="0 0 14 14" fill="none" xmlns="http://www.w3.org/2000/svg">
<path d="M12.6003 12.6V8.49802C12.6003 6.48202 12.1663 4.94202 9.8143 4.94202C8.6803 4.94202 7.9243 5.55802 7.61631 6.14602H7.5883V5.12402H5.3623V12.6H7.68631V8.89002C7.68631 7.91002 7.86831 6.97202 9.07231 6.97202C10.2623 6.97202 10.2763 8.07802 10.2763 8.94602V12.586H12.6003V12.6Z" fill="white"/>
<path d="M1.58203 5.12402H3.90603V12.6H1.58203V5.12402Z" fill="white"/>
<path d="M2.74439 1.40002C2.00239 1.40002 1.40039 2.00203 1.40039 2.74403C1.40039 3.48603 2.00239 4.10203 2.74439 4.10203C3.48639 4.10203 4.0884 3.48603 4.0884 2.74403C4.0884 2.00203 3.48639 1.40002 2.74439 1.40002Z" fill="white"/>
</svg>
