<svg width="14" height="16" viewBox="0 0 14 16" fill="none" xmlns="http://www.w3.org/2000/svg">
<path d="M2.47494 0.824258C2.13736 0.606124 1.73189 0.540194 1.35156 0.629972L8.03514 7.31357L10.2013 5.1474L2.47494 0.824258Z" fill="white"/>
<path d="M0.520263 1.17322C0.33385 1.42105 0.226562 1.72534 0.226562 2.04723V13.9527C0.226562 14.2746 0.333879 14.5788 0.520263 14.8267L7.34696 7.99997L0.520263 1.17322Z" fill="white"/>
<path d="M13.0265 6.72917L11.0798 5.63989L8.71973 7.99992L11.0799 10.3601L13.0269 9.27069C13.4933 9.00935 13.7718 8.53436 13.7718 7.99992C13.7718 7.46548 13.4933 6.99052 13.0265 6.72917Z" fill="white"/>
<path d="M8.03473 8.68616L1.35156 15.3693C1.46114 15.3951 1.57265 15.409 1.68416 15.409C1.95974 15.409 2.23437 15.3306 2.47456 15.1754L10.201 10.8524L8.03473 8.68616Z" fill="white"/>
</svg>
