<svg width="8" height="8" viewBox="0 0 8 8" fill="none" xmlns="http://www.w3.org/2000/svg">
<g clip-path="url(#clip0_5355_3342)">
<path d="M7.62396 2.72377L5.86284 0.962647C5.71752 0.817334 5.57013 0.743652 5.42477 0.743652C5.22518 0.743652 4.99213 0.895453 4.99213 1.32329V1.92285C3.71262 1.97862 2.51774 2.50336 1.60639 3.41467C0.64112 4.37987 0.109466 5.66319 0.109375 7.02825C0.109375 7.12632 0.172101 7.21342 0.265127 7.24446C0.288877 7.25238 0.31319 7.25619 0.337274 7.25619C0.407583 7.25619 0.475643 7.22357 0.519527 7.16516C1.59564 5.73276 3.21577 4.88624 4.99213 4.81941V5.40975C4.99213 5.83756 5.22518 5.98939 5.42476 5.98939H5.4248C5.57015 5.98939 5.71754 5.91571 5.86284 5.77041L7.62394 4.00926C7.79512 3.83814 7.88938 3.60988 7.88938 3.36651C7.88938 3.12319 7.79512 2.89491 7.62396 2.72377V2.72377Z" fill="white"/>
</g>
<defs>
<clipPath id="clip0_5355_3342">
<rect width="7.78" height="7.78" fill="white" transform="translate(0.109375 0.109985)"/>
</clipPath>
</defs>
</svg>
