<svg width="131" height="130" viewBox="0 0 131 130" fill="none" xmlns="http://www.w3.org/2000/svg">
<path fill-rule="evenodd" clip-rule="evenodd" d="M130.586 65.0215V64.2919C130.586 64.075 130.586 63.8581 130.586 63.6412C130.438 62.5962 130.409 61.4229 130.123 60.0919C130.123 60.0426 130.192 60.0919 130.241 59.9933C130.305 60.4764 130.403 60.9542 130.537 61.4229C130.537 61.1863 130.537 60.9201 130.537 60.644C130.491 60.6344 130.449 60.6102 130.418 60.575C130.487 59.9145 130.251 58.406 129.936 58.7215C129.788 58.4356 130.202 58.6032 130.054 58.1694C130.123 58.0905 130.152 58.6032 130.3 58.3863C130.3 57.9229 129.955 57.5384 129.857 57.6764C129.788 57.3905 130.054 57.4398 130.123 57.1243C129.985 56.5327 129.857 56.9271 129.719 56.5623C129.581 56.1975 129.788 56.168 129.837 56.3454C129.837 55.8525 129.62 55.9806 129.542 55.882C129.463 55.7834 129.542 55.2708 129.689 55.2017C129.828 55.4534 129.934 55.7218 130.005 56.0003C130.005 55.3201 129.719 55.0144 129.571 55.0736C129.479 54.373 129.237 53.7005 128.862 53.1017C128.862 52.52 129.108 53.1017 129.177 52.8553C129.305 53.3679 129.394 53.7524 129.522 54.2158C129.591 53.9496 129.67 53.851 129.788 53.9299C129.689 53.3186 129.591 52.7074 129.443 52.1257C129.443 53.0032 129.079 52.9243 128.793 52.4116C128.96 51.6426 128.33 50.8637 128.281 50.0848C128.379 49.6707 128.478 50.4989 128.596 50.3017C128.399 49.9566 128.231 49.3158 128.399 49.3158C128.563 49.7913 128.803 50.2374 129.108 50.6369C128.96 50.9031 129.108 51.1693 129.256 51.4355C129.199 51.6817 129.092 51.9133 128.941 52.1158C129.177 52.6975 129.305 52.2834 129.443 52.1158C129.325 51.475 129.207 50.844 129.029 50.213C128.911 50.0947 128.714 49.582 128.793 49.4341C128.842 49.4341 128.862 49.5327 128.891 49.5623C126.899 41.1502 123.19 33.2417 117.996 26.334C117.828 26.1072 117.661 25.8706 117.444 25.6241C117.373 25.5108 117.29 25.4051 117.198 25.3086C116.81 25.0649 116.491 24.7254 116.272 24.3227C116.457 24.4208 116.624 24.551 116.764 24.7072C113.767 20.9288 110.342 17.5111 106.558 14.5226C106.558 14.5226 106.558 14.4733 106.479 14.4733C106.401 14.4733 106.213 14.3057 106.066 14.2071C105.918 14.1085 106.066 14.1283 105.997 14.079C105.928 14.0297 105.997 14.079 105.997 14.079C105.917 13.9967 105.827 13.9239 105.731 13.8621C105.191 13.6477 104.678 13.3697 104.204 13.0339C104.204 12.9353 104.519 13.0339 104.785 13.1621C104.253 12.748 103.721 12.3536 103.159 11.9888C103.012 11.8705 102.844 11.7719 102.696 11.6733C102.549 11.5747 102.214 11.3381 101.948 11.1902H101.849L101.8 11.1212C101.702 11.0442 101.597 10.978 101.485 10.924L101.554 11.0226C101.444 10.9268 101.329 10.8379 101.209 10.7564C100.954 10.5682 100.688 10.397 100.411 10.2437C100.278 10.1481 100.139 10.0592 99.9971 9.97752C99.9971 10.0268 99.9971 10.0564 99.9971 10.0761C99.7508 9.76062 99.2189 9.73104 98.9332 9.44512C98.9887 9.43659 99.0451 9.43659 99.1006 9.44512C98.6038 9.11513 98.0836 8.82186 97.5441 8.56765C97.6811 8.67101 97.826 8.76332 97.9776 8.84372C98.0268 8.84372 97.9283 8.84372 97.9776 8.98175C97.3175 8.74513 96.9333 8.16343 96.1748 7.99582C96.0762 7.87751 96.1748 7.84794 96.0762 7.77892C95.9747 7.70241 95.8616 7.64251 95.7413 7.60145C95.3078 7.48314 94.963 7.23666 94.5296 7.08877C94.4803 7.01976 94.4508 7.00004 94.4508 6.97047C94.234 6.87187 93.9877 6.7437 93.771 6.65497L93.6035 6.5761C92.6775 6.16201 91.7318 5.74792 90.786 5.38313C89.8403 5.01834 88.7369 4.60425 87.7222 4.23946C87.2592 4.07185 86.737 3.90425 86.2839 3.75636H86.1952C86.0329 3.68136 85.8602 3.6315 85.6829 3.60847C84.5205 3.24368 83.3481 2.92818 82.1561 2.62255C81.4567 2.44508 80.7769 2.30705 80.0676 2.15916H79.9691L78.7869 1.94227C78.2549 2.02114 76.8954 1.62677 75.9694 1.67606L76.1369 1.50846L75.5556 1.42958C75.3376 1.47188 75.1136 1.47188 74.8956 1.42958C74.7913 1.36009 74.6788 1.30379 74.5606 1.26198C74.4067 1.24643 74.2516 1.24643 74.0976 1.26198C73.8513 1.26198 73.6149 1.26198 73.339 1.26198C73.2339 1.19916 73.1214 1.14949 73.0041 1.11409C72.53 0.934762 72.0186 0.877141 71.5165 0.946484C71.3687 0.778877 72.0978 0.946479 72.3243 0.818309C72.1273 0.68028 72.679 0.650706 72.5115 0.483099C71.7993 0.557499 71.0943 0.689386 70.4033 0.87747C70.226 0.778877 69.96 0.877468 69.5462 0.72958C69.3295 0.483099 70.886 0.729577 70.0585 0.4338C70.423 0.285912 70.7186 0.532393 71.0437 0.4338C70.7284 0.216898 69.7531 0.51268 69.8221 0.216904C69.4576 0.335215 69.0734 0.216902 68.4626 0.384509C68.5118 0.0492955 67.8124 0.384508 67.2705 0.0985907C66.5415 0.315493 65.8913 0.0985919 65.2116 0.315495C65.2116 0.483101 65.7436 0.601409 66.0884 0.512676C65.9898 0.778875 65.0342 0.601412 64.6205 0.630989C64.5318 0.512679 64.8471 0.364787 64.985 0.33521C64.916 0.187321 64.6008 0.187325 64.5712 0C64.5712 0.384509 63.921 0.147886 63.3103 0.414085C63.5565 0.630988 63.8521 0.414084 64.0885 0.512676C63.7043 0.512676 63.3398 0.729579 62.9753 0.512676C62.8768 0.443661 63.1625 0.512677 63.3103 0.374647C63.1625 0.295774 62.8472 0.374649 62.995 0.276057C62.5812 0.147887 62.8472 0.542256 62.4433 0.276057C62.5615 0.423945 62.7487 0.542254 62.4433 0.690142C61.9113 0.690142 62.4433 0.542254 62.0099 0.443662C61.7143 0.561972 61.8128 0.660564 61.8818 0.759156C61.6978 0.710239 61.5042 0.710239 61.3203 0.759156C60.739 0.59155 61.6651 0.394364 61.2513 0.226758C61.1331 0.345068 60.936 0.463383 61.005 0.561975C60.6208 0.759159 60.276 0.414084 59.8918 0.690142C59.478 0.611268 59.5962 0.492959 59.3598 0.414085C58.8872 0.559288 58.3962 0.635661 57.9018 0.640851C57.6555 0.956345 56.828 0.976062 56.2467 1.05494C55.9315 1.00564 56.8083 0.808455 56.2467 0.808455C55.6885 1.05788 55.0848 1.1888 54.4735 1.19296C54.0302 1.37043 54.7198 1.37043 54.3947 1.51832C53.7445 1.65635 54.2567 1.29156 53.7149 1.27184C53.4292 1.27184 53.3012 1.39014 53.2815 1.48874C52.1387 1.22254 51.1141 2.23804 50.0206 2.21832C49.7054 2.58311 49.4394 2.60283 48.7892 2.9479C48.5922 2.9972 48.4247 2.87889 48.0109 2.9972C47.8336 2.8296 48.6119 2.731 48.8384 2.56339C48.2637 2.59526 47.7116 2.79777 47.2524 3.14508C46.6908 3.2141 46.9174 3.0465 46.5529 2.9972C46.1391 3.19439 45.8731 3.1648 45.7254 3.46058H45.2821C45.4988 3.60847 44.4348 4.09157 43.9226 3.97326C43.6566 4.38735 43.3413 4.36763 42.7798 4.50566C42.3956 4.80144 42.829 4.50566 43.0261 4.58454C42.8054 4.72917 42.5572 4.82651 42.2971 4.87045C41.834 4.87045 42.1296 4.73242 42.2281 4.55495C41.7712 4.75975 41.2649 4.82823 40.7701 4.75214C40.8627 4.67965 40.9704 4.62909 41.0853 4.60425C40.9573 4.46622 40.0411 4.96904 39.6273 5.16623C40.7405 4.78172 40.6125 5.09721 41.7158 4.78172C40.8095 5.462 40.5238 4.99862 39.7948 5.38313C39.8933 5.5606 40.7208 5.38313 40.6716 5.58031C40.3563 5.58031 39.6864 5.92538 39.3515 5.82679C39.1347 6.11271 39.184 6.28032 39.0165 6.5761C39.0165 6.24088 38.5338 6.50708 38.0314 6.5761C37.7851 6.5761 38.3959 6.16201 37.9329 6.2606C37.8146 6.44793 37.7161 6.49722 37.8343 6.66482C37.5684 6.79299 37.125 6.81271 37.4403 6.9113C37.1277 7.04721 36.7948 7.1305 36.4551 7.15779C36.3763 7.03947 37.3812 6.69441 37.0659 6.54652C36.5537 6.91131 34.3174 8.51836 34.5538 7.8085C34.2681 7.98596 34.0514 8.32118 33.7066 8.37047C33.4603 8.95217 32.3175 9.29724 31.7363 10.0761C31.4506 9.92823 30.9383 10.4409 31.0073 10.0761C30.6723 10.224 30.8595 10.4212 30.4753 10.7367C29.6997 11.125 29.007 11.6608 28.436 12.3142C28.2095 12.1663 27.6578 12.6592 27.707 12.8268C27.313 12.8268 27.1159 13.1423 26.781 13.2409C26.9485 13.2409 27.0667 13.1916 27.313 13.2409C27.0133 13.4838 26.6515 13.6375 26.2687 13.6846C25.786 14.0001 26.1702 14.0494 25.3722 14.3452C25.3722 14.4142 25.5693 14.3452 25.3722 14.5818C25.7361 14.2573 26.157 14.0033 26.6135 13.8325C25.9182 14.2827 25.2594 14.7871 24.6432 15.3409C24.5644 15.3409 24.6432 15.2621 24.4955 15.3409C24.7417 15.0254 25.3427 14.7099 25.2737 14.4832C24.7122 14.7297 24.5447 15.3607 23.7861 15.6762C23.7373 15.8279 23.636 15.9572 23.5005 16.0409C23.5005 16.1691 23.5005 16.2184 23.7172 16.1395C23.4216 16.5733 22.9882 16.7705 22.732 17.2142C22.3675 17.4015 22.5449 17.1649 22.2493 17.2832C22.003 17.648 22.5646 17.2832 22.1311 17.6677C21.8848 17.7959 21.9636 17.6677 21.9636 17.5987C21.9636 17.5297 21.8848 17.5987 21.7666 17.717C21.5696 17.9931 21.8848 17.8156 21.7666 17.9635C20.0918 18.6931 19.1166 20.7142 17.9541 21.5424C17.7866 21.6114 18.0723 21.1776 17.9541 21.1776C17.4714 21.5917 17.294 22.3213 16.6143 22.5382C16.6143 22.6565 16.6143 22.7058 16.831 22.6072C16.831 22.8734 16.565 22.972 16.4961 23.2185C16.2793 23.4156 16.3778 23.2184 16.4271 23.0015C16.1316 23.1692 16.033 23.5339 15.767 23.7508C15.767 23.879 15.9148 23.7508 16.033 23.7508C16.033 24.0269 15.7473 24.0959 15.6685 24.3325C15.5996 24.3325 15.6685 24.1156 15.4518 24.2635L15.304 24.7466C15.038 24.9241 15.1563 24.6579 14.841 24.9241C14.2302 25.8213 13.6293 26.7185 12.9495 27.5762L13.2352 27.3988C13.0677 27.6157 13.0185 27.9903 12.7821 28.1579C12.5456 28.3255 12.6343 28.1579 12.6835 27.941C12.2616 28.5258 11.9296 29.1705 11.6984 29.8537C11.4817 29.8537 11.3142 30.1002 11.1664 30.5636C11.6097 30.1791 11.3339 30.5636 11.2452 30.9086C11.728 30.0016 12.1417 29.765 12.654 28.7692C12.654 28.6213 12.5555 28.8382 12.457 28.9072C12.457 28.5917 12.7722 28.5917 12.7722 28.2762C13.0396 28.1392 13.2935 27.9775 13.5308 27.7931C12.6047 28.71 12.0136 30.465 11.2945 31.0762C11.2945 31.1748 11.2945 31.1255 11.2945 31.2439C11.1467 31.6579 11.2255 31.0763 10.9595 31.4115C10.8094 32.0802 10.4669 32.6902 9.97439 33.1664C10.0532 33.4326 9.83647 33.8467 9.59018 34.2411C9.51137 34.0143 9.59018 33.5509 9.27493 33.7481C9.37345 33.4129 9.7084 32.9692 9.56063 32.8706C9.37345 33.2354 9.3439 33.2354 9.10746 33.3636C9.17642 33.6298 9.00895 33.8763 9.10746 34.0143C9.00895 34.4087 8.6937 34.6453 8.67399 35.0594C8.23068 35.3059 7.91543 36.3016 7.68885 37.0312C7.47211 36.9129 7.30464 37.2974 7.20613 37.9087C7.10761 37.9087 7.03865 37.9087 7.08791 37.6918C6.74244 38.368 6.45887 39.0742 6.24068 39.8017C6.24068 40.0284 6.50667 39.6143 6.45741 39.9298C6.40816 40.2453 6.11261 40.2453 6.21113 40.5608C6.09291 40.7087 6.0141 40.6791 5.99439 40.5608C5.82692 40.8763 6.21113 40.6298 5.89588 41.1425C5.7284 41.3594 5.60033 41.4383 5.60033 41.2411C5.50182 41.8228 4.95014 42.6805 5.09791 42.996C4.92059 43.2622 4.95014 42.996 4.70385 43.3115C4.95014 43.4101 4.53638 43.8637 4.55608 43.8439C4.29009 44.5932 4.55608 44.9876 4.09306 45.7369C4.27039 45.9538 3.92559 46.8116 3.82707 47.3242C3.75811 47.3242 3.72855 47.1271 3.59063 47.3242C3.75811 47.7679 3.36405 48.2017 3.49212 48.8623C3.59063 49.0792 3.82707 48.3496 3.80737 48.1228C3.78766 47.8961 3.80737 48.6848 3.80737 48.8327C3.93543 49.0989 3.98469 48.3693 4.05365 48.2214C4.12261 48.0735 4.15217 48.4482 4.17187 48.6158C4.19158 48.7834 3.75811 49.1482 3.88618 49.6806C3.7187 49.9566 3.54137 50.1735 3.52167 49.9271C3.27538 50.2721 3.34435 50.7257 3.10791 51.0707C3.20643 51.2186 3.34435 51.12 3.27538 51.6031C2.9792 50.9486 2.89648 50.2173 3.03895 49.513C2.91088 49.8581 2.71385 50.1933 2.57593 50.4989C2.57593 50.6862 2.79266 50.7848 2.57593 51.1003C2.62519 51.2285 2.72371 51.1003 2.74341 51.2778C2.74341 51.8102 2.62519 51.544 2.42817 51.9778C2.77297 51.9778 2.42816 53.9496 2.09321 54.1172C2.30994 54.1172 2.0144 54.5806 2.16217 54.9454C2.3789 54.6299 2.23114 54.1961 2.42817 53.8806C2.57594 53.8806 2.28039 54.8665 2.21143 55.1919C2.28039 55.2609 2.32965 55.3891 2.3789 55.7046C2.42816 56.0201 2.21143 55.9412 2.21143 55.6553C2.09321 56.0398 2.3592 56.1187 2.47742 55.8426C2.59564 55.5665 2.60549 55.3398 2.47742 55.044C2.57593 54.9454 2.67445 54.975 2.77297 54.8764C2.77297 55.4384 2.45771 55.8623 2.50697 56.4342C2.32964 56.5032 2.19172 55.5567 2.0144 56.306C2.26068 56.2074 2.11292 56.4835 2.14247 56.9173C1.89618 56.9173 2.04395 56.5032 1.84692 57.3018C1.9947 57.3806 2.06366 57.4299 2.09321 57.9426C1.77796 58.0609 2.09321 58.7905 1.84692 59.2243C1.72753 57.9024 1.82739 56.5699 2.14247 55.2806C1.77797 55.7834 2.14247 54.2355 1.84692 54.3736C1.72871 54.551 1.74841 54.7482 1.63019 54.9158C1.84692 55.182 1.50212 56.0792 1.31494 56.2468C1.60064 55.9609 1.46272 56.8088 1.74841 56.4736C1.67945 56.7595 1.74841 57.075 1.63019 57.3708C1.51197 57.6665 1.72871 56.444 1.43316 57.2032C1.26569 56.9271 1.58094 56.7595 1.43316 56.4933C1.33465 56.7102 1.28539 56.5623 1.18688 56.7891C1.41346 57.5187 1.18688 57.6567 0.999697 57.775C1.33465 57.844 0.999697 59.2539 0.999697 59.9835C1.11792 60.23 1.09821 59.9835 1.21643 59.668C1.43316 60.4764 1.11792 61.6891 1.33465 62.1032C1.21643 62.537 1.16717 62.0046 1.0391 62.1722C1.04711 61.5623 1.08986 60.9533 1.16717 60.3483C1.06866 60.1314 0.970142 60.1116 0.851924 60.3483C0.87917 60.4209 0.888909 60.4989 0.88035 60.576C0.871791 60.6531 0.84518 60.7271 0.802671 60.7919C0.851928 60.8609 0.920887 60.9102 0.970144 60.8412C0.738992 61.7436 0.762866 62.6925 1.0391 63.5821C0.625342 63.2666 0.87163 64.3905 0.585938 64.6567C0.657282 64.8418 0.680996 65.0418 0.654897 65.2384C0.87163 65.4553 0.6549 64.7258 0.773118 64.5877C0.891335 64.4497 1.09821 65.0413 1.3642 65.6525C1.13762 66.1652 1.09821 65.1694 0.920884 65.1398C0.802666 65.7018 0.920884 65.6032 1.09821 66.1849C1.16717 65.9976 1.28539 66.1849 1.3642 66.0863C1.43316 66.3821 1.26569 66.6286 1.43316 66.8948C1.58094 66.4314 1.21643 65.9089 1.50212 65.4356C1.31302 64.8783 1.20034 64.2979 1.16717 63.7103C1.26569 63.5131 1.26569 64.2426 1.28539 64.4103C1.30509 64.5779 1.41346 64.1243 1.28539 63.9764C1.96514 64.1243 1.48242 67.2596 1.79766 68.9061C1.79766 68.7582 1.89618 68.5906 1.94544 68.6891C2.06366 68.4427 1.79767 68.1765 1.94544 67.9103C2.07351 67.9103 2.24099 68.7385 2.07351 69.0539C2.26069 68.8075 2.52667 69.7539 2.3592 70.168C2.23019 69.8878 2.18898 69.575 2.24098 69.2709C1.9947 69.4187 1.9947 69.0244 1.77796 68.9061C1.709 69.399 1.63019 69.2511 1.56123 69.8032C1.54831 69.0321 1.43234 68.2661 1.21643 67.5258C1.04896 68.0089 1.02925 67.5258 0.930737 68.2061C1.04896 68.2061 1.16717 67.7624 1.3445 68.4427C1.30194 69.2013 1.34822 69.9624 1.48242 70.7103C1.48242 70.4145 1.61049 70.3159 1.709 70.4934C1.709 70.0793 1.709 69.7835 1.709 69.5075C1.82722 69.5075 1.90603 69.9709 1.97499 70.1878C2.04395 70.4047 1.87648 70.3061 1.80752 70.1878C1.80752 70.8483 2.07351 70.3554 2.10306 71.0849C1.975 71.1342 1.82722 70.868 1.709 70.9666C2.12277 71.7455 2.02425 73.2737 2.46756 74.1019C2.38875 74.2695 2.24098 73.9836 2.22128 74.4469C2.28526 74.8663 2.40797 75.2745 2.58578 75.6596C2.58578 75.3638 2.704 75.2455 2.78281 75.1962C2.86979 75.7277 3.00838 76.2494 3.19658 76.754C3.09806 77.0202 2.60548 76.4385 2.78281 75.8765C2.704 76.1427 2.51682 75.7286 2.43801 76.0244C2.7469 76.6143 3.00083 77.2315 3.19658 77.8681C3.3148 77.5822 2.99954 77.3653 3.0685 77.0892C3.26553 77.0892 3.23598 77.7301 3.51183 78.0751C3.51183 78.292 3.38375 78.1935 3.36405 78.4399C3.87633 78.6075 3.64974 79.7216 4.01425 80.2639C3.79751 80.6287 3.61034 79.4554 3.41331 79.4357C3.41331 79.554 3.41331 79.6526 3.51183 79.7709C3.51183 80.2639 3.28524 79.5047 3.31479 80.0174C3.53152 80.3822 3.55123 81.0033 3.72856 80.7766C3.99455 81.1118 3.79752 81.4963 3.96499 81.8709C3.89603 81.9597 3.699 81.7921 3.699 81.4568C3.46256 81.5949 4.26053 82.8371 3.94529 83.0146L4.40831 83.616C4.40831 83.3301 4.47726 83.3695 4.50682 83.2512C4.74325 83.6456 4.60533 83.6949 4.50682 83.9315C5.0585 84.5231 4.98955 85.2231 5.23583 86.416C5.71855 86.978 5.78751 88.5062 6.44756 89.3738C6.64459 89.3738 6.28008 88.94 6.23083 88.6245C6.52637 88.7231 6.93028 89.7386 7.14701 90.2315C7.0288 90.4682 6.84162 89.6006 6.71355 89.7682C6.71355 90.1329 6.81207 90.3992 6.71355 90.4682C6.90073 90.6851 7.36375 91.0597 7.6987 91.3456C7.96469 91.7893 7.6987 91.7893 7.6987 92.1541C7.6987 92.5189 8.37845 93.14 8.09276 93.14C8.58477 93.8591 9.02271 94.6138 9.403 95.3978C9.55077 95.9105 8.96954 95.1612 9.10746 95.6443C9.55078 96.1767 9.23553 95.3781 9.61973 95.8119C10.0039 96.2457 9.71825 96.3738 9.78721 96.7091C9.95777 96.9654 10.1061 97.2358 10.2305 97.5175C10.0828 97.5175 10.0532 97.6161 10.1517 98.0302C10.224 98.0338 10.2929 98.0623 10.3467 98.1108C10.4005 98.1593 10.436 98.2248 10.4473 98.2964C10.6935 98.464 10.2798 97.9809 10.3783 97.833C10.664 98.0302 10.6935 98.3457 10.8413 98.6119C10.9891 98.8781 10.7428 98.1682 10.664 98.0499C10.5852 97.9316 10.8807 98.0499 10.9792 98.0499C11.196 98.4147 11.0778 98.4837 11.393 98.5823C11.4915 99.095 11.196 98.5823 11.0778 98.5823C11.2255 99.0457 11.3733 98.8978 11.5605 98.9964C11.8757 99.4302 12.0728 99.9232 12.4176 100.308C12.3387 100.406 12.0038 100.16 11.8757 100.209C12.122 100.653 12.122 101.195 12.6146 101.619C12.6026 101.894 12.6452 102.169 12.7398 102.428C12.8345 102.687 12.9794 102.925 13.1663 103.127C13.0677 102.841 12.851 102.516 12.9988 102.447C13.2573 102.683 13.471 102.963 13.6293 103.275C13.8263 103.423 13.6785 103.058 13.9741 103.275C13.6982 102.93 13.4125 102.151 13.1663 102.151C13.1663 102.053 13.2451 101.915 13.4815 102.151C13.7179 102.388 13.4815 102.487 13.9938 102.763C14.2105 103.216 13.6785 102.615 13.9248 103.078C14.0726 102.881 14.4371 103.364 14.6243 103.857C14.9198 103.995 14.7031 103.611 14.5061 103.394C14.6735 103.512 14.7524 103.68 14.9395 103.778C14.9395 103.946 15.2548 104.537 15.038 104.389C15.1169 104.587 15.8163 105.04 15.4814 105.04C15.6685 105.385 16.1611 105.287 16.4665 105.78C16.4665 105.898 16.2301 105.701 16.0527 105.632C16.4172 106.065 16.9098 106.992 17.2743 107.012C17.3925 107.111 17.8753 107.771 17.4123 107.456C18.1216 108.185 19.1954 108.984 19.7963 108.934C19.9606 109.142 20.1568 109.321 20.3775 109.467C20.6041 109.861 19.8948 109.378 20.2396 109.881C19.6978 109.615 19.7963 109.546 19.5796 109.25C19.1166 108.934 18.9195 108.934 19.0969 109.329C19.1954 109.398 19.0969 109.25 19.0969 109.181C19.3628 109.398 19.7076 109.565 19.8554 109.881C20.0032 110.196 19.5894 109.644 19.3924 109.664C19.4614 109.98 19.9244 110.029 19.9736 110.344C20.4367 110.226 21.1361 111.271 21.5794 111.981C21.9636 112.149 22.4069 112.149 21.8454 111.616C21.8454 111.882 21.5302 111.518 21.2839 111.202C21.2839 111.054 21.4809 111.271 21.5794 111.389C21.5794 111.153 20.5943 110.403 20.2692 109.98C21.8454 111.025 23.599 113.213 25.5102 114.387C25.5102 114.505 25.3427 114.387 25.2245 114.387C25.4083 114.651 25.687 114.835 26.0027 114.899C26.0027 115.215 26.318 115.215 26.584 115.58C26.85 115.944 25.855 115.264 26.2884 115.727C26.8007 115.777 26.8992 116.043 27.51 116.605C27.7521 116.623 27.9853 116.704 28.186 116.841C28.3866 116.977 28.5476 117.165 28.6528 117.384C29.0665 117.482 29.3325 117.768 29.766 117.847C30.426 118.942 32.5343 119.76 34.1696 121.101C34.1696 120.904 34.7705 121.032 34.8198 121.347C35.2828 121.466 35.2336 121.347 35.3124 121.249C35.4508 121.301 35.5803 121.374 35.6966 121.466C35.5784 121.535 35.6966 121.712 35.1843 121.613C35.6966 122.047 35.5291 121.397 36.0611 121.949C36.3763 121.811 36.4945 121.949 37.0462 122.244C37.2137 122.442 36.8985 122.392 36.5832 122.343C37.6767 122.659 39.0855 123.585 40.0608 123.487C40.6125 123.585 40.5435 123.704 40.8587 123.871C41.174 124.039 40.4745 123.999 40.7898 124.266C41.2233 124.315 41.2035 124.167 41.174 124.049C41.6567 124.285 41.5878 124.118 42.1 124.236C42.3168 124.551 41.4892 124.532 41.0065 124.335C41.2035 124.482 41.0558 124.482 41.0065 124.413C41.8178 125.103 42.8305 125.511 43.893 125.577C44.2378 125.823 43.2921 125.577 43.7551 125.873C44.2378 125.794 45.1835 126.474 45.9126 126.671C46.1785 126.671 46.08 126.573 46.3559 126.573C46.3559 126.651 46.1588 126.671 46.3559 126.79C46.7696 126.918 46.5036 126.79 46.8681 126.79C46.9371 126.859 46.6711 126.859 46.7893 126.957C47.2031 127.253 47.7745 127.253 47.7745 127.056C47.8643 127.128 47.9748 127.169 48.0897 127.174C48.1882 127.253 47.942 127.253 47.7942 127.273C48.8483 127.568 50.3753 128.259 51.1732 128.199C52.1584 128.682 51.9515 128.318 52.4933 128.584C53.1076 128.45 53.7378 128.403 54.3651 128.446C54.12 128.342 53.8662 128.259 53.6066 128.199C54.0006 128.13 54.2666 128.397 54.5917 128.347C54.6902 128.416 54.4439 128.416 54.3257 128.446C55.0547 128.584 55.7049 128.88 56.4339 129.028C56.5324 129.097 56.2862 129.126 56.1679 129.146C56.5027 129.263 56.8589 129.307 57.2122 129.274C57.6752 128.959 59.8327 129.806 61.0543 129.56C59.7104 129.45 58.3767 129.239 57.0644 128.929C57.5266 128.924 57.9862 128.997 58.4239 129.146C58.6505 128.978 57.8427 128.998 57.6752 128.899L58.4042 128.761C58.6209 128.86 58.4732 128.929 58.6998 128.998C59.6849 128.998 59.6849 128.584 60.8375 128.83C60.9065 128.978 60.0593 128.959 59.744 129.047C59.744 129.126 59.9608 129.225 59.8622 129.313C60.4048 129.043 61.0237 128.966 61.6158 129.097C61.7636 129.195 61.6158 129.274 61.3203 129.313C61.7833 129.511 62.3054 129.028 62.995 129.195C63.458 129.313 62.6305 129.392 63.1723 129.54C63.2906 129.54 63.2413 129.491 63.1723 129.442C63.1034 129.392 63.8028 129.442 63.6748 129.244C63.8718 129.294 64.6599 129.392 64.5023 129.175C64.7683 129.175 65.0638 129.126 65.3101 129.244C65.3101 129.412 64.4826 129.511 64.6697 129.659C65.0331 129.646 65.3936 129.59 65.7436 129.491C66.0588 129.58 65.7436 129.659 66.1573 129.757C66.8568 129.688 67.5661 129.757 68.2458 129.757C68.4921 129.856 67.8124 129.757 67.6646 129.984C68.5414 130.102 68.7778 129.521 69.6349 129.787C69.8713 129.737 70.1176 129.491 70.3639 129.57C70.6299 129.442 69.9994 129.57 69.9009 129.442L70.2654 129.304C70.9451 129.392 71.6446 129.225 72.3342 129.304C72.3342 129.521 71.4082 129.639 71.0437 129.442C70.77 129.577 70.4716 129.654 70.1669 129.668C70.7664 129.79 71.3869 129.756 71.9697 129.57C72.4524 129.639 71.8416 129.806 72.3046 129.885C73.2515 129.527 74.2489 129.321 75.2601 129.274C75.5261 129.392 74.8956 129.392 74.7971 129.521C75.2896 129.442 75.063 129.609 75.5064 129.668C76.1073 129.442 76.7477 129.471 77.3486 129.225C78.2254 129.343 78.1761 129.028 79.3977 128.495C78.9171 128.668 78.4178 128.784 77.9101 128.84C77.6638 128.929 77.7919 128.959 77.9101 129.008C77.6113 129.106 77.2987 129.156 76.9841 129.156C76.7181 129.156 77.3486 128.988 77.4471 128.988C76.8523 128.77 76.1997 128.77 75.6049 128.988C74.7919 128.879 73.9653 128.929 73.1716 129.136C72.9056 129.067 73.0533 128.949 72.61 129.136C71.4235 128.973 70.2204 128.973 69.034 129.136C69.034 128.87 67.773 129.136 68.1375 128.84C67.7959 128.925 67.4452 128.968 67.0932 128.968C67.2902 129.067 67.4873 129.018 67.6547 129.087C67.4209 129.136 67.1839 129.169 66.9454 129.185C66.8765 129.116 66.8765 129.037 67.0932 128.968C66.8075 128.84 66.4824 128.968 66.1967 128.821C65.98 128.87 66.0982 128.919 65.9504 128.988C65.8335 128.91 65.6982 128.865 65.5581 128.856C65.418 128.848 65.2781 128.876 65.1525 128.939C64.9554 128.87 64.788 128.722 64.5909 128.771C64.2757 128.673 65.2017 128.653 64.5909 128.525C63.6508 128.729 62.6713 128.654 61.7734 128.308C61.3597 128.16 61.5961 128.406 61.2808 128.436C61.1626 128.436 61.0346 128.436 60.9163 128.436C60.5026 128.318 60.8178 128.219 60.4041 128.091C59.3038 128.206 58.1917 128.068 57.1531 127.687C56.8692 127.729 56.5829 127.752 56.296 127.756C56.8378 128.022 56.7886 127.687 57.2811 127.874C56.9856 127.953 57.0644 127.923 57.3304 128.17C57.0633 128.252 56.7795 128.263 56.5066 128.203C56.2338 128.142 55.9814 128.012 55.7739 127.825C56.1187 127.726 56.3059 128.12 56.6704 127.973C56.1581 127.904 55.9906 127.637 56.4339 127.559C55.7246 127.44 55.0449 127.223 54.3356 127.075C54.6114 126.908 54.4833 126.977 53.9809 126.76C54.361 126.788 54.7275 126.914 55.0449 127.125C55.2616 127.075 54.7789 126.908 55.0449 126.878C54.6311 126.878 54.2666 126.681 53.8528 126.642C53.4391 126.602 53.9317 126.859 54.1976 127.026C53.55 126.887 52.8898 126.814 52.2274 126.809C52.1091 126.908 52.3062 127.046 52.1091 127.125C51.4491 127.006 52.1781 126.928 51.6757 126.711C51.5771 126.592 51.8628 126.711 52.0402 126.711C51.4786 126.257 49.9714 126.03 49.3409 125.547C48.4363 125.458 47.5499 125.236 46.7105 124.887C46.4938 124.62 47.3706 124.887 47.5183 124.699C46.9371 124.354 46.5923 124.699 46.5923 124.305C46.346 124.384 46.2968 124.502 46.4248 124.699C45.6557 124.519 44.9184 124.223 44.2378 123.822C43.8733 124.039 43.1935 123.654 42.6813 123.408C42.6123 123.309 42.8487 123.408 42.967 123.329C43.0852 123.25 43.2921 123.526 43.43 123.654C43.5679 123.782 43.6566 123.654 43.6073 123.575H43.8437C43.5088 123.329 43.0162 123.378 42.7502 123.013C43.0159 123.049 43.2729 123.133 43.5088 123.26C43.7452 123.112 42.9473 122.915 42.7502 122.767C43.5778 122.767 41.972 122.402 41.5188 122.067C41.5188 122.205 41.243 122.353 40.8095 122.185C41.1937 122.116 40.642 121.919 40.711 121.673C40.5995 121.665 40.4914 121.632 40.3957 121.574C40.4647 121.87 39.8145 121.505 39.5978 121.574C39.1016 121.166 38.5289 120.86 37.9132 120.677C37.5979 120.411 37.992 120.48 38.0905 120.411C37.5979 120.046 37.1053 119.75 36.8492 119.513L36.3566 119.435L36.6522 119.78C37.1644 119.78 37.3615 120.164 37.726 120.361C37.1644 120.292 36.8492 119.829 36.2877 119.73C36.6029 119.287 35.3025 119.05 34.7114 118.34C34.9479 118.567 35.2927 118.656 35.539 118.873C35.6769 118.754 34.8592 118.34 34.5538 118.173C34.406 118.173 34.3863 118.32 34.1598 118.32C33.6278 118.054 34.0415 117.975 33.8741 117.778C33.799 117.77 33.727 117.744 33.6637 117.703C33.6004 117.662 33.5476 117.607 33.5096 117.542C33.3421 117.758 32.8988 117.463 32.5835 116.96C32.682 117.344 32.3865 116.96 31.8053 116.861C31.421 116.349 32.5835 117.127 32.0712 116.546C31.7067 116.684 31.421 116.398 31.0861 116.398C30.7413 115.935 31.7363 116.566 31.6673 116.398C31.389 116.167 31.0434 116.032 30.6822 116.013C30.3669 115.629 31.0762 116.132 31.0467 115.944C30.4162 115.215 29.9532 115.304 29.0764 114.801C28.9385 114.574 29.0764 114.574 28.84 114.239C28.3277 114.091 28.0814 113.677 27.6184 113.46C27.6184 113.292 27.845 113.361 27.8647 113.213C28.0321 113.263 28.1109 113.391 28.2489 113.43C28.4952 113.726 28.1306 113.529 28.0814 113.608C28.577 113.861 29.0429 114.168 29.4704 114.525C29.1894 114.152 28.8578 113.82 28.4853 113.539C28.2686 113.243 28.9483 113.904 28.7513 113.539C29.1158 113.904 29.5296 114.199 29.9236 114.525C30.0221 114.525 29.9236 114.357 30.0221 114.406C30.4063 114.604 30.0221 114.604 30.3078 114.889C30.4891 114.947 30.6567 115.041 30.8004 115.166C31.1649 114.791 31.6181 115.846 32.3274 115.895C32.5737 116.181 32.0811 116.033 32.5244 116.309C32.8889 116.309 32.6426 115.984 33.0268 116.033C32.8594 115.796 32.5244 115.747 32.3471 115.53C32.2092 115.53 32.3471 115.649 32.4259 115.767C32.08 115.64 31.7646 115.442 31.4998 115.185C31.4998 115.018 31.8447 115.304 32.0318 115.185C32.3857 115.444 32.7694 115.659 33.1746 115.826C33.4406 116.112 32.9579 115.964 33.3913 116.26C34.3765 116.142 36.0414 117.788 37.3319 118.33C37.3319 118.449 36.8196 118.33 36.9379 118.498C36.0002 117.963 35.0925 117.377 34.2189 116.743C34.4159 117.039 34.8001 117.236 34.3174 117.157C34.6326 117.335 34.9676 117.473 35.3025 117.67C35.3025 117.818 34.9183 117.67 35.3025 118.064C35.7163 118.064 35.7951 118.133 36.2286 118.429C36.662 118.725 36.0315 118.527 36.3468 118.813C37.0035 119.191 37.7198 119.455 38.4648 119.592C38.4648 119.642 38.5831 119.809 38.4648 119.809C38.12 119.809 38.5338 119.612 38.0708 119.612C38.5634 120.056 39.2431 120.223 39.7455 120.598L40.6026 120.697C40.7405 120.894 40.6716 121.012 41.0164 121.258C41.5681 121.18 40.8883 120.943 40.8193 120.716C41.2528 120.766 41.4301 121.278 41.9326 121.209C42.3266 121.544 41.3513 121.347 41.9326 121.742C42.0606 121.742 41.9326 121.643 41.9326 121.594C42.7563 121.82 43.5476 122.151 44.2871 122.58C44.7698 122.58 44.1885 122.175 43.824 122.047C44.2378 122.116 44.8092 121.899 45.085 122.215C45.1835 122.442 44.622 122.097 44.6713 122.294C44.7205 122.491 45.1343 122.363 45.2624 122.609C45.548 122.53 45.2624 122.392 45.8928 122.53C46.1096 122.708 46.0603 122.777 45.7943 122.757C46.2771 123.122 46.4248 122.659 46.8878 122.994C46.9864 123.171 46.2278 122.994 46.6219 123.309C47.0553 123.309 46.9864 123.211 47.2721 123.191C47.4163 123.203 47.5568 123.243 47.6858 123.309C47.6858 123.437 47.075 123.309 47.1243 123.487C47.6858 123.625 47.5183 123.723 47.9814 124.019C48.8941 124.35 49.8381 124.588 50.7989 124.729C50.0896 124.818 52.4539 125.409 53.1829 125.626C53.0549 125.843 52.1978 125.409 51.6954 125.478C52.5032 125.942 53.4194 125.626 53.9809 126.011C54.0991 125.961 53.912 125.892 53.8134 125.823C54.1484 125.675 54.3947 125.892 54.7395 125.823C55.4389 126.356 56.6309 126.188 57.0644 126.553C58.1087 126.553 58.6702 126.918 59.5667 126.651C59.1529 126.651 59.4485 126.652 59.1529 126.454C60.4238 126.287 60.6898 126.77 60.7095 127.115C61.0247 126.967 60.808 126.799 61.0247 126.651C61.5093 126.684 61.9903 126.757 62.463 126.868C62.5812 126.967 62.0296 126.947 61.734 126.987C62.3596 127.103 62.991 127.185 63.6255 127.233C63.9013 127.282 63.8521 127.499 63.6255 127.401C63.6255 127.598 64.0885 127.401 64.3052 127.401C64.522 127.401 64.2067 127.302 64.1082 127.233C65.2695 127.506 66.4636 127.612 67.6547 127.549L68.2163 127.736C68.433 127.667 68.6596 127.736 68.896 127.637C69.8812 128.032 70.8663 127.549 71.8515 127.884C71.9707 127.843 72.0925 127.81 72.216 127.785C72.0736 127.817 71.9283 127.833 71.7825 127.835C71.9533 127.76 72.1317 127.704 72.3145 127.667C72.7594 127.553 73.2151 127.487 73.674 127.47L73.5262 127.549H73.4277C73.308 127.588 73.1863 127.621 73.0632 127.647C73.6725 127.606 74.2844 127.639 74.8857 127.746C74.2749 127.963 74.2257 128.032 73.743 128.209C74.8857 128.081 76.0285 127.598 76.59 127.766C76.5408 127.43 77.3387 127.135 77.0038 126.78C77.585 126.78 78.1466 126.78 78.6982 126.681C78.6096 126.336 76.6393 126.918 76.659 126.464C76.8757 126.316 77.1023 126.464 77.3387 126.464C77.4175 126.218 78.2451 126.287 78.649 125.971C78.58 126.119 78.5603 126.267 79.112 126.287C79.0628 126.09 79.4076 126.001 79.8706 125.754C80.2351 125.853 80.8557 125.922 80.8557 125.675C81.2695 125.675 81.0724 125.873 81.5552 125.754C81.8015 125.853 81.5552 125.873 81.2399 126.05C81.7356 125.987 82.2198 125.854 82.6782 125.656C83.092 125.656 82.3137 126.021 82.6782 126.05C82.8753 125.951 82.9738 125.587 83.427 125.656C83.427 125.537 83.7422 125.36 83.289 125.39C83.89 125.143 83.7915 125.192 83.9885 124.906C84.1855 124.62 84.4712 124.975 84.6682 124.778C85.1313 124.463 84.353 124.709 84.1855 124.66C84.4838 124.593 84.7768 124.504 85.0623 124.394C85.2987 124.443 84.6485 124.759 85.0623 124.729C85.151 124.512 85.811 124.413 85.614 124.611C86.4226 124.076 87.3736 123.797 88.3428 123.812C88.3428 123.713 88.5793 123.516 88.5793 123.418C88.1163 123.497 88.3133 123.418 87.8995 123.418C87.6335 123.585 87.8995 123.585 88.0473 123.585C87.1611 123.906 86.2373 124.112 85.2987 124.197C86.0277 123.832 86.8553 123.901 87.5646 123.487C87.165 123.597 86.7561 123.67 86.343 123.704C86.7567 123.467 87.2198 123.516 87.5843 123.102C87.8306 123.102 87.466 123.368 87.8798 123.339C88.0276 123.201 88.2148 123.171 88.3625 123.023C88.5103 122.875 88.4611 123.142 88.3133 123.27C88.5596 123.27 88.727 123.053 88.9733 123.122C89.0226 122.856 89.722 122.708 89.722 122.461C90.3328 122.373 89.8009 122.737 90.2639 122.708C90.7041 122.404 91.2266 122.242 91.7613 122.244C92.3721 121.83 92.4411 122.077 93.0321 121.692C93.2981 121.692 92.7169 121.88 92.6676 122.047C93.2981 121.929 93.8301 121.495 94.4606 121.347C94.531 121.284 94.5842 121.203 94.6152 121.114C94.6462 121.024 94.654 120.928 94.6379 120.835C95.0024 120.716 95.6231 120.302 95.5541 120.085C96.0467 119.937 95.3571 120.371 95.8497 120.223C96.1649 120.105 96.4112 119.819 96.7757 119.789C97.1106 119.474 96.7757 119.523 97.2092 119.326C97.6426 119.129 96.8447 119.839 96.9432 119.908C96.7461 120.154 96.3816 119.908 96.2339 120.253C96.4112 120.371 97.219 119.937 97.554 119.592C97.9382 119.474 97.7411 119.691 98.0564 119.592C98.4997 119.178 99.4159 118.429 99.6917 118.498C99.9676 118.567 99.8297 118.33 99.6917 118.33C100.005 118.051 100.391 117.866 100.805 117.798C100.953 117.502 101.219 117.453 101.386 117.167C101.022 117.551 100.401 117.433 100.125 117.946C99.7311 117.946 100.125 117.601 99.3469 117.896C99.4484 117.751 99.582 117.631 99.7375 117.545C99.893 117.46 100.066 117.411 100.243 117.404C100.539 116.97 99.7804 117.502 99.7114 117.404C99.6626 117.515 99.5803 117.607 99.4761 117.669C99.3719 117.731 99.2509 117.759 99.1302 117.749C98.9627 118.044 98.6672 118.064 98.7361 118.212C99.1006 118.113 99.3272 117.847 99.2977 118.113C99.1006 118.33 98.7854 118.232 98.6179 118.478C98.3716 118.429 98.7854 118.133 98.2042 118.38C98.5194 118.527 97.7707 118.646 97.4259 118.843C97.3569 118.843 97.3274 118.646 97.5047 118.547C97.0421 118.667 96.598 118.85 96.1846 119.089C95.6822 118.961 95.1404 119.504 94.7266 119.326C94.2439 119.671 94.3916 119.819 93.8301 120.056C93.6823 120.056 93.9483 119.868 94.0468 119.74C93.5346 119.691 93.1504 120.036 92.6873 120.154C92.5691 120.332 92.6873 120.332 92.9336 120.204C92.7169 120.549 92.2243 120.549 92.3031 120.736C92.2408 120.676 92.1579 120.643 92.0716 120.643C91.9854 120.643 91.9024 120.676 91.8401 120.736C91.5938 120.687 91.8401 120.608 92.0765 120.391C91.4953 120.519 91.0126 120.933 90.3821 120.854C90.3033 121.367 89.5743 121.002 89.1901 121.485C89.1901 121.249 88.727 121.613 88.6088 121.485C88.9587 121.272 89.3618 121.163 89.7713 121.17C89.988 120.687 91.0323 120.588 91.7416 120.47C91.7416 120.322 91.7416 120.204 92.1258 119.888C91.2786 120.736 89.0423 120.568 88.3133 121.663C87.6538 121.901 86.9791 122.096 86.2937 122.244C86.1755 122.392 86.2937 122.412 86.54 122.313L85.9785 122.806C85.7721 122.888 85.5497 122.922 85.3283 122.905C85.614 122.678 85.9588 122.728 86.2248 122.392C85.9095 122.392 85.5943 122.511 85.2396 122.511L84.8554 122.806C84.6768 122.85 84.4959 122.883 84.3136 122.905C84.0771 122.905 84.3136 122.708 84.5894 122.53C83.7816 122.678 84.2446 123.043 83.3679 123.171C83.2989 123.24 83.2989 123.309 83.4959 123.339C83.3144 123.471 83.1058 123.562 82.8851 123.605C83.2496 123.142 81.5749 123.457 80.9936 123.437C81.5946 123.191 83.2004 123.043 83.0822 122.728C83.6831 122.53 84.3431 122.491 84.9736 122.244C84.9736 121.998 84.2446 122.392 83.8998 122.392C84.3628 122.116 84.3924 122.215 84.6879 121.899C85.0032 122.175 85.2889 121.761 85.5844 122.047C86.0672 121.712 85.8012 121.663 85.5844 121.564C85.9489 121.347 86.0277 121.613 86.2445 121.564C86.4612 121.515 86.7075 121.347 86.9242 121.101C87.3084 121.051 87.072 121.229 87.3872 121.199C87.801 120.864 87.6532 121.101 88.1162 120.982C88.5816 120.763 89.0353 120.519 89.4758 120.253C89.9388 120.184 89.4758 120.47 89.6728 120.499C89.1802 120.766 88.2345 120.963 88.4019 121.249C88.6724 121.095 88.9324 120.924 89.1802 120.736C89.1802 120.785 89.259 120.835 89.4265 120.835C89.8107 120.47 89.8895 120.42 90.323 120.42C90.8648 120.036 90.1555 120.154 90.6875 119.77C90.786 119.691 90.8845 119.691 90.983 119.592C91.3672 119.543 91.0815 119.789 91.0815 119.918C91.3968 119.987 91.6135 119.691 91.9288 119.691C92.1258 119.543 92.0076 119.543 91.8795 119.543C92.4411 119.188 93.1701 119.277 93.6331 118.626C94.5464 118.17 95.4874 117.771 96.4506 117.433C96.6673 117.068 97.0614 117.019 97.3471 116.802C97.3471 116.556 97.2289 116.605 97.4949 116.309C97.2008 116.381 96.9006 116.423 96.5984 116.437C96.4703 116.753 96.5984 116.575 96.3521 116.97C96.1058 117.364 95.5049 117.335 95.16 117.749C94.8448 117.749 95.4556 117.266 95.4556 117.068C95.1896 117.068 94.5296 117.601 94.5296 117.335C93.8695 117.601 93.3375 118.232 92.5593 118.232C92.9238 117.916 93.3375 117.818 93.6823 117.502C93.4314 117.648 93.1452 117.723 92.8548 117.719C92.8055 117.946 92.707 117.995 92.4608 117.916C91.8106 118.527 90.9042 118.478 90.2048 118.902C89.791 119.001 90.2048 118.735 90.323 118.587C90.0077 118.587 89.791 118.804 89.525 118.823C89.6395 118.905 89.7691 118.962 89.9061 118.993C90.0431 119.023 90.1849 119.026 90.323 119.001C90.323 119.05 90.323 119.119 90.323 119.218C90.0913 119.313 89.8545 119.395 89.6137 119.464C89.4758 119.464 89.791 119.218 89.3477 119.316C89.1014 119.484 89.1802 119.533 89.1014 119.632C89.0226 119.73 88.8157 119.701 88.6876 119.799C88.4019 119.73 88.8847 119.602 88.8354 119.484C89.1014 119.237 89.4758 119.366 89.7122 119.07C86.6446 120.269 83.4624 121.151 80.2154 121.702C80.0676 122.106 78.9938 122.166 78.7574 121.939C78.5603 122.166 78.9248 122.284 78.7574 122.501C78.1663 122.698 78.1958 122.353 77.6146 122.599C77.4865 122.599 77.6835 122.481 77.8018 122.402C77.2869 122.555 76.7594 122.66 76.2255 122.718C76.8363 122.185 74.9645 122.668 74.1075 122.451C73.7036 122.599 74.1863 122.619 74.334 122.668C73.5065 122.797 73.871 122.668 73.0928 122.668C72.945 122.747 73.3588 122.767 73.1913 122.866C72.984 122.915 72.7681 122.915 72.5608 122.866C72.5608 122.954 72.413 123.033 72.147 123.151C71.6544 123.319 71.8022 122.954 71.2899 123.25C71.1422 123.181 71.2899 123.082 71.5165 122.954C70.641 122.864 69.7577 122.881 68.8862 123.004C68.8172 122.935 68.8172 122.866 69.0044 122.787C68.0261 122.933 67.0382 123.006 66.049 123.004C65.9997 122.954 65.9504 122.915 66.049 122.866C65.642 122.882 65.2414 122.972 64.8668 123.132C64.5417 123.004 64.5417 122.935 64.8668 122.885C63.6058 122.885 62.4335 122.353 61.1035 122.688C60.739 122.57 61.2217 122.52 60.8572 122.402C61.074 122.323 61.2414 122.471 61.4877 122.402C60.3405 122.528 59.1801 122.451 58.0594 122.175C57.8427 122.323 58.8377 122.451 58.1875 122.55C57.7735 122.271 57.2956 122.101 56.7984 122.057C56.4339 122.254 57.2122 122.136 57.4782 122.304C57.0879 122.336 56.695 122.303 56.3157 122.205C56.3157 122.087 56.4832 121.958 56.6309 121.84C55.618 121.859 54.6063 121.76 53.6164 121.544C53.5376 121.475 53.7839 121.446 53.6657 121.377C53.5474 121.308 53.3209 121.278 53.1731 121.16C52.7692 121.209 52.9563 121.258 52.4933 121.229C52.4933 121.13 52.4244 121.042 52.1781 120.894C51.6677 120.795 51.1643 120.663 50.6708 120.499C50.5033 120.351 50.8678 120.43 51.0353 120.499C50.8061 120.364 50.5481 120.286 50.2825 120.27C50.017 120.255 49.7516 120.303 49.5083 120.411C49.0256 120.135 49.5083 120.164 49.8236 120.135C49.0937 120.077 48.3712 119.948 47.6661 119.75C47.4888 119.651 47.8829 119.602 48.0208 119.75C48.0208 119.582 47.6366 119.435 47.2228 119.267C47.3706 119.267 47.804 119.435 47.4691 119.168C47.6858 119.168 47.804 119.415 48.0996 119.297C47.804 119.07 47.4395 119.07 47.1144 118.882C47.2129 119.02 46.8484 119.119 46.5529 118.882C46.4051 118.882 46.7007 118.971 46.7992 119.099C46.369 118.984 45.924 118.934 45.4791 118.951C45.0752 118.685 45.8042 118.833 45.4791 118.587C45.1441 118.587 44.6614 118.419 44.5629 118.587C43.8339 118.201 43.0764 117.871 42.2971 117.601C42.2971 117.68 42.2971 117.818 41.8833 117.699C41.6961 117.364 42.2774 117.502 41.5188 117.068C41.8636 117.068 42.0606 117.266 42.2971 117.364C42.3759 117.167 41.4498 116.97 41.1346 116.723C41.0656 116.723 41.1346 116.901 40.9376 116.871C40.6913 116.635 40.4548 116.585 40.3366 116.289C39.9426 116.191 40.11 116.388 39.7258 116.289C39.3416 116.191 39.381 115.708 38.7407 115.757C38.5239 115.54 38.8096 115.589 38.524 115.343C38.7632 115.382 38.9876 115.484 39.1741 115.639C37.9821 114.653 35.7458 113.667 34.2484 112.573C34.3174 112.474 34.5341 112.494 34.8099 112.573C34.5341 112.326 34.1203 112.237 33.8839 111.942C33.6179 111.873 33.6376 111.991 33.6179 112.109C32.8101 111.675 31.8151 110.315 30.7216 110.137C30.6034 109.822 31.0861 110.256 31.1649 110.137C30.6526 109.733 30.5246 109.654 30.1798 109.319C30.0615 109.319 30.1108 109.418 29.963 109.388C29.3719 109.023 28.8203 108.027 28.308 108.027C28.2095 107.811 28.3769 107.811 28.1602 107.495C27.9435 107.18 27.5297 107.229 27.4607 106.884C26.8007 106.884 26.2687 105.622 25.4905 105.277C25.6185 105.277 25.3525 104.912 25.5397 104.991C25.1062 104.695 24.5546 104.449 24.4955 103.896C24.2952 103.812 24.1141 103.688 23.9635 103.532C23.9635 103.532 23.9635 103.433 23.9635 103.285C23.796 103.285 23.4315 102.871 23.6975 102.989C23.3133 102.708 22.9969 102.344 22.7714 101.925C22.7714 102.122 22.5252 101.925 22.2592 101.658C22.2592 101.56 22.4365 101.658 22.5252 101.658C22.2592 101.244 21.8454 100.919 21.54 100.515C21.9538 100.682 21.8553 100.919 22.1705 100.919C22.0259 100.657 21.8395 100.421 21.6188 100.219C21.6188 100.101 21.8356 100.219 21.9833 100.318C22.2198 100.603 22.2493 101.018 22.6828 101.165C22.3478 100.87 22.6828 100.83 22.3971 100.534C22.4661 100.337 22.732 100.603 22.9783 100.83C22.9783 101.018 22.7813 100.899 22.6828 100.919C22.8503 101.284 23.0965 101.264 23.3133 101.333C23.573 101.548 23.7731 101.827 23.8945 102.141C23.4413 101.56 23.3133 101.875 22.998 101.432C22.7616 101.382 23.3625 101.944 22.801 101.579C22.4365 101.363 23.0768 101.481 22.7123 101.264C22.3478 101.047 22.5843 101.264 22.6335 101.56C22.5227 101.484 22.4315 101.382 22.3675 101.264C22.535 101.678 23.5793 102.526 23.993 103.236C23.993 102.94 24.2886 103.502 24.456 103.384C24.1468 103.009 23.789 102.678 23.3921 102.398C23.6778 101.885 24.6334 103.216 25.0668 103.492C25.4313 104.143 24.7713 103.778 24.9486 104.241C25.1851 104.094 25.3821 104.754 25.7958 104.823C25.5496 104.636 24.9683 103.975 25.3821 104.025C25.5791 104.577 25.8648 104.291 26.2786 104.951C26.5052 105.316 26.0126 105.02 26.2096 105.385L26.7416 105.602C26.6726 105.454 26.5938 105.336 26.7416 105.365C27.5099 105.904 28.2467 106.487 28.9483 107.111C28.8794 106.775 28.5641 106.677 28.3868 106.411C28.8991 106.726 29.7266 107.308 29.6773 107.673C29.479 107.471 29.2251 107.334 28.9483 107.278C28.7513 107.278 29.2636 107.623 29.0271 107.623C29.5591 107.958 30.1896 108.057 30.2881 108.609C30.6034 108.609 30.7019 108.846 30.8694 109.023C30.8694 108.974 31.0861 109.023 31.0861 108.944C31.5787 109.477 32.7608 110.039 32.8889 110.522C33.244 110.784 33.6273 111.006 34.0317 111.182C34.0317 111.261 33.9036 111.281 33.8149 111.281C34.0809 111.547 34.1302 111.281 34.3666 111.399C34.6129 111.715 34.3666 111.695 34.1006 111.715C34.4454 112.011 34.9774 112.257 34.9774 112.573C35.1941 112.494 34.9774 112.158 35.4404 112.277C34.9971 111.843 35.0267 112.444 34.4553 111.863C34.4553 111.665 34.6425 111.665 35.007 111.813C35.7163 112.178 36.1005 112.908 36.8295 113.223C36.9576 113.568 36.465 113.154 36.1793 113.105C36.4386 113.331 36.7448 113.496 37.0758 113.588C37.0827 113.546 37.08 113.503 37.0681 113.462C37.0562 113.421 37.0352 113.383 37.0068 113.351C37.2433 113.44 37.2728 113.618 37.391 113.489C37.7555 113.953 38.5338 113.835 38.8293 114.416C38.9673 114.298 39.7455 114.663 39.7258 114.88C40.2085 114.732 41.0361 115.175 41.5484 115.56C41.7454 115.56 41.6666 115.511 41.7946 115.511C42.2084 115.875 42.7798 116.023 42.6419 116.27C42.9079 116.27 43.1738 116.27 43.4398 116.27C44.0014 116.635 43.1049 116.437 43.4398 116.704C43.9472 116.653 44.4562 116.782 44.8781 117.068C44.9964 116.97 45.4594 116.989 45.6269 116.92C45.8239 117.167 45.0161 117.039 45.4101 117.364C45.6072 116.989 46.7992 117.482 47.2819 117.867C47.8139 117.995 47.8434 117.749 48.3262 118.015C48.2572 118.133 47.8139 118.163 48.4247 118.311C48.4247 118.449 48.1587 118.478 47.7942 118.478C47.8192 118.502 47.8486 118.52 47.8808 118.532C47.9129 118.544 47.9471 118.549 47.9814 118.547L48.1291 118.695C48.4936 118.695 48.2966 118.528 48.671 118.508C49.2226 118.508 49.0059 118.813 49.5182 119.089C49.932 119.04 50.1979 119.356 50.6117 119.356C50.46 119.212 50.2802 119.1 50.0836 119.029C49.8869 118.958 49.6777 118.928 49.4689 118.942C49.4689 118.843 49.3015 118.695 49.0749 118.527C49.4886 118.695 49.5182 118.527 49.9516 118.813C50.4147 118.813 49.7842 118.597 50.2472 118.646C50.8683 118.983 51.5306 119.238 52.2175 119.405C52.3554 119.326 51.6757 119.109 51.4589 119.109C51.4589 118.774 52.385 119.109 52.7987 119.277C53.0155 119.543 52.119 119.089 52.3554 119.277C52.7692 119.612 52.7692 119.277 53.2322 119.494C52.8972 119.592 53.2322 119.691 53.7937 119.809C54.3264 119.851 54.8455 119.998 55.3207 120.243C55.5867 120.125 56.3748 120.174 56.956 120.075C56.8083 120.42 58.483 120.391 58.749 120.302C58.8968 120.371 59.015 120.47 58.9263 120.489C59.1135 120.391 59.478 120.637 59.9115 120.489C60.1775 120.805 60.6208 120.539 61.3498 120.489C61.468 120.588 61.202 120.657 61.5863 120.785C62.8768 120.657 63.5565 120.904 64.8471 120.854C64.9949 120.982 64.7289 121.051 65.1328 121.071C65.182 120.756 65.8421 120.953 66.1179 121.17C65.9209 120.933 66.6006 120.736 67.1622 120.854C67.3296 121.051 66.5218 120.854 66.6204 121.051C66.7189 121.249 66.9651 121.101 67.1326 121.17C67.2804 121.071 67.0341 120.982 67.4479 120.982C67.5759 120.982 67.1819 121.101 67.3296 121.17C67.9897 121.268 68.2064 121.17 68.1572 121.002C68.6695 120.904 68.1572 121.268 68.6694 121.199C68.5906 120.982 69.0536 120.904 69.4871 120.805C69.6644 121.051 69.8122 120.805 70.1964 120.982C70.1964 120.805 70.7087 120.785 70.9944 120.854C71.0436 120.953 70.7777 120.933 70.9057 121.071C71.0437 120.805 72.6297 120.933 72.413 120.539C72.7972 120.637 73.1617 120.223 73.5262 120.322C73.8907 120.42 73.1814 120.47 72.9154 120.706C73.2799 120.706 73.674 120.608 74.0385 120.608C74.1863 120.075 75.5458 120.125 75.93 119.957C75.93 120.125 75.4177 120.243 75.2305 120.342C75.0434 120.44 75.132 120.273 75.2305 120.204C74.7872 120.204 74.935 120.371 74.4227 120.47C74.9027 120.357 75.4059 120.398 75.861 120.588C76.2748 120.44 75.7822 120.42 75.9595 120.302C76.5605 120.519 78.915 119.74 79.7425 119.612C79.8706 119.612 80.5503 119.247 80.2055 119.198C80.6981 118.882 81.1907 119.129 81.1907 118.784C81.5059 118.784 81.1907 119.03 81.2596 119.129C81.3512 119.096 81.4402 119.057 81.5256 119.011C81.5568 119.046 81.5947 119.074 81.6369 119.094C81.6792 119.115 81.7251 119.126 81.7719 119.129C82.0576 118.912 81.5256 119.08 81.6241 118.863C81.8901 118.715 82.2054 118.764 82.4714 118.478C80.9444 118.715 79.4371 119.08 77.9101 119.346C77.4668 119.346 78.1466 119.129 77.6835 119.129C77.2205 119.129 77.4471 119.277 77.2304 119.444C76.8166 119.346 77.4471 119.06 77.7624 118.813C78.7326 118.831 79.6966 118.656 80.5996 118.301C80.8951 118.232 81.2104 118.301 81.5059 118.202C81.1907 118.084 81.2892 118.104 81.8901 118.015C82.2054 117.837 81.8901 117.837 82.0379 117.719C82.8162 117.818 82.9344 117.522 83.5649 117.335C83.8604 117.335 83.6437 117.473 84.0082 117.453C83.9294 117.305 84.2052 117.088 84.6387 117.039C84.9047 117.039 84.1757 117.374 84.6879 117.285C84.7367 117.233 84.7966 117.193 84.8631 117.167C84.9296 117.142 85.0011 117.131 85.0722 117.137C85.0722 117.058 85.151 116.96 85.2987 116.842C85.943 116.66 86.6025 116.538 87.269 116.477C87.269 116.063 87.8995 116.309 88.2542 115.915C88.5005 115.994 87.9192 116.112 87.87 116.309C88.1988 116.138 88.5505 116.015 88.9142 115.944C89.0817 115.826 89.2098 115.55 89.3969 115.55C89.259 115.382 89.3969 115.333 89.7614 114.968C89.0817 115.363 88.6975 115.215 88.1852 115.599C87.7715 115.599 88.3527 115.382 87.9882 115.382C87.6532 115.649 87.6729 115.777 87.8207 115.846C87.6062 115.96 87.4019 116.092 87.2099 116.24C87.1114 115.964 86.5597 116.358 86.2248 116.506C85.9292 116.427 86.5893 116.211 86.609 115.964C86.3918 116.014 86.2016 116.144 86.077 116.329C85.7455 116.282 85.4076 116.316 85.0919 116.427C85.0919 116.526 84.8259 116.743 84.5993 116.96C84.4614 116.871 84.55 116.674 84.1363 116.674C83.9195 116.891 83.6338 116.822 83.3679 116.92C83.4565 116.792 83.1905 116.773 83.2201 116.674C82.2294 117.036 81.202 117.287 80.1563 117.423C79.6243 117.837 79.0135 117.62 78.452 117.936C77.388 117.689 75.9989 118.695 75.2502 118.232C75.0532 118.399 74.8562 118.33 74.669 118.478C74.4165 118.401 74.1547 118.358 73.8907 118.35C74.2749 118.182 74.5902 118.301 74.738 118.015C74.5902 118.251 74.9842 118.084 75.3192 118.084C75.5655 117.887 75.1714 117.985 74.935 117.985C75.354 117.798 75.8063 117.698 76.2649 117.689C76.462 117.739 75.8512 117.916 75.7133 117.867C75.8807 118.084 76.8462 117.65 77.3387 117.601C77.0925 117.502 76.9053 117.719 76.659 117.601C77.3299 117.446 77.9885 117.241 78.6293 116.989C78.9445 116.989 78.0382 117.315 78.58 117.285L78.9445 117.039C79.7656 116.964 80.5615 116.715 81.2793 116.309C80.7868 116.704 81.6635 116.388 82.1463 116.26C82.1463 116.142 82.3926 115.994 82.0281 116.092C82.5896 115.609 82.8063 116.043 83.289 115.629C83.6043 115.629 83.4861 115.826 83.4861 115.974C83.6148 115.937 83.7337 115.872 83.8342 115.783C83.9347 115.694 84.0143 115.584 84.0673 115.461C84.4121 115.215 85.2396 115.343 85.2396 114.998C85.3775 114.998 85.9686 114.85 85.9686 114.998C86.5927 114.534 87.3134 114.217 88.0769 114.071C87.7918 114.219 87.5429 114.427 87.3478 114.682L88.333 114.535C88.5793 114.396 87.9685 114.367 88.333 114.318C88.4315 114.032 87.9192 114.485 87.801 114.535C87.6237 114.298 88.6187 113.716 89.1802 113.756C89.7615 113.489 90.1654 112.711 90.855 112.691L91.1505 112.346C91.4658 112.277 91.1505 112.523 91.249 112.592C91.6135 112.474 91.8303 111.981 92.2342 111.961C92.4805 112.011 91.9386 112.247 91.8894 112.395C92.624 111.785 93.4755 111.332 94.3916 111.064C94.7081 110.918 94.9801 110.69 95.1798 110.404C94.9335 110.473 94.8547 110.403 95.0024 110.285C95.4162 110.285 96.1748 109.427 96.8742 109.299C96.8268 109.411 96.7568 109.511 96.6686 109.595C96.5805 109.678 96.476 109.742 96.3619 109.782C96.9155 109.582 97.4392 109.306 97.9185 108.964C98.1845 108.52 97.6525 109.151 97.4062 109.053C97.6328 108.737 97.948 108.668 98.1352 108.353C98.0367 108.353 98.017 108.274 98.1352 108.106C97.8692 108.106 97.8397 108.303 97.7411 108.175C97.8498 108.098 97.9432 108.001 98.017 107.889C98.5687 107.889 98.6475 107.722 99.2287 107.475C99.0612 107.84 98.6475 107.771 98.4701 108.136C98.746 108.136 98.8642 107.889 99.1302 107.909C98.8839 107.909 99.544 107.258 99.8592 107.012C99.9577 107.012 99.8592 107.16 99.7903 107.278C100.105 107.278 100.204 106.963 100.49 106.913C100.588 106.746 100.204 106.963 100.204 106.844C100.667 106.282 101.347 106.065 101.78 105.533C101.662 105.336 101.435 105.868 101.15 105.947C101.081 105.947 101.1 105.898 101.022 105.898C101.435 105.681 101.435 105.434 101.81 105.02C101.632 104.853 101.347 105.218 101.317 105.503C100.903 105.701 101.485 105.02 101.022 105.405C101.169 105.119 101.662 104.656 101.169 104.803C100.953 104.971 100.953 105.119 101.169 105.02C101.1 105.139 100.953 105.168 100.835 105.218C100.588 105.503 100.736 105.533 100.618 105.75C100.121 106.068 99.6701 106.453 99.278 106.894C98.4997 106.963 98.0859 107.672 97.4554 107.988C97.3274 107.692 98.283 107.258 98.2042 107.002C97.3997 107.545 96.6297 108.138 95.8989 108.777C95.7282 108.74 95.55 108.765 95.3953 108.846C95.2406 108.927 95.119 109.059 95.0517 109.22C94.7561 109.22 94.7758 108.954 95.0517 108.658C94.8547 108.658 94.7758 108.856 94.6084 108.875C94.8251 108.875 94.4606 109.289 94.7069 109.289C94.0961 109.487 93.6626 110.049 93.0814 110.275C93.7808 109.664 94.1749 109.23 94.3424 109.132C93.9582 109.003 93.1799 109.93 92.6873 110.325C92.5691 110.147 92.0076 110.512 91.7022 110.709C91.6529 110.788 91.8401 110.758 91.7712 110.857C91.7022 110.956 91.6037 110.956 91.5249 111.025C91.4461 111.094 91.5741 110.827 91.3574 110.877C90.6579 111.242 90.0176 111.784 89.2886 112.149C89.2393 112.149 89.2886 112.05 89.1704 112.05C89.7269 111.714 90.2542 111.331 90.7466 110.906C90.1161 111.054 89.5841 111.488 88.9241 111.656C88.7763 111.902 89.2196 111.587 89.3378 111.656C89.2302 111.784 89.1 111.89 88.9536 111.971C88.5103 112.05 88.7073 111.734 88.3231 111.902C88.1754 112.05 88.3231 112.07 88.1261 112.218C88.2246 112.218 88.2936 112.119 88.3724 112.07C88.6088 112.07 88.6581 112.385 88.7763 112.07C89.3674 112.07 88.7763 112.415 88.4414 112.533C88.8256 112.218 87.8798 112.632 88.1458 112.287C87.9094 112.336 87.7616 112.73 87.5153 112.78C87.269 112.829 87.8109 112.365 88.0276 112.218C88.2443 112.07 87.732 112.119 87.9291 111.902C87.5646 111.951 87.3281 112.267 86.9439 112.267C86.9439 112.099 87.269 112.02 87.3577 111.754C86.9735 111.656 86.7567 112.099 86.3725 112.02C86.2445 112.218 86.7568 111.932 86.9538 112.02C86.7002 112.143 86.4321 112.232 86.1558 112.287C86.5893 112.287 86.4218 112.484 86.3725 112.701C86.2831 112.737 86.2 112.787 86.1263 112.849C85.7125 112.918 86.2937 112.602 85.8898 112.671C85.5943 113.115 83.4565 113.657 83.5255 113.282C83.3383 113.499 83.0132 113.529 83.0624 113.696C82.5797 113.746 82.8457 113.529 82.5305 113.499C82.9935 113.381 83.3777 113.065 83.8407 112.987C83.192 113.035 82.5576 113.202 81.9689 113.48C81.7818 113.48 82.0675 113.282 81.7325 113.312C81.3597 113.612 80.8905 113.766 80.4124 113.746C80.4124 113.963 80.0282 114.042 80.3139 114.209C80.0282 114.081 79.7326 114.446 79.2302 114.377C79.5455 114.623 78.5012 114.692 78.5406 114.889C77.8609 114.939 78.8854 114.544 78.4027 114.544C78.2981 114.651 78.172 114.735 78.0327 114.789C77.8934 114.844 77.7442 114.868 77.5949 114.86C77.5456 114.761 77.5949 114.643 77.6737 114.544C78.5189 114.357 79.3462 114.096 80.1464 113.765C79.91 113.667 79.7327 113.963 79.4962 113.815C78.4027 114.574 77.1319 114.111 76.0186 114.722C74.8266 114.525 72.7381 115.274 72.1766 114.86C71.8121 114.86 71.4476 114.909 71.0831 114.86C70.886 115.195 70.2555 115.057 69.8221 115.126C69.8221 115.057 69.9206 114.978 69.7236 114.929C69.6743 115.146 69.0438 115.195 69.0931 115.008C68.1079 115.323 67.1228 115.008 66.0785 115.126C66.3445 115.225 65.8322 115.294 65.6844 115.373C65.517 115.274 66.0785 115.175 65.98 115.077C65.1322 114.991 64.2789 114.975 63.4285 115.027C63.5073 114.712 62.4433 114.613 62.266 114.811C62.1182 114.663 61.9212 114.732 61.7537 114.613C61.2217 115.057 59.4879 114.278 58.3944 114.416C57.7146 113.835 56.0891 114.327 55.5768 113.765C55.8473 113.834 56.1254 113.867 56.4044 113.864C56.2566 113.598 55.2911 113.785 54.6311 113.519C54.3651 113.401 53.4686 112.888 53.3406 113.105C53.1238 113.154 53.0253 112.888 52.8775 112.819C52.2273 112.819 51.6658 112.504 50.9861 112.504C50.0009 112.109 48.799 111.626 47.7548 111.212C40.8469 108.254 34.63 103.889 29.5 98.395C24.4889 92.9243 20.6679 86.4715 18.2792 79.4456C17.0212 75.8541 16.2041 72.123 15.8459 68.3342C14.7796 57.3014 17.3466 46.2221 23.1557 36.7847C23.3527 36.6368 23.333 36.8833 23.333 37.0509C22.6566 37.9304 22.0692 38.875 21.5794 39.8707C21.1728 40.8938 20.6852 41.8829 20.1214 42.8284C20.2002 43.0749 20.1214 43.1439 20.0229 43.489C19.9047 43.489 20.0229 43.3608 20.0229 43.2228C19.7864 43.489 19.9047 43.9228 19.5599 44.12C19.5599 44.4059 19.7865 44.1693 19.7865 44.4355C19.0637 45.438 18.6093 46.609 18.4664 47.8369C17.9985 48.7075 17.7262 49.6698 17.6684 50.6567C17.5994 50.7552 17.5502 50.7848 17.5206 50.7059C17.3929 51.5547 17.1986 52.392 16.9394 53.2102C16.7701 53.91 16.7037 54.6307 16.7424 55.3496C16.5946 55.5764 16.5946 55.3496 16.5256 55.6651C16.5256 55.7637 16.6438 55.5961 16.7226 55.5468C16.4755 56.4289 16.3203 57.3342 16.2596 58.2482C16.2913 59.1867 16.2186 60.1258 16.0429 61.0483C16.2793 61.2356 16.0429 62.2117 15.9444 62.6948C15.8656 63.5032 16.2301 64.0849 16.0133 64.4497C16.2195 65.1244 16.2195 65.8454 16.0133 66.5201C16.1119 66.9342 16.1808 66.3229 16.2793 66.7173C16.3778 66.7863 16.1611 67.2497 16.1119 67.0525C16.3286 67.4863 16.1808 67.9004 16.3089 68.3441H16.4567C16.3778 68.0779 16.2793 67.5356 16.4567 67.5849C16.4567 67.8511 16.5946 68.0976 16.4567 68.3441H17.4418C17.3018 66.9683 17.236 65.5861 17.2448 64.2032C17.2346 57.1124 18.7558 50.1031 21.7042 43.6554C24.6526 37.2077 28.9586 31.4739 34.3272 26.8466C34.6215 26.5549 34.9306 26.2785 35.2533 26.0185C35.7413 25.5885 36.251 25.1838 36.7802 24.8058C37.2693 24.3767 37.7896 23.9845 38.3368 23.6325C38.9377 23.1692 39.5485 22.7353 40.179 22.341C40.9868 21.8086 41.8045 21.2959 42.6616 20.8424C42.7432 20.7703 42.8413 20.7195 42.9473 20.6945C43.8166 20.1865 44.711 19.7225 45.6269 19.3043L45.814 19.0874C47.5676 18.4762 49.2423 17.4607 51.0649 17.1156C51.3801 16.9874 51.5771 16.6522 51.7249 16.8888C52.1685 16.6116 52.6797 16.4615 53.2026 16.455L53.4982 16.2381C54.1516 16.1286 54.7876 15.933 55.3897 15.6564C56.9758 15.5283 58.5323 15.2128 60.1085 14.9269C61.689 14.7618 63.2798 14.719 64.8668 14.7987C64.9854 14.7427 65.1071 14.6933 65.2313 14.6508C65.3814 14.7077 65.5364 14.7506 65.6943 14.779C66.0096 14.779 66.3445 14.779 66.6795 14.779H66.8075C66.856 14.7915 66.9068 14.7915 66.9553 14.779C67.0046 14.779 67.0045 14.779 67.0243 14.779C67.1782 14.7643 67.3333 14.7643 67.4873 14.779C67.9995 14.779 68.4724 14.779 69.0143 14.779C69.5025 14.7495 69.9924 14.7826 70.4723 14.8776C71.1319 14.8921 71.7899 14.9481 72.4426 15.0452C72.4648 15.0368 72.4893 15.0368 72.5115 15.0452C72.7176 15.0459 72.9228 15.0724 73.1223 15.124C73.3587 15.124 73.605 15.124 73.8513 15.193L74.7774 15.3409H74.866C75.4079 15.41 75.9103 15.4888 76.4521 15.5381L76.5999 15.6564C76.6454 15.666 76.6923 15.666 76.7378 15.6564C76.7378 15.6564 76.7378 15.6564 76.6885 15.6564C77.2259 15.6576 77.7626 15.6971 78.2943 15.7747C78.2943 15.9719 78.9741 16.0409 78.5406 16.0902C78.5959 16.1009 78.6528 16.1009 78.7081 16.0902C78.8241 16.0618 78.9455 16.0631 79.0609 16.0942C79.1763 16.1252 79.282 16.1849 79.3681 16.2677C79.8312 16.2184 79.1908 16.0902 79.1022 16.0212C79.7819 15.9522 80.2646 16.386 80.9247 16.3663C80.9936 16.455 80.7966 16.4353 80.6981 16.455C80.8459 16.5536 81.0626 16.455 81.1611 16.7212C81.0922 16.455 81.4764 16.7212 81.8409 16.7212C82.5397 17.0874 83.2961 17.3308 84.0771 17.4409C84.8115 17.5835 85.4929 17.9244 86.0474 18.4269C86.4612 18.2297 87.2887 18.6931 87.8306 18.8607C87.6828 19.1072 87.1213 18.6142 86.7765 18.6142C86.8553 18.7424 87.003 18.7621 87.072 18.91C86.8553 18.8607 86.609 18.841 86.3922 18.7917C86.737 18.9396 87.072 19.1072 87.3774 19.2748C87.7419 19.4227 88.0769 19.6001 88.4414 19.7874C88.4414 19.7874 88.6384 19.7874 88.6876 19.6889C88.9733 19.7874 88.8551 19.9156 88.9044 20.0339C88.9592 20.0346 89.0132 20.0473 89.0626 20.0712C89.1119 20.095 89.1554 20.1294 89.1901 20.172C89.204 20.1608 89.2214 20.1547 89.2393 20.1547C89.2572 20.1547 89.2746 20.1608 89.2886 20.172C97.3431 24.3366 104.097 30.6397 108.809 38.3907C113.522 46.1417 116.012 55.0414 116.006 64.1145C116.012 65.9697 115.903 67.8234 115.681 69.6652C116.094 70.7103 116.508 71.8244 116.902 73.1455C117.437 73.4594 117.928 73.8441 118.36 74.2892C118.597 74.5751 118.863 75.2751 119.089 75.4723C119.986 76.1822 120.734 75.285 121.592 76.7146H121.641C121.789 76.7146 121.759 76.4779 121.887 76.3498C123.296 76.1131 124.38 75.285 125.552 75.3638C126.015 74.2498 126.793 74.3188 127.276 73.4709C127.591 72.9582 127.808 72.0117 128.103 71.3709C128.206 71.15 128.295 70.9228 128.369 70.6906C128.556 70.2276 128.783 69.7822 129.049 69.3596C129.492 69.3596 129.492 68.5018 129.827 68.3145C129.871 68.0751 129.926 67.8381 129.995 67.6046C129.995 67.4075 129.995 67.2398 129.995 67.0427C129.927 66.819 129.871 66.5919 129.827 66.3624C130.162 65.3765 129.601 64.3905 129.315 63.3455C129.342 63.2911 129.365 63.2351 129.384 63.1779C129.778 63.5624 129.847 64.3215 130.064 64.8243L130.586 65.0215ZM1.69915 59.6483C1.53168 60.1905 1.55138 60.4271 1.69915 60.6342C1.45286 60.9497 1.48242 60.3187 1.43316 59.9046C1.50212 59.7567 1.60064 59.4609 1.6499 59.6088L1.69915 59.6483ZM1.23613 59.175L1.06866 58.5637C1.16717 58.2975 1.26569 58.199 1.33465 58.3961C1.40361 58.5933 1.18688 58.6623 1.21643 58.8299C1.24599 58.9975 1.28539 59.0764 1.21643 59.175H1.23613ZM1.48242 63.6511C1.32492 63.0935 1.32492 62.5031 1.48242 61.9454C1.53583 62.5127 1.53583 63.0838 1.48242 63.6511ZM1.77796 64.4793C1.61049 64.2032 1.53168 62.9215 1.77796 62.7046C1.49227 62.3595 1.77796 62.1624 1.77796 61.7976C1.56123 62.0638 1.44301 61.4821 1.31494 61.2652C1.54153 60.7525 1.63019 61.9948 1.85678 61.4624C1.85678 61.3342 1.72871 61.3835 1.67945 61.0976C1.63019 60.8116 1.87648 60.2398 1.95529 60.4666C1.77796 61.0976 2.38875 63.5525 1.80752 62.9215C1.72871 63.3849 1.9947 64.43 1.709 64.4793H1.77796ZM1.9947 65.8398C1.86677 65.4863 1.86677 65.099 1.9947 64.7455C2.10295 65.1022 2.10295 65.4831 1.9947 65.8398ZM2.06366 57.913C2.26069 57.6863 2.0144 57.3708 2.26068 57.1539C2.32964 57.4989 2.26069 58.2778 2.06366 57.913ZM2.64489 54.7285C2.60616 54.454 2.58313 54.1775 2.57593 53.9003C2.64489 53.9891 2.74341 53.437 2.79266 53.3877C2.84192 53.3384 2.6449 53.3384 2.59564 53.2102C2.67445 52.6285 2.92074 52.5102 3.0094 52.9933C2.92776 53.5794 2.80597 54.1591 2.64489 54.7285ZM3.30495 51.12C3.30495 51.051 3.30494 50.9721 3.22613 51.12C3.18524 50.7679 3.28431 50.4138 3.50197 50.1341C3.50672 50.473 3.43956 50.809 3.30495 51.12ZM9.21583 33.9749C9.3636 34.3396 9.01879 34.9608 8.7331 35.3847C8.75439 34.8779 8.92207 34.3882 9.21583 33.9749ZM9.43255 34.5368C9.3398 35.1347 9.08799 35.6966 8.70355 36.1636C8.90978 35.6056 9.15333 35.0621 9.43255 34.5368ZM8.68385 36.4101C8.55578 36.558 8.50652 36.7256 8.3883 36.8735C8.3883 36.7453 8.27008 36.8735 8.24053 36.7946C8.28123 36.7532 8.31279 36.7038 8.33316 36.6494C8.35352 36.5951 8.36224 36.537 8.35875 36.4791C8.55578 36.2622 8.68385 36.2129 8.68385 36.4101ZM8.28979 36.558C8.0435 36.8439 8.00409 37.258 7.70855 37.5439C7.7578 37.2284 8.14201 36.4199 8.28979 36.558ZM7.30464 37.8002C7.3539 38.1552 7.08791 38.3523 6.98939 38.6185C6.98939 38.6185 7.15687 38.4805 7.13717 38.6185C7.11746 38.7566 6.95984 38.7369 6.89088 38.7369C6.9679 38.4072 7.10845 38.0958 7.30464 37.82V37.8002ZM6.98939 77.2568C6.87118 77.7892 6.62489 77.2568 6.77266 78.1343C6.62489 77.6413 6.3589 76.7441 6.52637 76.5469C6.30964 76.2117 6.3589 75.4526 6.09291 75.4329L6.19143 74.9892C6.3786 75.2554 6.30964 75.5314 6.47711 75.5019C6.47711 76.1131 6.57563 76.4286 6.87117 76.4878C6.87117 76.9512 6.7234 76.5864 6.67415 76.7343L6.98939 77.2568ZM7.13717 87.3034C6.94014 86.978 6.79236 87.4217 6.67415 86.8597C6.82192 87.0076 6.67414 86.5245 6.84162 86.5935C6.93589 86.686 7.01063 86.7964 7.0614 86.9184C7.11217 87.0403 7.13794 87.1712 7.13717 87.3034ZM6.21113 86.1597C6.10787 86.07 6.02727 85.9572 5.97591 85.8304C5.92455 85.7036 5.90387 85.5664 5.91558 85.4301C6.01228 85.5249 6.08842 85.6386 6.13927 85.7641C6.19012 85.8896 6.21458 86.0243 6.21113 86.1597ZM6.67415 75.3836C6.57563 75.2554 6.52637 75.3836 6.45741 75.3047C6.32934 74.6244 6.67415 74.8019 6.28009 74.3188C6.42786 73.7174 6.79236 74.9793 6.67415 75.3047V75.3836ZM6.42786 70.4835C6.59176 70.7844 6.65396 71.1303 6.60519 71.4695C6.50941 71.3262 6.44422 71.1647 6.41371 70.995C6.38319 70.8254 6.38801 70.6512 6.42786 70.4835ZM6.65444 40.1664C6.65444 40.6101 6.48697 41.2904 6.27023 41.1524C6.35 40.8069 6.47942 40.4748 6.65444 40.1664ZM5.41316 42.02C5.689 41.6059 5.65944 41.8918 5.63974 42.2566C5.54122 42.3848 5.41316 42.4834 5.39345 42.6312C5.49197 42.5524 5.46241 42.72 5.46241 42.9172L5.22598 43.1834C5.22598 42.5327 5.29494 42.651 5.22598 42.4045C5.37375 42.2172 5.39345 42.4045 5.54123 42.1876C5.689 41.9707 5.46241 42.089 5.46241 42.02H5.41316ZM3.7384 47.7383C3.93543 47.2947 4.08321 46.1806 4.29994 46.151C4.18701 46.4693 4.1142 46.8005 4.0832 47.1369C4.20142 46.9989 4.20143 46.8017 4.3492 46.6538C4.3492 46.9693 4.25068 47.4524 4.3492 47.5017C4.1642 47.6554 3.92945 47.736 3.68915 47.7285L3.7384 47.7383ZM4.29994 45.8059C4.44771 45.1749 4.39845 45.027 4.51667 44.5637C4.51667 44.6327 4.59549 44.6327 4.66445 44.5637C4.66795 44.4098 4.72751 44.2625 4.83192 44.1496C4.70261 44.732 4.52466 45.3026 4.29994 45.8552V45.8059ZM4.91073 45.8552C4.83192 45.5594 4.49697 46.1707 4.51667 45.5594C4.83192 45.1059 4.9797 45.2242 5.09791 45.4707C5.01428 45.5874 4.95099 45.7174 4.91073 45.8552ZM4.91073 45.1454C4.91073 44.7608 4.71371 44.958 4.71371 44.5637C4.95999 44.1791 5.05851 43.7355 5.27524 43.351C5.27524 43.4989 5.44271 43.351 5.52153 43.351C5.41964 43.9791 5.21317 44.5856 4.91073 45.1454ZM5.47227 64.8145C5.69885 64.2328 6.06336 65.8596 5.69885 65.8004C5.78752 65.337 5.52152 65.3863 5.47227 64.8145ZM6.29979 73.4512C6.29979 73.6188 6.42786 73.7864 6.29979 73.9836C5.95498 73.6188 6.10276 73.3723 5.75796 73.1554C5.85647 72.623 6.08306 73.1554 6.27023 73.4512H6.29979ZM5.80721 87.116C5.88602 87.116 6.15202 87.5301 6.27023 87.3329C6.13857 87.0996 6.08994 86.8285 6.13231 86.5639C6.50158 87.0128 6.75828 87.5435 6.88103 88.1118C6.41801 87.3625 5.95498 88.1118 5.80721 87.1259V87.116ZM7.0288 89.3442C7.0288 89.0484 6.66429 88.8315 6.73325 88.516C6.94999 88.6836 7.24553 89.4132 7.0288 89.3442ZM6.81207 88.2498C7.16672 88.5358 7.19627 88.9006 7.34405 89.2358C7.10918 88.9416 6.929 88.6077 6.81207 88.2498ZM7.34405 76.7441C7.56078 76.9118 7.65929 77.592 7.46226 77.4737C7.46226 77.2272 7.22583 77.0103 7.34405 76.7441ZM7.54107 80.6385C7.74628 80.9038 7.87261 81.2216 7.90558 81.5554C7.72825 81.5554 7.413 81.0033 7.54107 80.6385ZM8.52622 84.109C8.52622 83.4583 7.99424 83.5273 7.94499 82.8273C8.27994 83.34 8.14202 83.0935 8.40801 83.2611C8.674 83.4287 8.87102 84.3555 8.52622 84.109ZM8.74295 84.2864C8.92028 83.6259 8.4277 83.1132 8.37845 82.5315C8.74295 82.7977 8.92028 83.9709 9.13701 84.6217C8.96954 84.3554 8.96954 84.6217 8.74295 84.2864ZM9.47196 84.2076C9.35374 84.2076 9.13701 83.7442 9.13701 83.4287C9.32078 83.6509 9.43702 83.9212 9.47196 84.2076ZM10.0828 89.3146C9.98424 88.6344 9.23553 87.5696 9.33404 87.2048C9.52122 87.8358 10.4965 89.1766 10.0828 89.3146ZM9.81677 87.1752C10.0312 87.3813 10.1816 87.6449 10.2502 87.9343C10.1025 87.9343 9.81677 87.4907 9.81677 87.1752ZM10.9792 31.9636C11.1073 31.8847 11.1073 31.9636 11.324 31.7861C11.2463 32.2774 10.9859 32.7211 10.595 33.0284C10.8906 32.5453 11.058 32.0424 10.9792 31.9636ZM11.2452 91.8879C11.1763 91.3062 10.5655 90.902 10.5162 90.3301C10.7428 90.7935 11.6885 91.9372 11.2452 91.8879ZM75.8216 128.899C76.3339 128.899 76.2354 128.781 76.9644 128.732C76.781 128.921 76.5435 129.048 76.2846 129.097C76.5014 128.88 75.8019 129.097 75.9398 129.166C75.6246 129.116 75.7527 129.028 75.8216 128.899ZM69.2113 129.363C68.7975 129.363 67.7533 129.491 67.7237 129.294C68.2205 129.252 68.7205 129.276 69.2113 129.363ZM66.906 129.363C66.6598 129.432 65.8618 129.264 65.9997 129.116C66.246 129.116 67.0735 129.185 66.906 129.363ZM59.1234 128.14C58.9166 128.23 58.6936 128.276 58.4683 128.276C58.2429 128.276 58.0199 128.23 57.8131 128.14C58.2468 128.067 58.6897 128.067 59.1234 128.14ZM56.9856 128.239C57.1137 128.485 57.3994 128.436 57.8131 128.633C57.0349 128.554 56.3058 128.87 55.9709 128.485C56.6211 128.535 56.6211 128.367 56.956 128.239H56.9856ZM55.6754 128.535C55.2123 128.337 55.4783 128.268 55.0843 128.091C55.3951 128.076 55.7065 128.102 56.0103 128.17C55.764 128.268 56.0103 128.456 55.6754 128.535ZM55.8133 127.549C55.6458 127.618 54.9168 127.499 55.0843 127.667C55.2517 127.835 56.1285 127.785 55.9413 127.982C55.5147 127.977 55.0957 127.869 54.7198 127.667C54.9661 127.667 54.9168 127.549 54.6705 127.45C55.0542 127.406 55.4429 127.439 55.8133 127.549ZM54.9858 128.002C54.6508 128.15 53.8725 127.766 54.0006 127.687C54.3447 127.734 54.6781 127.841 54.9858 128.002ZM50.129 126.375C50.5625 126.543 50.5132 126.79 51.1929 126.77C51.2915 126.642 50.5624 126.504 50.9565 126.405C51.1153 126.427 51.2679 126.481 51.4051 126.564C51.5423 126.648 51.6611 126.758 51.7545 126.888C51.1043 126.888 49.863 126.72 49.7842 126.405C50.0009 126.523 49.9221 126.405 50.1684 126.405L50.129 126.375ZM48.4444 125.843C48.6594 125.918 48.8572 126.035 49.0256 126.188C48.7135 126.212 48.403 126.124 48.1488 125.942C48.2564 125.949 48.3625 125.913 48.4444 125.843ZM47.6661 125.39C47.3016 125.39 47.0849 125.163 46.8189 125.064C47.2031 124.946 47.4001 125.192 47.6661 125.39ZM48.2769 126.849C47.6929 126.809 47.1262 126.633 46.6219 126.336C47.1848 126.468 47.7379 126.639 48.2769 126.849ZM44.5333 124.068C44.4424 124.127 44.3363 124.159 44.2279 124.159C44.1196 124.159 44.0135 124.127 43.9226 124.068C44.0211 123.999 44.1393 123.802 44.5333 124.068ZM45.351 125.212C45.1343 125.34 44.6023 125.044 44.2378 125.212C43.6763 124.897 44.7501 125.212 44.4841 124.995C44.2181 124.778 43.824 124.916 43.6073 124.65C44.2173 124.744 44.807 124.94 45.351 125.232V125.212ZM41.9818 123.408C42.4153 123.723 42.0508 123.901 41.637 123.753C41.4892 123.536 41.5681 123.408 41.9818 123.408ZM40.5829 121.998C40.6814 122.116 40.8489 122.116 40.9474 122.244C40.7441 122.259 40.54 122.259 40.3366 122.244C40.1002 122.008 40.3366 122.057 40.5829 122.028V121.998ZM40.4154 123.013C40.4154 123.309 40.8982 123.25 41.2627 123.575C40.7307 123.497 40.3366 123.181 39.8342 123.112C39.7098 122.957 39.5514 122.832 39.3712 122.747C39.9229 122.895 39.9524 123.112 40.4154 123.013ZM38.1496 121.525C38.2974 121.653 38.4648 121.702 38.5929 121.87C38.1102 121.702 38.1988 121.87 37.8343 121.623C38.0314 121.623 37.7654 121.406 38.1496 121.525ZM37.1644 121.308C37.657 121.889 39.0362 122.156 39.184 122.57C38.6028 122.254 36.8295 121.653 37.1644 121.308ZM34.3962 119.78C34.2484 119.78 34.2977 119.898 34.1795 119.878C34.0514 119.632 33.7164 119.632 33.5687 119.366C33.871 119.443 34.1532 119.584 34.3962 119.78ZM30.3571 116.93L29.6281 116.763C29.5099 116.398 29.0271 116.398 28.8991 116.053C29.4033 116.314 29.8903 116.607 30.3571 116.93ZM96.756 119.681C96.6575 119.799 96.756 119.829 96.5097 120.016C96.3225 120.016 96.1748 120.164 95.9777 120.164C96.0648 120.032 96.1795 119.921 96.3139 119.837C96.4482 119.754 96.5991 119.7 96.756 119.681ZM94.1355 120.894C94.4015 121.081 94.5394 120.697 94.9827 120.598C95.1502 120.815 93.5444 121.426 94.1355 120.894ZM91.3377 121.722C91.7219 121.722 91.4066 122.008 91.9386 121.771C91.3081 122.353 91.0421 121.909 90.4116 122.126C90.6776 121.811 91.0914 122.057 91.3377 121.722ZM87.6434 122.451C87.7123 122.639 88.0768 122.373 88.2542 122.126C88.6876 122.225 87.6926 122.885 87.1804 122.915C87.1311 122.767 87.4267 122.54 87.6434 122.451ZM93.0124 118.971C93.1799 118.971 93.7611 118.557 93.6429 118.843C93.3769 118.942 92.7957 119.336 93.0124 118.971ZM92.3524 119.405C92.116 119.257 92.0174 119.504 91.6234 119.602C91.7711 119.484 91.3574 119.602 91.4559 119.454C91.9386 119.257 91.8697 119.454 92.2637 119.089H92.579C92.5002 119.208 92.579 119.257 92.3524 119.425V119.405ZM92.7464 118.281C92.1062 118.618 91.4485 118.921 90.7761 119.188C91.3453 118.723 92.0234 118.411 92.7464 118.281ZM91.2884 119.326C91.1721 119.472 91.0209 119.587 90.8487 119.659C90.6766 119.732 90.489 119.759 90.3033 119.74C90.6382 119.573 90.9338 119.306 91.2884 119.326ZM87.5646 120.766H87.9094C87.8181 120.859 87.7093 120.933 87.5893 120.984C87.4692 121.034 87.3403 121.061 87.2099 121.061L87.5646 120.766ZM72.5214 127.066C72.3046 127.066 71.8416 126.947 72.2061 126.799C72.482 126.868 72.7677 126.947 72.5214 127.066ZM76.0285 127.43C76.2157 127.312 75.7132 127.312 76.0285 127.184C76.5703 127.036 76.59 127.43 76.0285 127.43ZM84.8948 123.201C85.013 123.201 85.2298 123.201 85.1313 123.299C85.0327 123.398 84.9441 123.566 84.5008 123.487L84.8948 123.201ZM83.023 123.93C83.4565 123.93 84.3825 123.368 84.5303 123.654H84.3037C84.1166 123.851 84.2348 123.95 84.3037 124.068C84.0772 124.068 83.89 124.266 83.6437 124.167C84.4417 123.635 82.8359 124.266 83.0624 123.95L83.023 123.93ZM82.5009 124.049C82.4024 124.118 82.5699 124.137 82.7472 124.137C82.2054 124.384 81.6537 124.266 81.1119 124.502C81.5409 124.262 82.0128 124.108 82.5009 124.049ZM81.2892 124.867C81.0303 124.891 80.7698 124.891 80.5109 124.867C80.7966 124.65 81.5749 124.551 81.2892 124.867ZM80.304 124.404C80.6488 124.404 80.9641 124.266 81.2892 124.285C81.0429 124.502 80.2449 124.63 80.304 124.404ZM84.7076 121.613C84.3924 121.712 84.1264 122.077 83.8112 121.998C84.0772 121.781 84.3628 121.515 84.7076 121.613ZM83.0526 122.097H83.3974L83.1019 122.313C82.9344 122.461 83.3974 122.412 83.1019 122.55C82.8753 122.432 82.7078 122.777 82.4615 122.649C82.757 122.432 82.6388 122.313 83.023 122.067L83.0526 122.097ZM80.6882 123.142C81.0161 123.116 81.3455 123.116 81.6734 123.142C81.2104 123.26 80.7769 123.506 80.3139 123.674C80.5109 123.556 80.4321 123.506 80.1957 123.506L80.6882 123.142ZM80.6882 125.251C80.4715 125.251 80.4715 125.163 80.5405 125.084C81.2005 124.916 81.3877 124.936 81.1217 125.163C81.6143 124.966 83.1413 124.423 83.6535 124.719C83.092 124.719 83.2595 124.867 82.7768 124.936C82.8457 125.015 82.6093 125.182 82.4812 125.301C82.2037 125.419 81.9125 125.502 81.6143 125.547C81.4665 125.449 81.6143 125.281 81.6832 125.133C81.2363 125.454 80.7197 125.663 80.176 125.744C79.6134 125.632 79.0342 125.632 78.4717 125.744C79.1774 125.46 79.9278 125.303 80.6882 125.281V125.251ZM78.6687 125.192C78.7772 125.114 78.9032 125.065 79.0356 125.047C79.1679 125.03 79.3025 125.046 79.4273 125.094L79.0135 125.33C78.7672 125.33 78.8854 125.212 78.6687 125.192ZM78.3042 123.487C78.5012 123.753 79.0135 123.359 79.4962 123.388C79.2499 123.802 78.0382 123.871 78.3042 123.487ZM78.9642 124.749C78.9642 124.897 78.6194 125.094 78.3337 125.133C77.8412 125.133 78.5702 124.916 78.0875 124.916C78.3552 124.771 78.6617 124.712 78.9642 124.749ZM78.4717 125.577C78.2159 125.634 77.9553 125.667 77.6934 125.675C77.5752 125.813 78.452 125.744 77.9397 125.961C77.4274 126.178 77.9397 125.794 77.3782 125.774L77.92 125.478C78.0382 125.547 78.6982 125.36 78.4717 125.577ZM76.8462 124.266C76.9939 124.049 77.191 123.901 77.8313 123.901C77.1319 124.019 77.6146 124.187 76.8462 124.266ZM76.5802 123.487C76.7895 123.31 77.0554 123.216 77.3289 123.22C77.2107 123.319 77.1122 123.388 77.3289 123.388C77.723 123.24 77.457 123.191 77.7427 123.073C78.2352 123.073 77.5456 123.408 77.457 123.585C77.0629 123.635 77.3092 123.339 77.0136 123.487C76.7181 123.635 77.1122 123.674 76.925 123.802L76.4817 123.704C76.6491 123.605 76.8659 123.506 76.5802 123.487ZM77.1122 125.133C76.9644 125.232 77.2107 125.232 77.1122 125.311C76.5014 125.232 75.9398 125.547 75.3389 125.498C75.9398 125.498 76.5014 125.044 77.0826 125.133H77.1122ZM76.2058 122.806C76.2058 122.875 76.2058 122.925 76.3536 122.905C76.0876 123.24 75.3093 122.954 76.2058 122.806ZM75.7724 122.806C75.3484 122.98 74.887 123.041 74.4326 122.984C74.6346 122.862 74.8601 122.783 75.0944 122.755C75.3287 122.726 75.5665 122.747 75.7921 122.816L75.7724 122.806ZM74.4818 124.788L74.0385 125.005C73.9203 124.906 73.6543 124.837 73.7233 124.739C73.9695 124.887 74.2158 124.67 74.4818 124.788ZM72.945 126.612C72.7086 126.78 73.3587 126.612 73.5065 126.76C73.9498 126.464 74.3833 126.711 74.8463 126.543C75.2019 126.678 75.59 126.702 75.9595 126.612C76.127 126.513 75.6935 126.513 75.8413 126.415C76.8265 126.494 76.2748 126.76 75.8413 127.174C75.5753 127.174 75.7724 127.046 75.7231 126.977C75.5261 127.075 75.3389 126.977 75.1616 126.977C75.3586 126.977 75.4768 127.046 75.5064 127.125C75.0926 127.312 74.7971 127.223 74.9448 127.411C74.688 127.509 74.4037 127.509 74.1469 127.411C74.2848 127.312 74.6099 127.312 74.4818 127.243C74.1122 127.284 73.7403 127.301 73.3686 127.292C73.8021 127.095 73.3193 127.243 73.142 127.144C73.3883 126.947 73.6543 127.144 73.9301 127.016C73.5558 126.829 73.1716 126.947 72.8071 126.878C72.7086 126.878 72.2948 126.582 72.9253 126.582L72.945 126.612ZM72.7381 124.778C72.3619 124.936 71.9495 124.988 71.5461 124.926C71.9382 124.841 72.3371 124.792 72.7381 124.778ZM70.492 123.132C70.1275 123.349 69.7925 123.132 69.428 123.368C69.2507 123.299 69.1325 123.25 69.1325 123.181C69.5786 123.068 70.0459 123.068 70.492 123.181V123.132ZM69.5955 124.394C69.2507 124.561 68.3838 124.463 68.4035 124.394C68.7996 124.349 69.1994 124.349 69.5955 124.394ZM68.9847 125.38C69.1325 125.38 69.2802 125.38 69.428 125.429C69.5758 125.478 68.6005 125.873 68.0882 125.725C68.3838 125.626 68.699 125.498 68.9847 125.38ZM68.9847 126.04C69.8615 125.744 69.6447 125.281 70.5412 125.38C69.9107 125.547 69.1325 126.09 70.1767 126.188C70.1767 126.326 69.8122 126.306 69.497 126.375C69.3295 126.139 68.699 126.375 68.1867 126.257C68.7187 126.011 67.7237 126.257 67.5562 126.011C68.039 125.912 68.5414 126.109 68.9847 126.011V126.04ZM62.5714 122.925C62.3054 123.043 62.0887 122.925 61.8227 123.063C61.2808 122.826 62.2759 122.777 62.5714 122.925ZM60.2661 126.444C59.7539 126.178 59.1234 126.494 58.6308 126.159C58.7096 126.03 60.6503 126.159 60.2661 126.444ZM57.3107 125.646C57.4782 125.784 57.7245 125.715 57.9116 125.912C57.6231 125.915 57.3369 125.965 57.0644 126.06C56.7492 125.784 56.365 125.813 56.0793 125.616C56.5127 125.547 56.8477 125.843 57.3403 125.616L57.3107 125.646ZM56.1482 122.254C56.0225 122.291 55.8895 122.295 55.762 122.265C55.6344 122.236 55.5164 122.174 55.4192 122.087C55.5455 122.058 55.6766 122.059 55.8027 122.088C55.9289 122.117 56.0469 122.174 56.1482 122.254ZM52.2766 124.956C52.6845 124.911 53.0963 124.99 53.4588 125.182C53.0523 125.203 52.6468 125.125 52.2766 124.956ZM53.4883 121.426C53.2716 121.505 53.7543 121.505 53.6361 121.653C53.1238 121.722 52.1781 121.357 52.1781 121.111C52.513 121.456 53.0549 121.337 53.4883 121.426ZM48.2868 123.694C48.533 123.842 48.868 123.792 49.0847 124.009C48.8187 124.059 48.0996 123.763 48.2868 123.694ZM49.331 124.275C48.8975 124.078 49.1635 123.861 49.5477 124.039C49.2128 124.039 49.8137 124.305 49.331 124.275ZM50.3753 122.866C50.2476 122.88 50.1183 122.866 49.9972 122.823C49.876 122.78 49.7661 122.711 49.6758 122.619C49.8038 122.596 49.9355 122.606 50.0582 122.65C50.1808 122.693 50.2901 122.767 50.3753 122.866ZM49.9615 123.329C50.0896 123.329 50.06 123.211 50.2767 123.378C50.2767 123.447 50.0896 123.497 49.7743 123.497C49.2818 123.181 48.6316 123.25 48.0897 123.033C48.5527 122.846 49.1635 123.161 49.9615 123.329ZM46.5135 122.067C46.6317 122.254 46.7302 122.382 47.2129 122.353C47.3607 122.481 47.4592 122.57 47.4395 122.649C47.1313 122.65 46.825 122.6 46.5332 122.501C46.346 122.235 46.0505 122.185 45.8042 122.037C46.2672 122.136 46.08 122.037 46.5135 122.037V122.067ZM44.2279 122.037C44.0239 121.946 43.8424 121.812 43.696 121.643C44.0605 121.594 44.5925 122.037 44.2279 122.037ZM43.962 118.242C43.4338 118.202 42.9201 118.051 42.4547 117.798C42.9814 117.845 43.4937 117.996 43.962 118.242ZM43.2034 121.426C42.8578 121.422 42.5188 121.331 42.2183 121.16C42.5335 121.278 42.967 121.16 43.2034 121.426ZM36.997 118.626C37.5585 118.725 37.3319 118.843 37.6767 119.168C37.263 119.168 36.928 118.754 36.997 118.626ZM38.1594 118.843C37.992 118.626 37.5585 118.843 37.46 118.557L38.0609 118.626C38.12 118.725 38.2875 118.843 38.1594 118.843ZM40.908 120.381C41.2528 120.381 41.4695 120.598 41.7651 120.667C41.6666 120.844 41.1247 120.667 40.908 120.381ZM41.834 120.302C41.5188 120.016 41.0065 120.066 40.7405 119.671C41.2036 119.671 41.9326 120.135 41.834 120.302ZM40.5238 119.316C40.6617 119.464 40.7405 119.563 40.711 119.632C40.5209 119.631 40.3334 119.588 40.1627 119.504C39.992 119.42 39.8426 119.299 39.7258 119.149C40.2085 119.149 40.2085 119.444 40.5041 119.316H40.5238ZM40.3268 119.829C40.1888 119.977 39.8243 119.829 39.4106 119.632C39.7455 119.928 39.4598 119.878 39.5485 120.026C40.1593 120.144 40.376 120.243 40.5336 120.075C40.8982 120.243 40.7011 120.322 40.7996 120.489C40.5334 120.454 40.2723 120.388 40.0214 120.292C40.1396 120.391 40.2874 120.44 40.1691 120.489C39.7035 120.339 39.2947 120.05 38.9968 119.661C39.115 119.661 39.115 119.582 39.3909 119.661C39.0156 119.445 38.6567 119.201 38.3171 118.932C39.0146 119.145 39.6781 119.457 40.2874 119.858L40.3268 119.829ZM38.4156 115.018C38.5929 115.215 38.6422 115.313 38.4156 115.313C38.0708 115.067 37.5191 115.096 37.2728 114.653C37.657 114.732 37.9723 114.919 38.386 115.018H38.4156ZM36.928 117.285C37.125 117.571 37.0265 117.62 37.7555 118.133C37.0068 118.035 36.5438 117.384 36.928 117.285ZM23.4019 101.964C23.1852 101.56 23.7664 101.826 23.865 102.141C23.6187 101.964 23.7172 102.21 23.4019 101.964ZM78.3042 119.799C78.4914 119.868 77.8609 120.164 77.7131 120.085C77.5653 120.006 78.0086 119.651 78.3042 119.799ZM99.1795 107.101C99.5637 107.15 99.5637 106.618 99.9577 106.667C99.81 107.081 99.1006 107.515 98.9726 107.367C99.1696 107.298 99.0514 107.249 99.1499 107.101H99.1795ZM87.4858 112.74C87.4001 112.848 87.288 112.932 87.1602 112.984C87.0324 113.036 86.8934 113.054 86.7567 113.036C86.9932 112.937 87.1902 112.691 87.4858 112.74ZM76.9348 117.413C76.6885 117.581 75.9497 117.827 75.9497 117.581C76.2649 117.532 76.5506 117.344 76.9348 117.413ZM75.0138 114.978C74.8815 115.061 74.7342 115.116 74.5803 115.142C74.4265 115.167 74.2691 115.162 74.1173 115.126C74.1173 114.958 74.6985 114.86 75.0138 114.978ZM67.6942 120.894C68.0193 120.894 68.8369 120.825 68.7877 120.992C68.502 120.992 67.6548 121.091 67.6942 120.894ZM76.7674 120.164L76.4029 120.026C76.5744 119.894 76.7876 119.827 77.0038 119.839C76.5703 120.006 77.2501 119.957 76.8166 120.125L76.7674 120.164ZM76.9348 119.08C77.1319 119.247 76.4028 119.395 76.7674 119.474C76.5841 119.57 76.3828 119.627 76.1763 119.642C76.6196 119.444 76.2748 119.109 76.9348 119.08ZM76.2551 119.425C76.1386 119.488 76.0082 119.521 75.8758 119.521C75.7434 119.521 75.613 119.488 75.4965 119.425C75.747 119.376 76.0046 119.376 76.2551 119.425ZM73.3883 119.425C73.7725 119.711 73.7233 119.346 73.9695 119.592C74.4818 119.474 75.4768 119.129 75.6443 119.297C75.5753 119.297 75.0434 119.395 75.2601 119.444C75.329 119.444 75.3783 119.444 75.4473 119.444C75.1419 119.612 74.6 119.632 74.5803 119.858C73.9498 119.78 73.1716 120.263 72.7775 119.858C72.7775 120.125 72.0485 120.194 71.684 120.095C72.6692 119.947 72.4918 119.681 73.3883 119.395V119.425ZM72.61 115.353C72.2455 115.284 71.881 115.501 71.5165 115.353C71.8022 115.205 72.61 115.205 72.61 115.353ZM69.034 119.563C69.2802 119.563 69.3788 119.563 69.428 119.711C70.1078 119.464 70.8072 119.711 71.487 119.464C71.8022 119.533 71.487 119.829 71.9992 119.533C72.344 119.612 72.3637 119.947 71.7825 119.878C71.9007 119.829 71.9992 119.76 71.7825 119.711C71.7136 120.213 70.5215 120.174 69.8713 120.312L69.3788 120.125C68.965 120.174 68.5512 120.44 68.167 120.273C68.3641 119.997 69.2802 119.898 69.7925 119.947C69.694 119.947 69.8418 119.878 69.9896 119.858C69.6448 119.858 69.3295 119.711 69.0044 119.73C68.7878 119.882 68.5406 119.984 68.2802 120.03C68.0198 120.076 67.7526 120.065 67.4971 119.997C68.2951 119.997 68.1079 119.809 68.4232 119.681C68.4232 119.898 68.8074 119.681 69.0241 119.563H69.034ZM67.9306 115.235C67.5956 115.402 67.2508 115.235 66.9454 115.235C67.2636 115.118 67.6124 115.118 67.9306 115.235ZM66.3051 119.997C66.4199 120.084 66.56 120.131 66.7041 120.131C66.8482 120.131 66.9883 120.084 67.1031 119.997L67.3986 120.125C66.9013 120.214 66.3935 120.231 65.8913 120.174L66.3051 119.997ZM64.2166 119.878C64.381 119.825 64.5556 119.81 64.7266 119.836C64.8976 119.861 65.0603 119.927 65.2017 120.026C64.8672 120.035 64.5338 119.985 64.2166 119.878ZM65.0934 115.254C65.0934 115.432 64.5318 115.432 64.2658 115.333C64.2658 115.106 64.8175 115.205 65.0934 115.254ZM62.1379 119.681C62.5175 119.83 62.934 119.858 63.3299 119.76C63.1822 119.612 63.1625 119.484 63.5762 119.366C63.874 119.422 64.1647 119.512 64.4432 119.632C64.1279 119.76 63.8422 119.632 63.527 119.78C63.6747 119.947 64.4432 119.928 64.5121 120.095C64.355 120.046 64.1866 120.046 64.0294 120.095L63.5368 119.858C63.0055 119.894 62.4723 119.894 61.9409 119.858C62.1576 119.858 61.8128 119.691 62.1773 119.642L62.1379 119.681ZM61.7931 119.642C61.4976 119.789 60.7489 119.839 60.8671 119.642C61.2808 119.77 61.2808 119.494 61.7931 119.642ZM54.9562 118.784C54.8797 118.816 54.7977 118.832 54.7148 118.832C54.632 118.832 54.55 118.816 54.4735 118.784C54.804 118.711 55.149 118.746 55.4586 118.882C55.2847 118.931 55.1006 118.931 54.9266 118.882C54.9956 118.882 55.0449 118.882 54.9266 118.804L54.9562 118.784ZM59.478 114.692C59.212 114.604 58.9165 114.692 58.6702 114.505C58.946 114.288 59.8425 114.791 59.478 114.692ZM58.6702 119.366C58.2193 119.295 57.7746 119.19 57.3403 119.05C57.7737 118.951 58.9658 119.099 58.6702 119.366ZM57.2417 119.001C56.9265 119.001 56.631 119.001 56.3354 119.001C56.4738 118.923 56.6299 118.882 56.7886 118.882C56.9473 118.882 57.1033 118.923 57.2417 119.001ZM54.9759 119.711C55.2715 119.898 55.6852 119.661 55.9611 119.878C55.636 119.947 54.838 119.878 54.9759 119.711ZM55.9019 118.725L55.567 118.794C55.3404 118.656 55.104 118.656 55.3404 118.527C55.5177 118.656 55.7542 118.527 55.9019 118.725ZM55.7148 113.795C55.4685 114.042 54.7296 113.706 54.2962 113.46C54.8084 113.509 55.2025 113.795 55.7148 113.795ZM50.6018 118.587C49.8929 118.536 49.2035 118.331 48.5823 117.985C49.4591 118.222 49.8531 118.35 50.6018 118.587ZM48.3459 116.349C48.0306 116.349 48.2474 116.496 47.9025 116.349C47.5479 116.053 48.1291 116.053 48.3459 116.349ZM44.4053 116.181C44.6811 116.329 44.6811 116.546 45.1638 116.694C44.819 116.763 44.6516 116.526 44.3363 116.546C44.0211 116.299 43.9423 116.132 44.4053 116.181ZM36.7014 112.533C37.0841 112.659 37.4249 112.887 37.6866 113.194C37.3151 113.046 36.9793 112.821 36.7014 112.533ZM36.4847 110.394L36.6029 110.561C36.6817 110.561 36.7507 110.561 36.7802 110.66C36.5858 110.679 36.3894 110.652 36.2077 110.58C36.026 110.508 35.8643 110.393 35.736 110.246C36.0709 110.246 36.3862 110.542 36.4847 110.394ZM15.7277 101.787C15.6094 101.787 14.7425 100.86 14.8804 100.741C15.1957 101.077 15.442 101.441 15.7277 101.787ZM15.3828 99.3217C15.6369 99.5212 15.8565 99.761 16.033 100.032C16.033 100.032 16.5256 100.761 16.1119 100.515C15.8951 100.101 15.6193 99.7161 15.3828 99.3217ZM14.9395 98.2076C15.0183 97.9612 14.3386 97.4978 14.6243 97.5274C14.8213 97.764 15.3828 98.3457 14.9395 98.2076ZM14.2401 26.0875C14.1711 26.3833 14.4568 25.8213 14.6243 25.8509C14.6243 26.1171 14.043 26.6002 14.0726 26.3833C14.2598 26.2354 14.0726 26.2354 14.2401 26.0875ZM13.5111 93.6133C13.3929 93.1992 12.6835 92.44 12.9003 92.2724C13.117 92.6372 13.6785 93.4654 13.5111 93.6133ZM13.2648 85.0456C12.9003 84.5329 12.9003 84.5625 12.6638 84.5822C12.6996 84.4816 12.6996 84.3716 12.6637 84.271C12.6278 84.1704 12.5582 84.0853 12.4668 84.0301C12.585 83.5864 13.2155 84.4836 13.2648 85.016V85.0456ZM12.9495 93.702C12.9495 93.5048 12.7328 93.4555 12.6835 93.4851C12.5653 92.8935 12.1023 92.4992 12.0038 91.8978C12.4443 92.4306 12.7788 93.0431 12.9889 93.702H12.9495ZM12.1122 92.7161V92.933C11.8166 92.8344 11.9151 93.1302 12.1122 93.6231C11.6294 93.1499 11.7477 92.9823 11.7279 92.5189C11.8757 92.6668 11.9939 92.7457 12.0629 92.7161H12.1122ZM12.0629 99.2823C12.1614 99.2823 12.2895 99.3612 12.5555 99.5485C12.5555 99.8936 12.8707 100.041 12.92 100.357L12.7229 100.209C12.7229 99.864 12.3289 99.7753 12.0629 99.2823ZM13.1367 101.787C12.8215 101.254 12.2895 100.86 12.1516 100.258C12.5358 100.722 12.6638 100.426 12.9791 100.84C13.2943 101.254 12.6343 101.008 12.9791 101.372C13.1466 101.451 13.0776 101.185 13.4224 101.501C13.5111 101.836 13.2943 101.767 13.1761 101.787H13.1367ZM13.0086 100.574C13.3335 100.793 13.5924 101.096 13.7574 101.451C13.4492 101.214 13.1942 100.916 13.0086 100.574ZM13.8362 97.0936C13.8362 96.2654 12.851 95.3485 12.5456 94.3724C12.9791 94.9048 13.5308 95.8316 13.9741 96.5316C13.9741 96.364 13.9741 96.0978 14.1908 96.3147C13.9544 96.5809 14.3386 96.7583 14.5159 97.3597C14.1711 97.0936 14.0036 96.8076 13.8362 97.0936ZM14.1711 102.398C14.3189 102.496 14.1711 102.102 14.2696 102.201C14.3681 102.467 14.6834 102.644 14.7326 102.96C14.4828 102.848 14.2829 102.648 14.1711 102.398ZM15.6587 104.518C15.4124 104.005 14.9986 103.591 14.7523 103.078C15.2646 103.561 15.5306 104.202 15.9936 104.705L15.6587 104.518ZM16.0626 104.932C16.1033 104.965 16.1511 104.988 16.2024 105C16.2536 105.012 16.3069 105.012 16.3581 105.001C16.4567 105.267 17.0674 105.878 16.8409 105.898C16.6734 105.513 16.1907 105.346 16.0626 104.912V104.932ZM16.7719 104.981C16.8704 104.912 17.3531 105.149 17.4714 105.464C17.2546 105.296 16.8704 105.227 16.7719 104.981ZM16.5256 105.967C16.8409 106.056 16.9197 106.332 17.2349 106.45C17.1167 106.154 16.8901 105.987 17.2349 106.056C17.4024 106.351 18.0821 107.042 17.8654 107.13C17.3467 106.854 16.9036 106.454 16.5749 105.967H16.5256ZM18.9589 108.442C18.7126 107.88 18.1117 107.791 17.8654 107.544C17.7176 107.061 18.161 107.613 18.4959 107.643C18.4959 107.909 18.8112 107.978 19.0082 108.106C19.2052 108.234 19.156 108.52 19.0082 108.442H18.9589ZM18.1807 103.098C18.4467 103.532 18.9885 103.778 19.1658 104.281C18.6831 103.946 18.6338 103.601 18.2693 103.463C18.2201 103.315 18.1019 103.049 18.2201 103.098H18.1807ZM19.2052 103.995C19.018 103.749 18.8407 103.581 18.6535 103.334C18.9885 103.532 19.1363 103.433 19.4318 103.847C19.2348 103.749 19.4318 104.163 19.2052 103.995ZM19.747 105.208C19.9638 105.287 19.4318 104.823 19.4318 104.626C19.8269 104.905 20.1619 105.26 20.4169 105.671C20.348 105.72 19.9539 105.425 19.7668 105.208H19.747ZM21.8257 107.594C22.0523 107.761 22.7517 108.225 22.5055 108.294C22.3183 108.057 21.9735 107.88 21.8257 107.594ZM22.338 109.851C22.473 109.882 22.5988 109.945 22.705 110.034C22.8111 110.123 22.8947 110.236 22.9488 110.364C22.8152 110.33 22.6911 110.266 22.5854 110.177C22.4798 110.088 22.3952 109.977 22.338 109.851ZM24.6235 110.364C24.4265 110.098 24.1112 109.93 23.9438 109.664C24.2098 109.753 24.8698 110.265 24.6235 110.364ZM25.3525 111.163C25.5003 111.34 25.7367 111.389 25.786 111.675C25.5003 111.675 25.1358 111.094 25.3525 111.163ZM28.8301 115.668C28.4853 115.471 28.0223 115.422 27.845 115.087C28.2285 115.166 28.5749 115.371 28.8301 115.668ZM27.973 112.868C28.1208 112.868 27.973 112.602 28.0518 112.504C28.3178 112.504 28.4656 112.799 28.6134 112.996C28.3375 112.868 28.1701 113.085 27.973 112.868ZM28.7808 112.967C28.6528 112.651 27.7957 112.257 27.9336 112.139C28.2489 112.356 29.2439 112.918 28.7808 112.967ZM27.973 112.553C27.9041 112.632 27.973 112.77 27.5199 112.553C27.1455 112.139 27.7563 112.218 27.973 112.553ZM27.7366 112.947L27.9336 113.233C27.5888 113.233 27.4607 112.967 27.2736 112.799L27.7366 112.947ZM27.8745 115.037C27.4018 114.725 26.9627 114.365 26.5643 113.963C27.0568 114.229 27.8745 114.742 27.8745 115.037ZM25.7367 113.381C25.8353 113.282 26.3475 113.578 26.515 113.864C26.2166 113.777 25.9476 113.61 25.7367 113.381ZM26.3475 110.995C25.7663 110.758 26.0815 110.581 25.6678 110.147C25.983 110.344 26.4263 110.877 26.3475 110.995ZM25.9141 110.068C25.8662 109.998 25.798 109.945 25.7188 109.915C25.6395 109.885 25.5529 109.88 25.4708 109.901L25.2836 109.487C25.5496 109.536 26.1505 110.029 25.9141 110.068ZM25.5988 110.364C25.8845 110.808 25.52 110.581 25.5003 110.729C25.7464 110.962 26.0251 111.158 26.3278 111.311C26.5446 111.626 26.249 111.557 25.9141 111.389C25.717 110.896 25.2048 110.68 24.9289 110.246C25.2737 110.315 25.1062 109.98 25.6185 110.364H25.5988ZM24.525 107.643L24.6629 107.929C24.535 107.9 24.4157 107.841 24.3148 107.757C24.2138 107.673 24.134 107.566 24.0817 107.446L24.525 107.643ZM22.0424 107.032C22.4801 107.744 23.0604 108.359 23.7467 108.836C24.0242 108.795 24.307 108.855 24.5447 109.004C24.3477 109.27 24.9092 109.22 25.1062 109.664C24.5819 109.368 24.027 109.13 23.4512 108.954C23.2345 108.195 21.9735 107.663 21.3627 106.982C21.4809 106.982 21.9439 107.396 21.8454 107.15C21.4809 106.933 21.2642 106.618 20.8603 106.371C20.9292 106.519 21.146 106.736 20.9785 106.716C20.8307 106.322 19.9933 105.73 20.151 105.572C20.4169 106.026 21.1952 106.47 21.0474 105.987C20.811 106.105 20.0623 105.06 20.0623 104.863C20.3578 105.178 20.9883 106.105 21.0474 105.711C20.8971 105.601 20.7809 105.45 20.7125 105.277C21.4119 105.74 21.2642 106.371 21.4908 106.736L22.0424 107.032ZM20.0721 97.7147C20.0032 97.4485 19.8357 97.2809 20.0721 97.3795C20.3381 97.7147 20.0721 97.6654 20.2495 98.0795C20.6829 98.326 20.6632 98.8386 21.1164 99.0654C20.935 98.8608 20.8184 98.6069 20.7815 98.3358C20.9982 98.4344 21.0179 98.6612 21.2642 98.7302C21.4316 99.0654 20.9489 98.8485 21.2642 99.1936C21.5794 99.5386 21.2642 98.8288 21.5893 99.1147C21.7242 99.2715 21.8219 99.4569 21.875 99.657C21.737 99.7062 21.3922 99.4302 21.3627 99.657C21.4938 99.8477 21.6092 100.049 21.7075 100.258C20.7703 99.2026 19.9541 98.0451 19.2742 96.8076C19.7865 97.0048 19.619 97.5372 20.0524 97.7936L20.0721 97.7147ZM19.3037 96.1668C19.5008 96.6302 18.8112 96.2161 18.7422 95.9006C18.9589 95.9006 19.1264 96.364 19.3037 96.1668ZM18.8407 95.5062V95.8316C18.5255 95.5851 18.1314 95.3879 18.0624 95.0034C18.2299 94.9048 18.4269 95.3879 18.7915 95.5062H18.8407ZM18.1117 101.718C18.2792 102.299 18.3284 101.718 18.5747 101.934C18.6437 102.171 18.9097 102.299 18.9392 102.585C18.6453 102.418 18.3428 102.267 18.0329 102.132C18.0161 101.947 17.9516 101.771 17.8457 101.619L18.0329 101.757C18.0329 101.688 18.0329 101.639 18.1117 101.757V101.718ZM16.7029 100.101C16.9394 100.416 16.8704 100.584 16.7522 100.564C17.4004 101.115 17.8445 101.869 18.0132 102.703C17.632 101.914 17.0959 101.21 16.4369 100.633C16.6044 100.633 16.6044 100.515 16.5749 100.288C16.4074 100.288 16.3877 100.288 16.0921 99.9527C16.0232 99.7063 16.1611 99.8344 16.2104 99.7555C15.8754 99.6865 16.0232 99.6077 15.7572 99.2724C15.7572 99.6077 15.3631 99.0753 15.3139 98.7894C15.4321 98.7105 15.6587 99.1048 15.9936 99.2724C16.4074 99.9034 16.3384 100.002 16.7029 100.101ZM15.9739 90.9513C15.6784 90.7639 15.4321 90.6358 15.6784 91.1977C15.4416 90.9477 15.311 90.6155 15.3139 90.271C15.5799 90.4879 15.8459 90.3893 15.9739 90.9513ZM20.0032 45.6975C19.885 45.8158 19.7865 45.8651 19.7175 45.8355C19.7175 45.6186 19.885 44.958 20.0327 45.1355C19.8554 45.3031 19.9047 45.6679 20.0327 45.6975H20.0032ZM20.4958 43.7946C20.4958 44.1397 20.3775 44.6228 20.1805 44.5242C20.2987 44.0608 20.5943 43.1636 20.9588 43.1636C20.5647 43.6763 20.9588 43.4989 20.9588 43.7946C20.6632 44.0115 20.5943 43.7946 20.4465 43.7946H20.4958ZM21.008 42.7298C20.742 42.651 21.274 41.7439 21.3233 42.1186C21.1755 42.2862 21.1755 42.5524 21.008 42.7298ZM23.6778 36.8143C23.9733 36.5678 24.1211 35.6213 24.4363 35.7495C24.1605 36.065 23.993 36.9129 23.6778 36.8143ZM23.8945 16.0212C24.1408 15.8733 24.259 15.5381 24.6038 15.5085C24.5053 15.7747 23.8748 16.2677 23.8945 16.0212ZM26.1604 33.403C25.9141 33.403 25.8648 33.6988 25.6973 33.8171C25.7219 33.6657 25.7775 33.521 25.8605 33.392C25.9436 33.2631 26.0524 33.1527 26.1801 33.0678C26.1801 33.1861 26.2589 33.1861 26.1801 33.403H26.1604ZM27.3918 32.072L27.0765 32.2199C27.0765 31.8551 27.5888 31.6777 27.3918 32.072ZM30.0615 28.7889C30.0615 28.5621 29.8941 28.641 29.7955 28.8875C29.8197 28.8875 29.8436 28.8924 29.8658 28.9019C29.8879 28.9114 29.9079 28.9254 29.9245 28.9429C29.9411 28.9605 29.954 28.9812 29.9623 29.0039C29.9706 29.0266 29.9742 29.0507 29.9729 29.0748C29.7955 29.0748 29.7463 29.3706 29.5591 29.3903C29.7758 28.9762 29.3818 29.203 29.5591 28.7889C29.7561 28.6903 29.8547 28.4931 30.0714 28.4241C30.0024 28.5621 30.3177 28.5917 30.0714 28.7889H30.0615ZM30.8792 27.9607C30.6329 27.9607 30.4852 27.7438 30.8792 27.5664C30.8792 27.7438 30.9777 27.7438 30.8792 27.9607ZM31.1649 27.6452C31.1914 27.541 31.2473 27.4466 31.3259 27.3732C31.4045 27.2998 31.5025 27.2505 31.6082 27.2311C31.5853 27.3371 31.5305 27.4336 31.4513 27.5076C31.3721 27.5816 31.2721 27.6296 31.1649 27.6452ZM32.9677 26.1368C32.7214 26.2354 32.6032 26.5016 32.3569 26.6199C32.5737 26.0875 32.0712 26.6199 32.1698 26.3537C32.5737 26.2058 32.751 25.7424 33.0859 25.5551C32.9185 25.8706 32.82 26.1072 32.9677 26.1368ZM46.9371 3.32255C46.7204 3.22396 46.0209 3.51974 46.1391 3.32255C46.4839 3.39157 47.2129 3.02677 46.9371 3.32255ZM51.6757 2.1986H51.3407C51.9515 1.95212 51.853 2.00142 52.0697 1.70564C52.3599 1.65636 52.6563 1.65636 52.9465 1.70564C52.548 1.94286 52.1209 2.1284 51.6757 2.25776V2.1986ZM54.6902 1.27184C54.9562 1.27184 55.7837 1.10423 55.6754 1.35071C55.1926 1.20282 54.5917 1.63663 54.6902 1.27184ZM66.7484 0.621128C66.3544 0.492958 66.7484 0.443665 66.5514 0.354932C66.8758 0.282301 67.2122 0.282301 67.5365 0.354932C67.5365 0.502821 67.0538 0.423947 66.7386 0.601413L66.7484 0.621128ZM67.9503 0.601413C67.8518 0.502821 69.0241 0.315496 68.8468 0.601413C68.3148 0.502821 68.4133 0.769019 67.9503 0.601413ZM128.222 49.8088C128.044 49.5532 127.973 49.2383 128.025 48.9313C128.197 49.1893 128.267 49.5019 128.222 49.8088ZM127.788 47.5904C127.494 47.095 127.319 46.5382 127.276 45.9637C127.517 46.481 127.69 47.028 127.788 47.5904ZM126.862 43.7256C127.108 43.8932 127.246 44.6524 127.059 44.5045C127.108 44.2087 126.764 44.0115 126.862 43.7256ZM124.409 51.189C124.281 51.189 124.045 50.775 124.114 50.489C124.311 50.8243 124.458 50.7257 124.409 51.189ZM124.192 49.4144C124.192 49.7299 124.557 49.8778 124.675 50.0257C124.675 50.4595 124.527 50.1243 124.478 50.2426C124.512 50.345 124.512 50.4556 124.478 50.5581C124.301 50.0454 124.232 49.5721 124.015 49.8778C123.936 49.6116 124.015 49.4144 124.163 49.4144H124.192ZM121.207 53.8708C121.207 53.644 121.119 53.4271 121.207 53.1806C121.355 53.4074 121.326 53.644 121.523 53.8708C121.454 54.1567 121.276 53.8708 121.178 53.8708H121.207ZM118.823 44.3763C119.089 44.9186 119.897 45.451 120.094 46.5651C119.764 45.9066 119.328 45.307 118.804 44.7904L118.823 44.3763ZM118.705 43.7946C118.705 43.9721 118.626 44.0904 118.538 44.0411C118.222 43.4446 117.952 42.825 117.73 42.1876C118.094 42.7989 118.341 43.1735 118.715 43.7946H118.705ZM116.331 39.3186C116.873 39.9325 117.361 40.5923 117.789 41.2904C117.789 41.6355 117.572 41.4679 117.306 41.2904C117.011 40.8763 116.725 40.2453 116.262 39.6636C116.262 39.5453 116.262 39.3481 116.331 39.4171V39.3186ZM91.9583 20.8128C91.8916 20.8362 91.8198 20.8413 91.7505 20.8274C91.6812 20.8135 91.6168 20.7812 91.5643 20.7339C91.6431 20.7339 91.5643 20.6353 91.4953 20.517C91.5916 20.5216 91.685 20.5513 91.7662 20.6031C91.8474 20.655 91.9137 20.7273 91.9583 20.8128ZM91.2983 20.3494C91.446 20.586 91.2293 20.6156 91.1998 20.7635C91.0618 20.5663 90.717 20.6649 90.6185 20.3987C90.9338 20.3987 90.983 20.3987 91.2983 20.3987V20.3494ZM89.1408 19.6396C89.062 19.541 88.993 19.4227 88.8748 19.4227C88.7566 19.4227 88.7271 19.7677 88.3822 19.5212C88.3822 19.4227 88.6088 19.4227 88.4611 19.255C88.8945 19.4227 89.0423 19.1072 89.4462 19.3043C89.4462 19.5015 89.525 19.7184 89.1112 19.6396H89.1408ZM89.4462 19.6396C89.4954 19.5967 89.5532 19.565 89.6158 19.5466C89.6784 19.5282 89.7441 19.5235 89.8087 19.5329C89.8732 19.5422 89.935 19.5654 89.9897 19.6008C90.0445 19.6363 90.0909 19.6831 90.1259 19.7381C89.2787 19.541 90.8156 20.2705 89.8403 20.1227C89.6925 19.8367 89.7615 19.8565 89.4462 19.6396ZM128.852 68.423C128.704 68.423 128.586 67.9596 128.557 67.6934C128.675 67.7693 128.768 67.8803 128.82 68.011C128.873 68.1418 128.884 68.2857 128.852 68.423Z" fill="url(#paint0_linear_5288_2753)"/>
<defs>
<linearGradient id="paint0_linear_5288_2753" x1="65.5859" y1="0" x2="65.5859" y2="130" gradientUnits="userSpaceOnUse">
<stop stop-color="#ECEFF2" stop-opacity="0.5"/>
<stop offset="1" stop-color="white" stop-opacity="0"/>
</linearGradient>
</defs>
</svg>
