<svg width="84" height="30" viewBox="0 0 84 30" fill="none" xmlns="http://www.w3.org/2000/svg">
<path d="M36.38 8.04V22H43.78V19.78H39.18V8.04H36.38ZM56.2597 16.46C56.2597 12.96 53.7597 10.74 50.5597 10.74C47.3597 10.74 44.8597 12.96 44.8597 16.46C44.8597 19.94 47.2797 22.18 50.4797 22.18C53.6997 22.18 56.2597 19.94 56.2597 16.46ZM47.6997 16.46C47.6997 14.24 49.0397 13.18 50.5197 13.18C51.9997 13.18 53.3797 14.24 53.3797 16.46C53.3797 18.66 51.9597 19.74 50.4797 19.74C48.9797 19.74 47.6997 18.66 47.6997 16.46ZM69.0136 16.46C69.0136 12.96 66.5136 10.74 63.3136 10.74C60.1136 10.74 57.6136 12.96 57.6136 16.46C57.6136 19.94 60.0336 22.18 63.2336 22.18C66.4536 22.18 69.0136 19.94 69.0136 16.46ZM60.4536 16.46C60.4536 14.24 61.7936 13.18 63.2736 13.18C64.7536 13.18 66.1336 14.24 66.1336 16.46C66.1336 18.66 64.7136 19.74 63.2336 19.74C61.7336 19.74 60.4536 18.66 60.4536 16.46ZM73.8675 12.52V10.92H71.0675V27.28H73.8675V20.42C74.5475 21.32 75.7875 22.18 77.5275 22.18C80.3675 22.18 82.5875 19.88 82.5875 16.42C82.5875 12.96 80.3675 10.74 77.5275 10.74C75.8075 10.74 74.5275 11.58 73.8675 12.52ZM79.7275 16.42C79.7275 18.52 78.3075 19.72 76.7875 19.72C75.2875 19.72 73.8675 18.56 73.8675 16.46C73.8675 14.36 75.2875 13.2 76.7875 13.2C78.3075 13.2 79.7275 14.32 79.7275 16.42Z" fill="white"/>
<path fill-rule="evenodd" clip-rule="evenodd" d="M30 15.005V14.8366C30 14.7865 30 14.7365 30 14.6864C29.9659 14.4453 29.9591 14.1745 29.8931 13.8674C29.8931 13.856 29.9091 13.8674 29.9204 13.8446C29.9351 13.9561 29.9579 14.0664 29.9886 14.1745C29.9886 14.1199 29.9886 14.0585 29.9886 13.9948C29.9781 13.9926 29.9685 13.987 29.9614 13.9789C29.9773 13.8264 29.9227 13.4783 29.85 13.5511C29.8159 13.4851 29.9113 13.5238 29.8772 13.4237C29.8932 13.4055 29.9 13.5238 29.9341 13.4738C29.9341 13.3668 29.8545 13.2781 29.8318 13.3099C29.8159 13.244 29.8772 13.2553 29.8931 13.1825C29.8613 13.046 29.8318 13.137 29.7999 13.0528C29.7681 12.9687 29.8159 12.9618 29.8272 13.0028C29.8272 12.889 29.7772 12.9186 29.759 12.8959C29.7408 12.8731 29.759 12.7548 29.7931 12.7389C29.8251 12.7969 29.8496 12.8589 29.8659 12.9232C29.8659 12.7662 29.7999 12.6956 29.7658 12.7093C29.7445 12.5476 29.6887 12.3924 29.6022 12.2542C29.6022 12.12 29.659 12.2542 29.6749 12.1974C29.7045 12.3157 29.7249 12.4044 29.7545 12.5113C29.7704 12.4499 29.7886 12.4272 29.8159 12.4454C29.7931 12.3043 29.7704 12.1632 29.7363 12.029C29.7363 12.2315 29.6522 12.2133 29.5862 12.095C29.6249 11.9175 29.4794 11.7378 29.468 11.558C29.4908 11.4625 29.5135 11.6536 29.5408 11.6081C29.4953 11.5285 29.4567 11.3806 29.4953 11.3806C29.5332 11.4903 29.5885 11.5932 29.659 11.6854C29.6249 11.7469 29.659 11.8083 29.6931 11.8697C29.68 11.9265 29.6552 11.98 29.6203 12.0267C29.6749 12.161 29.7045 12.0654 29.7363 12.0267C29.709 11.8788 29.6817 11.7332 29.6408 11.5876C29.6135 11.5603 29.568 11.442 29.5862 11.4079C29.5976 11.4079 29.6022 11.4306 29.609 11.4374C29.1493 9.49621 28.2932 7.67116 27.0946 6.07707C27.0559 6.02474 27.0173 5.97013 26.9673 5.91325C26.9508 5.88712 26.9318 5.86272 26.9104 5.84045C26.8209 5.78421 26.7473 5.70586 26.6967 5.61293C26.7395 5.63558 26.778 5.66562 26.8104 5.70166C26.1188 4.82972 25.3284 4.04102 24.4551 3.35137C24.4551 3.35137 24.4551 3.34 24.437 3.34C24.4188 3.34 24.3756 3.30132 24.3415 3.27857C24.3074 3.25582 24.3415 3.26037 24.3256 3.24899C24.3096 3.23761 24.3256 3.24899 24.3256 3.24899C24.3071 3.23001 24.2865 3.21321 24.2642 3.19894C24.1395 3.14947 24.0212 3.08531 23.9118 3.00782C23.9118 2.98507 23.9845 3.00782 24.0459 3.0374C23.9232 2.94184 23.8004 2.85083 23.6708 2.76665C23.6367 2.73934 23.5981 2.71659 23.564 2.69384C23.5299 2.67109 23.4526 2.61648 23.3912 2.58236H23.3684L23.3571 2.56643C23.3346 2.54865 23.3102 2.53339 23.2843 2.52092L23.3002 2.54368C23.275 2.52157 23.2484 2.50105 23.2207 2.48225C23.1619 2.43882 23.1004 2.3993 23.0365 2.36394C23.0058 2.34186 22.9739 2.32136 22.941 2.30251C22.941 2.31388 22.941 2.32071 22.941 2.32526C22.8842 2.25245 22.7614 2.24562 22.6955 2.17964C22.7083 2.17768 22.7214 2.17768 22.7342 2.17964C22.6195 2.10349 22.4995 2.03581 22.375 1.97715C22.4066 2.001 22.44 2.02231 22.475 2.04086C22.4864 2.04086 22.4636 2.04086 22.475 2.07271C22.3227 2.01811 22.234 1.88387 22.059 1.84519C22.0362 1.81789 22.059 1.81106 22.0362 1.79514C22.0128 1.77748 21.9867 1.76366 21.9589 1.75418C21.8589 1.72688 21.7793 1.67 21.6793 1.63587C21.6679 1.61994 21.6611 1.61539 21.6611 1.60857C21.6111 1.58582 21.5543 1.55624 21.5042 1.53576L21.4656 1.51756C21.2519 1.422 21.0336 1.32644 20.8154 1.24226C20.5972 1.15808 20.3425 1.06252 20.1084 0.978337C20.0015 0.939658 19.881 0.90098 19.7764 0.866852H19.756C19.7185 0.849546 19.6787 0.838038 19.6378 0.832724V0.832724C19.3695 0.748541 19.099 0.675735 18.8239 0.605203C18.6625 0.56425 18.5056 0.532397 18.3419 0.498268H18.3192L18.0464 0.448215C17.9236 0.466417 17.6099 0.375408 17.3962 0.386784L17.4348 0.348106L17.3007 0.329904C17.2504 0.339665 17.1987 0.339665 17.1484 0.329904C17.1243 0.313866 17.0983 0.300874 17.0711 0.291226C17.0356 0.287637 16.9998 0.287637 16.9642 0.291226C16.9074 0.291226 16.8528 0.291226 16.7892 0.291226C16.7649 0.276729 16.7389 0.265267 16.7119 0.257097V0.257097C16.6025 0.215714 16.4845 0.202417 16.3686 0.218419C16.3345 0.179741 16.5027 0.218418 16.555 0.188841C16.5095 0.156988 16.6369 0.150163 16.5982 0.111484C16.4339 0.128654 16.2712 0.159089 16.1117 0.202493C16.0708 0.179741 16.0094 0.202493 15.9139 0.168365C15.8639 0.111484 16.2231 0.168364 16.0321 0.100108C16.1162 0.0659797 16.1845 0.12286 16.2595 0.100108C16.1867 0.0500533 15.9617 0.118311 15.9776 0.0500548C15.8935 0.0773572 15.8048 0.0500543 15.6638 0.0887328C15.6752 0.0113759 15.5138 0.0887326 15.3888 0.0227517C15.2205 0.0728062 15.0705 0.022752 14.9136 0.0728065C14.9136 0.111485 15.0364 0.138787 15.1159 0.11831C15.0932 0.17974 14.8727 0.138787 14.7772 0.145613C14.7567 0.11831 14.8295 0.0841817 14.8613 0.0773561C14.8454 0.043228 14.7727 0.0432289 14.7658 0C14.7658 0.0887329 14.6158 0.0341276 14.4748 0.0955581C14.5317 0.145613 14.5999 0.0955578 14.6544 0.11831C14.5658 0.11831 14.4817 0.168364 14.3975 0.11831C14.3748 0.102383 14.4407 0.11831 14.4748 0.0864571C14.4407 0.0682555 14.368 0.0864575 14.4021 0.0637054C14.3066 0.0341278 14.368 0.125136 14.2748 0.0637054C14.3021 0.0978335 14.3453 0.125136 14.2748 0.159264C14.152 0.159264 14.2748 0.125136 14.1748 0.102383C14.1065 0.129686 14.1293 0.152438 14.1452 0.17519C14.1027 0.163901 14.0581 0.163901 14.0156 0.17519C13.8815 0.136511 14.0952 0.0910072 13.9997 0.0523287C13.9724 0.0796312 13.9269 0.106935 13.9429 0.129687C13.8542 0.175191 13.7746 0.0955579 13.686 0.159264C13.5905 0.141062 13.6178 0.11376 13.5632 0.0955581C13.4541 0.129066 13.3408 0.146691 13.2267 0.147889C13.1699 0.220695 12.9789 0.225245 12.8448 0.243447C12.7721 0.232071 12.9744 0.186567 12.8448 0.186567C12.716 0.244125 12.5767 0.274339 12.4356 0.275299C12.3333 0.316253 12.4924 0.316254 12.4174 0.350382C12.2674 0.382234 12.3856 0.298052 12.2605 0.293501C12.1946 0.293501 12.1651 0.320802 12.1605 0.343555C11.8968 0.282124 11.6604 0.516471 11.408 0.511921C11.3353 0.596103 11.2739 0.600653 11.1238 0.680285C11.0784 0.691661 11.0397 0.66436 10.9442 0.691662C10.9033 0.652984 11.0829 0.630231 11.1352 0.591553C11.0026 0.598906 10.8751 0.645639 10.7692 0.725789C10.6396 0.741715 10.6919 0.703038 10.6078 0.691662C10.5123 0.737166 10.4509 0.730339 10.4168 0.798595H10.3145C10.3645 0.832723 10.119 0.944209 10.0008 0.916907C9.93938 1.01247 9.86663 1.00792 9.73704 1.03977C9.64838 1.10802 9.74841 1.03977 9.79388 1.05797C9.74295 1.09135 9.68567 1.11381 9.62564 1.12395C9.51879 1.12395 9.587 1.0921 9.60973 1.05114C9.50429 1.0984 9.38746 1.11421 9.27327 1.09665C9.29463 1.07992 9.3195 1.06825 9.34601 1.06252C9.31646 1.03067 9.10503 1.1467 9.00955 1.19221C9.26644 1.10347 9.23689 1.17628 9.49151 1.10347C9.28236 1.26046 9.21643 1.15353 9.0482 1.24226C9.07093 1.28321 9.2619 1.24226 9.25053 1.28776C9.17778 1.28776 9.02319 1.3674 8.94589 1.34464C8.89588 1.41063 8.90725 1.4493 8.8686 1.51756C8.8686 1.4402 8.7572 1.50163 8.64126 1.51756C8.58442 1.51756 8.72537 1.422 8.61852 1.44475C8.59124 1.48798 8.56851 1.49936 8.59579 1.53804C8.5344 1.56761 8.4321 1.57216 8.50485 1.59492C8.43272 1.62628 8.3559 1.6455 8.27751 1.6518C8.25932 1.62449 8.49121 1.54486 8.41846 1.51074C8.30024 1.59492 7.78418 1.96578 7.83874 1.80196C7.77281 1.84291 7.7228 1.92027 7.64323 1.93165C7.58639 2.06588 7.32267 2.14552 7.18854 2.32526C7.12261 2.29113 7.0044 2.40944 7.02031 2.32526C6.94301 2.35939 6.98621 2.40489 6.89754 2.4777C6.71855 2.56731 6.55871 2.69096 6.42695 2.84173C6.37466 2.8076 6.24735 2.92136 6.25871 2.96004C6.16778 2.96004 6.12231 3.03285 6.04501 3.0556C6.08366 3.0556 6.11094 3.04422 6.16778 3.0556C6.09862 3.11164 6.01512 3.14711 5.9268 3.15798C5.8154 3.23079 5.90406 3.24216 5.71991 3.31042C5.71991 3.32635 5.76538 3.31042 5.71991 3.36503C5.80389 3.29016 5.90102 3.23153 6.00637 3.19211C5.8459 3.29601 5.69387 3.41241 5.55168 3.54022C5.5335 3.54022 5.55168 3.52201 5.51758 3.54022C5.57442 3.46741 5.71309 3.3946 5.69718 3.34227C5.5676 3.39915 5.52895 3.54477 5.35389 3.61757C5.34262 3.65259 5.31924 3.68243 5.28797 3.70176C5.28797 3.73133 5.28797 3.74271 5.33798 3.72451C5.26978 3.82462 5.16975 3.87012 5.11064 3.97251C5.02652 4.01573 5.06744 3.96113 4.99924 3.98843C4.94241 4.07261 5.07199 3.98843 4.97196 4.07716C4.91513 4.10674 4.93331 4.07716 4.93331 4.06124C4.93331 4.04531 4.91513 4.06124 4.88785 4.08854C4.84238 4.15225 4.91513 4.11129 4.88785 4.14542C4.50136 4.31379 4.2763 4.7802 4.00803 4.97132C3.96938 4.98725 4.03531 4.88714 4.00803 4.88714C3.89664 4.9827 3.85571 5.15106 3.69885 5.20112C3.69885 5.22842 3.69885 5.23979 3.74886 5.21704C3.74886 5.27847 3.68748 5.30122 3.67157 5.3581C3.62155 5.40361 3.64429 5.3581 3.65565 5.30805C3.58745 5.34673 3.56472 5.43091 3.50333 5.48097C3.50333 5.51054 3.53744 5.48097 3.56472 5.48097C3.56472 5.54467 3.49879 5.5606 3.4806 5.6152C3.46469 5.6152 3.4806 5.56515 3.43058 5.59928L3.39648 5.71076C3.3351 5.75171 3.36238 5.69028 3.28963 5.75171C3.14868 5.95876 3.01 6.1658 2.85314 6.36375L2.91907 6.32279C2.88042 6.37285 2.86905 6.4593 2.81449 6.49798C2.75993 6.53666 2.78039 6.49798 2.79176 6.44793C2.69439 6.58288 2.61776 6.73166 2.56441 6.88932C2.5144 6.88932 2.47575 6.9462 2.44165 7.05313C2.54395 6.9644 2.4803 7.05313 2.45984 7.13276C2.57123 6.92344 2.66672 6.86884 2.78494 6.63904C2.78494 6.60492 2.7622 6.65497 2.73947 6.6709C2.73947 6.59809 2.81222 6.59809 2.81222 6.52528C2.87391 6.49367 2.93252 6.45634 2.98727 6.4138C2.77357 6.62539 2.63716 7.03038 2.4712 7.17144C2.4712 7.19419 2.4712 7.18282 2.4712 7.21012C2.4371 7.30568 2.45529 7.17144 2.39391 7.2488C2.35926 7.40311 2.28023 7.5439 2.16657 7.65379C2.18475 7.71522 2.13474 7.81077 2.0779 7.90178C2.05972 7.84945 2.0779 7.74252 2.00515 7.78802C2.02789 7.71066 2.10518 7.60828 2.07108 7.58553C2.02789 7.66971 2.02107 7.66971 1.96651 7.69929C1.98242 7.76072 1.94377 7.8176 1.96651 7.84945C1.94377 7.94046 1.87102 7.99507 1.86647 8.09062C1.76417 8.1475 1.69142 8.3773 1.63913 8.54566C1.58912 8.51836 1.55047 8.6071 1.52774 8.74816C1.505 8.74816 1.48909 8.74816 1.50045 8.6981C1.42073 8.85416 1.35529 9.01712 1.30494 9.185C1.30494 9.23733 1.36632 9.14177 1.35496 9.21458C1.34359 9.28738 1.27539 9.28738 1.29812 9.36019C1.27084 9.39432 1.25265 9.38749 1.24811 9.36019C1.20946 9.43299 1.29812 9.37611 1.22537 9.49442C1.18672 9.54448 1.15717 9.56268 1.15717 9.51718C1.13443 9.65141 1.00712 9.84936 1.04123 9.92216C1.0003 9.98359 1.00712 9.92216 0.950288 9.99497C1.00712 10.0177 0.91164 10.1224 0.916187 10.1178C0.854804 10.2907 0.916186 10.3818 0.809336 10.5547C0.850257 10.6047 0.770688 10.8027 0.747954 10.921C0.73204 10.921 0.725219 10.8755 0.693391 10.921C0.732039 11.0234 0.641103 11.1235 0.670657 11.2759C0.693391 11.326 0.747953 11.1576 0.743406 11.1053C0.73886 11.0529 0.743406 11.235 0.743406 11.2691C0.772961 11.3305 0.784328 11.1621 0.800242 11.128C0.816156 11.0939 0.822977 11.1804 0.827523 11.219C0.83207 11.2577 0.73204 11.3419 0.761594 11.4647C0.722946 11.5285 0.682024 11.5785 0.677477 11.5216C0.620642 11.6013 0.636556 11.7059 0.581994 11.7856C0.604728 11.8197 0.636556 11.7969 0.620642 11.9084C0.552291 11.7574 0.533201 11.5886 0.56608 11.4261C0.536526 11.5057 0.491057 11.5831 0.459229 11.6536C0.459229 11.6968 0.509245 11.7196 0.459229 11.7924C0.470596 11.822 0.493332 11.7924 0.497879 11.8333C0.497879 11.9562 0.470598 11.8948 0.425129 11.9949C0.504699 11.9949 0.425129 12.4499 0.347832 12.4886C0.397848 12.4886 0.329645 12.5955 0.363746 12.6797C0.413761 12.6069 0.379661 12.5068 0.425129 12.434C0.459231 12.434 0.391028 12.6615 0.375114 12.7366C0.391028 12.7525 0.402395 12.7821 0.413762 12.8549C0.425129 12.9277 0.375114 12.9095 0.375114 12.8435C0.347833 12.9323 0.409215 12.9505 0.436496 12.8868C0.463777 12.823 0.46605 12.7707 0.436496 12.7025C0.45923 12.6797 0.481965 12.6865 0.504699 12.6638C0.504699 12.7935 0.431948 12.8913 0.443315 13.0233C0.402394 13.0392 0.370566 12.8208 0.329645 12.9937C0.38648 12.9709 0.35238 13.0346 0.3592 13.1348C0.302365 13.1348 0.336465 13.0392 0.290997 13.2235C0.325098 13.2417 0.341012 13.2531 0.347832 13.3714C0.275083 13.3987 0.347832 13.567 0.290997 13.6671C0.263444 13.3621 0.28649 13.0546 0.3592 12.7571C0.275084 12.8731 0.3592 12.5159 0.290997 12.5477C0.263716 12.5887 0.268263 12.6342 0.240982 12.6729C0.290997 12.7343 0.211427 12.9414 0.168232 12.98C0.234161 12.9141 0.202334 13.1097 0.268263 13.0324C0.252349 13.0983 0.268263 13.1712 0.240982 13.2394C0.213701 13.3077 0.263716 13.0255 0.195514 13.2007C0.156866 13.137 0.229615 13.0983 0.195514 13.0369C0.17278 13.087 0.161413 13.0528 0.138679 13.1052C0.190967 13.2735 0.138678 13.3054 0.0954831 13.3327C0.172779 13.3486 0.0954831 13.674 0.0954831 13.8423C0.122764 13.8992 0.118218 13.8423 0.145499 13.7695C0.195514 13.9561 0.122765 14.2359 0.17278 14.3315C0.145499 14.4316 0.134131 14.3088 0.104577 14.3474C0.106424 14.2067 0.116291 14.0661 0.134131 13.9265C0.111397 13.8765 0.0886625 13.8719 0.0613815 13.9265C0.067669 13.9433 0.0699164 13.9613 0.0679413 13.9791C0.0659661 13.9969 0.0598251 14.0139 0.0500154 14.0289C0.0613825 14.0448 0.077296 14.0562 0.0886631 14.0403C0.0353203 14.2485 0.0408297 14.4675 0.104577 14.6728C0.00909346 14.6 0.0659291 14.8594 0 14.9208C0.0164642 14.9635 0.0219365 15.0096 0.0159138 15.055C0.065929 15.1051 0.0159145 14.9367 0.0431955 14.9049C0.0704765 14.873 0.118218 15.0095 0.1796 15.1506C0.127312 15.2689 0.118217 15.0391 0.0772953 15.0323C0.0500143 15.162 0.0772954 15.1392 0.118217 15.2734C0.134131 15.2302 0.161413 15.2734 0.1796 15.2507C0.195514 15.3189 0.156866 15.3758 0.195514 15.4373C0.229615 15.3303 0.145499 15.2097 0.211428 15.1005C0.167788 14.9719 0.141785 14.838 0.134131 14.7024C0.156865 14.6569 0.156866 14.8252 0.161412 14.8639C0.165959 14.9026 0.190967 14.7979 0.161412 14.7638C0.318278 14.7979 0.20688 15.5214 0.279629 15.9014C0.279629 15.8673 0.302364 15.8286 0.313731 15.8513C0.341012 15.7945 0.27963 15.733 0.313731 15.6716C0.343285 15.6716 0.381934 15.8627 0.343286 15.9355C0.386481 15.8786 0.447862 16.0971 0.409214 16.1926C0.379442 16.1279 0.369932 16.0558 0.381934 15.9856C0.325099 16.0197 0.325098 15.9287 0.275083 15.9014C0.259169 16.0152 0.240982 15.981 0.225068 16.1084C0.222085 15.9305 0.195325 15.7537 0.145499 15.5829C0.10685 15.6944 0.102303 15.5829 0.0795692 15.7399C0.10685 15.7399 0.134131 15.6375 0.175052 15.7945C0.165231 15.9695 0.175913 16.1452 0.20688 16.3178C0.20688 16.2495 0.236435 16.2268 0.259169 16.2677C0.259169 16.1721 0.259169 16.1039 0.259169 16.0402C0.28645 16.0402 0.304637 16.1471 0.320551 16.1972C0.336465 16.2472 0.297817 16.2245 0.281903 16.1972C0.281903 16.3496 0.343286 16.2359 0.350106 16.4042C0.320552 16.4156 0.28645 16.3542 0.259169 16.3769C0.354653 16.5567 0.331918 16.9093 0.434222 17.1004C0.416034 17.1391 0.381933 17.0731 0.377386 17.1801C0.392151 17.2768 0.420469 17.371 0.461503 17.4599C0.461503 17.3917 0.488784 17.3644 0.506971 17.353C0.527044 17.4756 0.559024 17.596 0.602456 17.7125C0.579722 17.7739 0.466049 17.6397 0.506971 17.51C0.488784 17.5714 0.445589 17.4758 0.427402 17.5441C0.498683 17.6802 0.557283 17.8227 0.602456 17.9696C0.629737 17.9036 0.556986 17.8535 0.5729 17.7898C0.618368 17.7898 0.611549 17.9377 0.675205 18.0173C0.675205 18.0674 0.64565 18.0446 0.641103 18.1015C0.759321 18.1402 0.707032 18.3973 0.791148 18.5224C0.741133 18.6066 0.697939 18.3359 0.652471 18.3313C0.652471 18.3586 0.652471 18.3814 0.675205 18.4087C0.675205 18.5224 0.622915 18.3472 0.629736 18.4656C0.679751 18.5497 0.684299 18.6931 0.72522 18.6407C0.786603 18.7181 0.741134 18.8068 0.779782 18.8933C0.763868 18.9138 0.718399 18.8751 0.718399 18.7977C0.663837 18.8296 0.847983 19.1163 0.775234 19.1572L0.882085 19.296C0.882085 19.23 0.897998 19.2391 0.904819 19.2118C0.959381 19.3028 0.927553 19.3142 0.904819 19.3688C1.03213 19.5053 1.01622 19.6669 1.07305 19.9422C1.18445 20.0718 1.20036 20.4245 1.35268 20.6247C1.39815 20.6247 1.31403 20.5246 1.30267 20.4518C1.37087 20.4746 1.46408 20.7089 1.51409 20.8227C1.48681 20.8773 1.44362 20.6771 1.41407 20.7157C1.41407 20.7999 1.4368 20.8613 1.41407 20.8773C1.45726 20.9273 1.56411 21.0138 1.64141 21.0798C1.70279 21.1821 1.64141 21.1821 1.64141 21.2663C1.64141 21.3505 1.79827 21.4938 1.73234 21.4938C1.84588 21.6598 1.94695 21.8339 2.03471 22.0149C2.06881 22.1332 1.93468 21.9603 1.96651 22.0718C2.06881 22.1946 1.99606 22.0103 2.08472 22.1104C2.17339 22.2105 2.10746 22.2401 2.12337 22.3175C2.16273 22.3766 2.19696 22.439 2.22567 22.504C2.19157 22.504 2.18475 22.5268 2.20749 22.6224C2.22418 22.6232 2.24007 22.6298 2.25249 22.6409C2.26491 22.6521 2.2731 22.6673 2.27569 22.6838C2.33253 22.7225 2.23704 22.611 2.25978 22.5768C2.32571 22.6224 2.33252 22.6952 2.36663 22.7566C2.40073 22.818 2.34389 22.6542 2.3257 22.6269C2.30752 22.5996 2.37572 22.6269 2.39845 22.6269C2.44847 22.7111 2.42119 22.727 2.49394 22.7498C2.51667 22.8681 2.44847 22.7498 2.42119 22.7498C2.45529 22.8567 2.48939 22.8226 2.53259 22.8453C2.60534 22.9454 2.6508 23.0592 2.73037 23.1479C2.71219 23.1707 2.63489 23.1138 2.60533 23.1252C2.66217 23.2276 2.66217 23.3527 2.77584 23.4505C2.77307 23.5141 2.7829 23.5776 2.80475 23.6373C2.8266 23.697 2.86004 23.7519 2.90315 23.7986C2.88042 23.7327 2.8304 23.6576 2.8645 23.6416C2.92417 23.696 2.97347 23.7608 3.01 23.8328C3.05547 23.8669 3.02137 23.7827 3.08957 23.8328C3.02592 23.7531 2.95999 23.5734 2.90315 23.5734C2.90315 23.5506 2.92134 23.5188 2.9759 23.5734C3.03046 23.628 2.9759 23.6507 3.09412 23.7144C3.14413 23.8191 3.02137 23.6803 3.07821 23.7873C3.11231 23.7418 3.19642 23.8532 3.23962 23.967C3.30782 23.9989 3.25781 23.9101 3.21234 23.8601C3.25098 23.8874 3.26917 23.926 3.31237 23.9488C3.31237 23.9875 3.38512 24.124 3.3351 24.0899C3.35329 24.1354 3.5147 24.24 3.43741 24.24C3.4806 24.3197 3.59427 24.2969 3.66475 24.4107C3.66475 24.438 3.61018 24.3925 3.56926 24.3765C3.65338 24.4766 3.76705 24.6905 3.85117 24.6951C3.87845 24.7178 3.98985 24.8703 3.883 24.7974C4.04668 24.9658 4.29448 25.1501 4.43316 25.1387C4.47108 25.1865 4.51636 25.228 4.56729 25.2616C4.61958 25.3526 4.4559 25.2411 4.53546 25.3571C4.41043 25.2957 4.43316 25.2798 4.38315 25.2115C4.2763 25.1387 4.23083 25.1387 4.27175 25.2297C4.29448 25.2457 4.27175 25.2115 4.27175 25.1956C4.33313 25.2457 4.4127 25.2843 4.4468 25.3571C4.4809 25.43 4.38542 25.3025 4.33995 25.3071C4.35586 25.3799 4.46272 25.3913 4.47408 25.4641C4.58093 25.4368 4.74235 25.6779 4.84465 25.8418C4.93331 25.8804 5.03562 25.8804 4.90603 25.7576C4.90603 25.819 4.83328 25.7348 4.77645 25.662C4.77645 25.6279 4.82192 25.678 4.84465 25.7053C4.84465 25.6506 4.61731 25.4777 4.54228 25.3799C4.90603 25.6211 5.3107 26.1262 5.75174 26.3969C5.75174 26.4242 5.7131 26.3969 5.68581 26.3969C5.72823 26.458 5.79256 26.5004 5.86541 26.5152C5.86541 26.588 5.93816 26.588 5.99955 26.6722C6.06093 26.7564 5.83131 26.5994 5.93134 26.7063C6.04956 26.7177 6.0723 26.7791 6.21325 26.9088C6.26912 26.9129 6.32293 26.9317 6.36924 26.9632C6.41554 26.9948 6.4527 27.038 6.47696 27.0886C6.57245 27.1113 6.63383 27.1773 6.73386 27.1955C6.88618 27.4481 7.37269 27.6369 7.75008 27.9463C7.75008 27.9008 7.88875 27.9304 7.90012 28.0032C8.00697 28.0305 7.99561 28.0032 8.01379 27.9805C8.04573 27.9925 8.07563 28.0094 8.10246 28.0305C8.07517 28.0464 8.10246 28.0874 7.98424 28.0646C8.10246 28.1647 8.06381 28.0146 8.18657 28.142C8.25932 28.1101 8.2866 28.142 8.41391 28.2103C8.45256 28.2558 8.37981 28.2444 8.30706 28.233C8.55941 28.3058 8.88451 28.5197 9.10958 28.4969C9.23689 28.5197 9.22098 28.547 9.29373 28.5857C9.36647 28.6243 9.20506 28.6152 9.27781 28.6767C9.37784 28.688 9.3733 28.6539 9.36647 28.6266C9.47787 28.6812 9.46196 28.6425 9.58018 28.6698C9.63019 28.7426 9.43922 28.7381 9.32783 28.6926C9.3733 28.7267 9.33919 28.7267 9.32783 28.7108C9.51504 28.87 9.74875 28.9642 9.99394 28.9793C10.0735 29.0362 9.85526 28.9793 9.96211 29.0475C10.0735 29.0293 10.2918 29.1863 10.46 29.2318C10.5214 29.2318 10.4986 29.2091 10.5623 29.2091C10.5623 29.2273 10.5168 29.2318 10.5623 29.2591C10.6578 29.2887 10.5964 29.2591 10.6805 29.2591C10.6964 29.275 10.635 29.275 10.6623 29.2978C10.7578 29.3661 10.8897 29.3661 10.8897 29.3205C10.9104 29.3372 10.9359 29.3467 10.9624 29.3479C10.9851 29.3661 10.9283 29.3661 10.8942 29.3706C11.1375 29.4389 11.4898 29.5981 11.674 29.5845C11.9013 29.696 11.8536 29.6118 11.9786 29.6732C12.1204 29.6423 12.2658 29.6315 12.4106 29.6414C12.354 29.6173 12.2954 29.5982 12.2355 29.5845C12.3265 29.5685 12.3878 29.63 12.4629 29.6186C12.4856 29.6345 12.4288 29.6345 12.4015 29.6414C12.5697 29.6732 12.7198 29.7415 12.888 29.7756C12.9107 29.7915 12.8539 29.7983 12.8266 29.8029C12.9039 29.83 12.9861 29.8401 13.0676 29.8325C13.1744 29.7597 13.6723 29.9553 13.9542 29.8985C13.6441 29.8731 13.3363 29.8244 13.0335 29.7528C13.1401 29.7517 13.2462 29.7686 13.3472 29.8029C13.3995 29.7642 13.2131 29.7688 13.1744 29.746L13.3427 29.7142C13.3927 29.7369 13.3586 29.7528 13.4109 29.7688C13.6382 29.7688 13.6382 29.6732 13.9042 29.7301C13.9201 29.7642 13.7246 29.7597 13.6519 29.7801C13.6519 29.7983 13.7019 29.8211 13.6791 29.8416C13.8043 29.7791 13.9472 29.7614 14.0838 29.7915C14.1179 29.8143 14.0838 29.8325 14.0156 29.8416C14.1225 29.8871 14.243 29.7756 14.4021 29.8143C14.5089 29.8416 14.318 29.8598 14.443 29.8939C14.4703 29.8939 14.4589 29.8825 14.443 29.8712C14.4271 29.8598 14.5885 29.8711 14.559 29.8256C14.6044 29.837 14.7863 29.8598 14.7499 29.8097C14.8113 29.8097 14.8795 29.7983 14.9363 29.8256C14.9363 29.8643 14.7454 29.8871 14.7886 29.9212C14.8724 29.9183 14.9556 29.9053 15.0364 29.8825C15.1091 29.903 15.0364 29.9212 15.1319 29.944C15.2933 29.928 15.457 29.944 15.6138 29.944C15.6707 29.9667 15.5138 29.944 15.4797 29.9963C15.682 30.0236 15.7366 29.8893 15.9344 29.9508C15.9889 29.9394 16.0458 29.8825 16.1026 29.9007C16.164 29.8711 16.0185 29.9007 15.9958 29.8712L16.0799 29.8393C16.2367 29.8598 16.3982 29.8211 16.5573 29.8393C16.5573 29.8894 16.3436 29.9167 16.2595 29.8712C16.1963 29.9023 16.1275 29.9201 16.0571 29.9235C16.1955 29.9514 16.3387 29.9436 16.4732 29.9007C16.5846 29.9167 16.4436 29.9553 16.5505 29.9735C16.769 29.8909 16.9992 29.8433 17.2325 29.8325C17.2939 29.8598 17.1484 29.8598 17.1256 29.8894C17.2393 29.8711 17.187 29.9098 17.2893 29.9235C17.428 29.8711 17.5758 29.878 17.7145 29.8211C17.9168 29.8484 17.9054 29.7756 18.1873 29.6527C18.0764 29.6926 17.9612 29.7194 17.844 29.7324C17.7872 29.7528 17.8168 29.7597 17.844 29.771C17.7751 29.7937 17.7029 29.8052 17.6303 29.8052C17.569 29.8052 17.7145 29.7665 17.7372 29.7665C17.5999 29.7162 17.4493 29.7162 17.3121 29.7665C17.1245 29.7412 16.9337 29.7528 16.7505 29.8006C16.6891 29.7847 16.7232 29.7574 16.6209 29.8006C16.3471 29.7631 16.0695 29.7631 15.7957 29.8006C15.7957 29.7392 15.5047 29.8006 15.5888 29.7324C15.51 29.752 15.4291 29.7619 15.3478 29.7619C15.3933 29.7847 15.4388 29.7733 15.4774 29.7892C15.4235 29.8006 15.3688 29.8082 15.3137 29.812C15.2978 29.7961 15.2978 29.7779 15.3478 29.7619C15.2819 29.7324 15.2069 29.7619 15.141 29.7278C15.0909 29.7392 15.1182 29.7506 15.0841 29.7665C15.0571 29.7485 15.0259 29.7381 14.9936 29.7361C14.9612 29.7341 14.929 29.7406 14.9 29.7551C14.8545 29.7392 14.8159 29.7051 14.7704 29.7164C14.6976 29.6937 14.9113 29.6891 14.7704 29.6596C14.5534 29.7068 14.3274 29.6894 14.1202 29.6095C14.0247 29.5754 14.0793 29.6323 14.0065 29.6391C13.9792 29.6391 13.9497 29.6391 13.9224 29.6391C13.8269 29.6118 13.8997 29.589 13.8042 29.5594C13.5503 29.586 13.2936 29.5541 13.054 29.4662C12.9884 29.4758 12.9224 29.4811 12.8562 29.4821C12.9812 29.5435 12.9698 29.4662 13.0835 29.5094C13.0153 29.5276 13.0335 29.5208 13.0949 29.5776C13.0332 29.5966 12.9677 29.5992 12.9048 29.5853C12.8418 29.5713 12.7836 29.5412 12.7357 29.498C12.8152 29.4753 12.8584 29.5663 12.9426 29.5321C12.8243 29.5162 12.7857 29.4548 12.888 29.4366C12.7243 29.4093 12.5674 29.3592 12.4038 29.3251C12.4674 29.2864 12.4379 29.3024 12.3219 29.2523C12.4096 29.2588 12.4942 29.2878 12.5674 29.3365C12.6175 29.3251 12.5061 29.2864 12.5674 29.2796C12.472 29.2796 12.3878 29.2341 12.2924 29.225C12.1969 29.2159 12.3106 29.275 12.3719 29.3137C12.2225 29.2815 12.0701 29.2648 11.9172 29.2637C11.89 29.2864 11.9354 29.3183 11.89 29.3365C11.7376 29.3092 11.9059 29.291 11.7899 29.2409C11.7672 29.2136 11.8331 29.2409 11.8741 29.2409C11.7445 29.1363 11.3966 29.0839 11.2511 28.9724C11.0424 28.9519 10.8378 28.9005 10.6441 28.82C10.5941 28.7586 10.7965 28.82 10.8306 28.7768C10.6964 28.6971 10.6169 28.7768 10.6169 28.6858C10.56 28.704 10.5487 28.7313 10.5782 28.7768C10.4007 28.7352 10.2306 28.6669 10.0735 28.5743C9.98939 28.6243 9.83252 28.5356 9.71431 28.4787C9.69839 28.456 9.75296 28.4787 9.78024 28.4605C9.80752 28.4423 9.85526 28.506 9.88709 28.5356C9.91892 28.5652 9.93938 28.5356 9.92801 28.5174H9.98257C9.90527 28.4605 9.7916 28.4719 9.73022 28.3877C9.79153 28.3959 9.85084 28.4152 9.90528 28.4446C9.95984 28.4105 9.77569 28.365 9.73022 28.3308C9.92119 28.3308 9.55062 28.2467 9.44604 28.1693C9.44604 28.2012 9.38239 28.2353 9.28236 28.1966C9.37102 28.1807 9.24371 28.1352 9.25962 28.0783C9.23391 28.0766 9.20896 28.0688 9.18687 28.0555C9.20279 28.1238 9.05274 28.0396 9.00273 28.0555C8.88824 27.9613 8.75606 27.8909 8.61397 27.8485C8.54123 27.7871 8.63216 27.803 8.6549 27.7871C8.54123 27.7029 8.42755 27.6346 8.36845 27.58L8.25477 27.5618L8.32298 27.6415C8.4412 27.6415 8.48666 27.7302 8.57078 27.7757C8.44119 27.7598 8.36845 27.6528 8.23886 27.6301C8.31161 27.5277 8.01152 27.4731 7.87511 27.3093C7.92968 27.3616 8.00924 27.3821 8.06608 27.4321C8.09791 27.4048 7.90921 27.3093 7.83874 27.2706C7.80464 27.2706 7.80009 27.3047 7.7478 27.3047C7.62504 27.2433 7.72052 27.2251 7.68187 27.1796C7.66456 27.1777 7.64794 27.1718 7.63333 27.1623C7.61872 27.1528 7.60654 27.14 7.59776 27.125C7.55911 27.175 7.4568 27.1068 7.38406 26.9907C7.40679 27.0795 7.33859 26.9907 7.20446 26.968C7.11579 26.8497 7.38406 27.0294 7.26584 26.8952C7.18172 26.927 7.11579 26.8611 7.0385 26.8611C6.95893 26.7541 7.18854 26.8997 7.17263 26.8611C7.10841 26.8077 7.02865 26.7766 6.94529 26.7723C6.87254 26.6836 7.03622 26.7996 7.0294 26.7564C6.8839 26.588 6.77705 26.6085 6.57472 26.4925C6.54289 26.4401 6.57472 26.4401 6.52016 26.3628C6.40194 26.3287 6.34511 26.2331 6.23826 26.183C6.23826 26.1444 6.29054 26.1603 6.29509 26.1262C6.33374 26.1375 6.35193 26.1671 6.38375 26.1762C6.44059 26.2445 6.35647 26.199 6.3451 26.2172C6.45947 26.2756 6.56698 26.3465 6.66566 26.4288C6.6008 26.3427 6.52429 26.2662 6.43832 26.2012C6.3883 26.133 6.54516 26.2854 6.4997 26.2012C6.58381 26.2854 6.6793 26.3537 6.77023 26.4288C6.79297 26.4288 6.77023 26.3901 6.79297 26.4015C6.88163 26.447 6.79297 26.447 6.8589 26.5129C6.90072 26.5262 6.9394 26.5479 6.97257 26.5767C7.05668 26.4902 7.16126 26.7336 7.32495 26.745C7.38178 26.811 7.26811 26.7769 7.37042 26.8406C7.45453 26.8406 7.3977 26.7655 7.48636 26.7769C7.44771 26.7223 7.37042 26.7109 7.32949 26.6608C7.29767 26.6608 7.32949 26.6881 7.34768 26.7154C7.26787 26.6861 7.19507 26.6404 7.13398 26.5812C7.13398 26.5425 7.21355 26.6085 7.25674 26.5812C7.3384 26.6409 7.42694 26.6906 7.52046 26.7291C7.58184 26.7951 7.47045 26.7609 7.57048 26.8292C7.79782 26.8019 8.18202 27.1819 8.47984 27.307C8.47984 27.3343 8.36163 27.307 8.38891 27.3457C8.17252 27.2222 7.96305 27.087 7.76144 26.9407C7.80691 27.0089 7.89557 27.0544 7.78418 27.0362C7.85693 27.0772 7.93422 27.1091 8.01152 27.1546C8.01152 27.1887 7.92286 27.1546 8.01152 27.2456C8.107 27.2456 8.12519 27.2615 8.22522 27.3297C8.32525 27.398 8.17975 27.3525 8.2525 27.4185C8.40406 27.5057 8.56935 27.5665 8.74129 27.5982C8.74129 27.6096 8.76857 27.6483 8.74129 27.6483C8.66172 27.6483 8.7572 27.6028 8.65035 27.6028C8.76402 27.7052 8.92089 27.7438 9.03683 27.8303L9.23462 27.853C9.26645 27.8985 9.25053 27.9259 9.3301 27.9827C9.45741 27.9645 9.30055 27.9099 9.28463 27.8576C9.38466 27.869 9.42558 27.9873 9.54153 27.9714C9.63247 28.0487 9.4074 28.0032 9.54153 28.0942C9.57108 28.0942 9.54153 28.0715 9.54153 28.0601C9.73163 28.1123 9.91424 28.1888 10.0849 28.2876C10.1963 28.2876 10.0621 28.1943 9.97802 28.1647C10.0735 28.1807 10.2054 28.1306 10.269 28.2034C10.2918 28.2558 10.1622 28.1761 10.1735 28.2216C10.1849 28.2671 10.2804 28.2376 10.3099 28.2944C10.3759 28.2762 10.3099 28.2444 10.4554 28.2762C10.5055 28.3172 10.4941 28.3331 10.4327 28.3286C10.5441 28.4127 10.5782 28.3058 10.6851 28.3832C10.7078 28.4241 10.5327 28.3832 10.6237 28.456C10.7237 28.456 10.7078 28.4332 10.7737 28.4287C10.807 28.4315 10.8394 28.4408 10.8692 28.456C10.8692 28.4856 10.7283 28.456 10.7396 28.4969C10.8692 28.5288 10.8306 28.5515 10.9374 28.6198C11.148 28.6962 11.3659 28.7511 11.5876 28.7836C11.4239 28.8041 11.9695 28.9406 12.1378 28.9906C12.1082 29.0407 11.9104 28.9406 11.7945 28.9565C11.9809 29.0635 12.1923 28.9906 12.3219 29.0794C12.3492 29.068 12.306 29.0521 12.2833 29.0362C12.3606 29.002 12.4174 29.0521 12.497 29.0362C12.6584 29.159 12.9335 29.1203 13.0335 29.2045C13.2745 29.2045 13.4041 29.2887 13.6109 29.2273C13.5155 29.2273 13.5837 29.2273 13.5155 29.1818C13.8087 29.1431 13.8701 29.2546 13.8747 29.3342C13.9474 29.3001 13.8974 29.2614 13.9474 29.2273C14.0592 29.2348 14.1702 29.2516 14.2793 29.2773C14.3066 29.3001 14.1793 29.2955 14.1111 29.3046C14.2555 29.3315 14.4012 29.3505 14.5476 29.3615C14.6112 29.3729 14.5999 29.4229 14.5476 29.4002C14.5476 29.4457 14.6544 29.4002 14.7045 29.4002C14.7545 29.4002 14.6817 29.3774 14.659 29.3615C14.927 29.4244 15.2025 29.4489 15.4774 29.4343L15.607 29.4775C15.657 29.4616 15.7093 29.4775 15.7639 29.4548C15.9912 29.5458 16.2186 29.4343 16.4459 29.5117C16.4734 29.5023 16.5015 29.4947 16.53 29.4889C16.4972 29.4962 16.4636 29.5 16.43 29.5003C16.4694 29.483 16.5106 29.4701 16.5527 29.4616V29.4616C16.6554 29.4353 16.7606 29.4201 16.8665 29.4161L16.8324 29.4343H16.8096C16.782 29.4433 16.7539 29.4509 16.7255 29.4571C16.8661 29.4476 17.0073 29.4553 17.1461 29.4798C17.0052 29.5299 16.9938 29.5458 16.8824 29.5868C17.1461 29.5572 17.4098 29.4457 17.5394 29.4844C17.528 29.407 17.7122 29.3388 17.6349 29.2568C17.769 29.2568 17.8986 29.2568 18.0259 29.2341C18.0055 29.1545 17.5508 29.2887 17.5553 29.184C17.6053 29.1499 17.6576 29.184 17.7122 29.184C17.7304 29.1272 17.9213 29.1431 18.0146 29.0703C17.9986 29.1044 17.9941 29.1385 18.1214 29.1431C18.11 29.0976 18.1896 29.0771 18.2965 29.0202C18.3806 29.043 18.5238 29.0589 18.5238 29.002C18.6193 29.002 18.5738 29.0475 18.6852 29.0202C18.742 29.043 18.6852 29.0475 18.6125 29.0885C18.7268 29.074 18.8386 29.0433 18.9444 28.9975C19.0399 28.9975 18.8603 29.0817 18.9444 29.0885C18.9898 29.0657 19.0126 28.9815 19.1172 28.9975C19.1172 28.9702 19.1899 28.9292 19.0853 28.936C19.224 28.8792 19.2013 28.8905 19.2467 28.8246C19.2922 28.7586 19.3581 28.8405 19.4036 28.795C19.5105 28.7222 19.3309 28.7791 19.2922 28.7677C19.361 28.7521 19.4287 28.7316 19.4945 28.7062C19.5491 28.7176 19.3991 28.7904 19.4945 28.7836C19.515 28.7335 19.6673 28.7108 19.6219 28.7563C19.8085 28.6329 20.0279 28.5686 20.2516 28.572C20.2516 28.5493 20.3062 28.5038 20.3062 28.481C20.1993 28.4992 20.2448 28.481 20.1493 28.481C20.0879 28.5197 20.1493 28.5197 20.1834 28.5197C19.9789 28.5937 19.7657 28.6411 19.5491 28.6607C19.7173 28.5766 19.9083 28.5925 20.072 28.4969C19.9798 28.5224 19.8854 28.5392 19.7901 28.547C19.8856 28.4924 19.9924 28.5038 20.0765 28.4082C20.1334 28.4082 20.0493 28.4696 20.1447 28.4628C20.1788 28.4309 20.222 28.4241 20.2561 28.39C20.2902 28.3559 20.2789 28.4173 20.2448 28.4469C20.3016 28.4469 20.3403 28.3968 20.3971 28.4127C20.4085 28.3513 20.5699 28.3172 20.5699 28.2603C20.7108 28.2398 20.5881 28.324 20.6949 28.3172C20.7965 28.2471 20.9171 28.2098 21.0405 28.2103C21.1814 28.1147 21.1973 28.1716 21.3337 28.0828C21.3951 28.0828 21.261 28.1261 21.2496 28.1647C21.3951 28.1374 21.5179 28.0373 21.6634 28.0032C21.6796 27.9885 21.6919 27.97 21.6991 27.9493C21.7062 27.9286 21.708 27.9065 21.7043 27.8849C21.7884 27.8576 21.9316 27.762 21.9157 27.712C22.0294 27.6779 21.8703 27.778 21.9839 27.7438C22.0567 27.7165 22.1135 27.6505 22.1976 27.6437C22.2749 27.5709 22.1976 27.5823 22.2977 27.5368C22.3977 27.4913 22.2136 27.6551 22.2363 27.671C22.1908 27.7279 22.1067 27.671 22.0726 27.7507C22.1135 27.778 22.2999 27.6779 22.3772 27.5982C22.4659 27.5709 22.4204 27.621 22.4932 27.5982C22.5955 27.5027 22.8069 27.3297 22.8706 27.3457C22.9342 27.3616 22.9024 27.307 22.8706 27.307C22.9429 27.2425 23.0319 27.1999 23.1275 27.1841C23.1616 27.1159 23.2229 27.1045 23.2616 27.0385C23.1775 27.1273 23.0343 27.1 22.9706 27.2183C22.8797 27.2183 22.9706 27.1386 22.791 27.2069C22.8144 27.1733 22.8453 27.1455 22.8811 27.1258C22.917 27.106 22.957 27.0949 22.9979 27.0931C23.0661 26.993 22.891 27.1159 22.8751 27.0931C22.8638 27.1187 22.8449 27.1402 22.8208 27.1545C22.7968 27.1687 22.7688 27.1751 22.741 27.1728C22.7023 27.241 22.6341 27.2456 22.65 27.2797C22.7342 27.2569 22.7865 27.1955 22.7796 27.2569C22.7342 27.307 22.6614 27.2842 22.6228 27.3411C22.5659 27.3297 22.6614 27.2615 22.5273 27.3184C22.6 27.3525 22.4273 27.3798 22.3477 27.4253C22.3318 27.4253 22.3249 27.3798 22.3659 27.357C22.2591 27.3847 22.1566 27.4268 22.0612 27.4822C21.9453 27.4526 21.8203 27.5777 21.7248 27.5368C21.6134 27.6164 21.6475 27.6506 21.5179 27.7052C21.4838 27.7052 21.5452 27.6619 21.5679 27.6324C21.4497 27.621 21.361 27.7006 21.2542 27.7279C21.2269 27.7689 21.2542 27.7689 21.311 27.7393C21.261 27.8189 21.1473 27.8189 21.1655 27.8621C21.1511 27.8484 21.132 27.8407 21.1121 27.8407C21.0922 27.8407 21.073 27.8484 21.0587 27.8621C21.0018 27.8508 21.0587 27.8326 21.1132 27.7825C20.9791 27.8121 20.8677 27.9076 20.7222 27.8894C20.704 28.0078 20.5358 27.9236 20.4471 28.0351C20.4471 27.9805 20.3403 28.0646 20.313 28.0351C20.3937 27.9859 20.4867 27.9607 20.5812 27.9623C20.6313 27.8508 20.8722 27.828 21.0359 27.8007C21.0359 27.7666 21.0359 27.7393 21.1246 27.6665C20.9291 27.8621 20.413 27.8235 20.2448 28.076C20.0926 28.1311 19.9369 28.1759 19.7787 28.2103C19.7514 28.2444 19.7787 28.2489 19.8356 28.2262L19.706 28.3399C19.6583 28.3589 19.607 28.3666 19.5559 28.3627C19.6219 28.3104 19.7014 28.3217 19.7628 28.2444C19.6901 28.2444 19.6173 28.2717 19.5355 28.2717L19.4468 28.3399C19.4056 28.3499 19.3638 28.3575 19.3218 28.3627C19.2672 28.3627 19.3218 28.3172 19.3854 28.2762C19.199 28.3104 19.3059 28.3945 19.1035 28.4241C19.0876 28.44 19.0876 28.456 19.1331 28.4628C19.0912 28.4934 19.043 28.5144 18.9921 28.5242C19.0762 28.4173 18.6898 28.4901 18.5556 28.4856C18.6943 28.4287 19.0649 28.3945 19.0376 28.3217C19.1763 28.2762 19.3286 28.2671 19.4741 28.2103C19.4741 28.1534 19.3059 28.2444 19.2263 28.2444C19.3331 28.1807 19.34 28.2034 19.4082 28.1306C19.4809 28.1943 19.5468 28.0988 19.615 28.1647C19.7264 28.0874 19.6651 28.076 19.615 28.0533C19.6992 28.0032 19.7173 28.0646 19.7674 28.0533C19.8174 28.0419 19.8742 28.0032 19.9242 27.9463C20.0129 27.935 19.9583 27.9759 20.0311 27.9691C20.1266 27.8917 20.0925 27.9463 20.1993 27.919C20.3067 27.8683 20.4114 27.8121 20.513 27.7507C20.6199 27.7347 20.513 27.8007 20.5585 27.8075C20.4448 27.869 20.2266 27.9145 20.2652 27.9805C20.3276 27.945 20.3876 27.9055 20.4448 27.8621C20.4448 27.8735 20.463 27.8849 20.5017 27.8849C20.5903 27.8007 20.6085 27.7893 20.7086 27.7893C20.8336 27.7006 20.6699 27.7279 20.7927 27.6392C20.8154 27.621 20.8381 27.621 20.8609 27.5982C20.9495 27.5868 20.8836 27.6437 20.8836 27.6733C20.9564 27.6892 21.0064 27.621 21.0791 27.621C21.1246 27.5868 21.0973 27.5868 21.0678 27.5868C21.1973 27.5049 21.3656 27.5254 21.4724 27.3753C21.6832 27.27 21.9003 27.178 22.1226 27.1C22.1726 27.0158 22.2636 27.0044 22.3295 26.9543C22.3295 26.8975 22.3022 26.9088 22.3636 26.8406C22.2957 26.8571 22.2265 26.867 22.1567 26.8702C22.1272 26.943 22.1567 26.902 22.0999 26.993C22.043 27.084 21.9044 27.0772 21.8248 27.1728C21.752 27.1728 21.893 27.0613 21.893 27.0158C21.8316 27.0158 21.6793 27.1386 21.6793 27.0772C21.527 27.1386 21.4042 27.2842 21.2246 27.2842C21.3087 27.2114 21.4042 27.1887 21.4838 27.1159C21.4259 27.1496 21.3598 27.167 21.2928 27.1659C21.2814 27.2183 21.2587 27.2296 21.2019 27.2114C21.0518 27.3525 20.8427 27.3411 20.6813 27.439C20.5858 27.4617 20.6813 27.4003 20.7086 27.3661C20.6358 27.3661 20.5858 27.4162 20.5244 27.4208C20.5508 27.4395 20.5807 27.4528 20.6123 27.4598C20.644 27.4669 20.6767 27.4675 20.7086 27.4617C20.7086 27.4731 20.7086 27.489 20.7086 27.5118C20.6551 27.5337 20.6004 27.5527 20.5449 27.5686C20.513 27.5686 20.5858 27.5118 20.4835 27.5345C20.4266 27.5732 20.4448 27.5846 20.4266 27.6073C20.4085 27.6301 20.3607 27.6232 20.3312 27.646C20.2652 27.6301 20.3766 27.6005 20.3653 27.5732C20.4266 27.5163 20.513 27.5459 20.5676 27.4776C19.8597 27.7544 19.1253 27.958 18.376 28.0851C18.3419 28.1784 18.0941 28.192 18.0396 28.1397C17.9941 28.192 18.0782 28.2194 18.0396 28.2694C17.9032 28.3149 17.91 28.2353 17.7758 28.2922C17.7463 28.2922 17.7918 28.2649 17.819 28.2467C17.7002 28.2818 17.5785 28.3062 17.4553 28.3195C17.5962 28.1966 17.1643 28.3081 16.9665 28.258C16.8733 28.2922 16.9847 28.2967 17.0188 28.3081C16.8278 28.3377 16.9119 28.3081 16.7323 28.3081C16.6982 28.3263 16.7937 28.3308 16.7551 28.3536C16.7073 28.365 16.6574 28.365 16.6096 28.3536C16.6096 28.3741 16.5755 28.3923 16.5141 28.4196C16.4004 28.4582 16.4345 28.3741 16.3163 28.4423C16.2822 28.4264 16.3163 28.4036 16.3686 28.3741C16.1665 28.3533 15.9627 28.3571 15.7616 28.3854C15.7457 28.3695 15.7457 28.3536 15.7889 28.3354C15.5631 28.3693 15.3351 28.386 15.1069 28.3854C15.0955 28.3741 15.0841 28.365 15.1069 28.3536C15.0129 28.3573 14.9205 28.3781 14.834 28.415C14.759 28.3854 14.759 28.3695 14.834 28.3581C14.543 28.3581 14.2725 28.2353 13.9656 28.3126C13.8815 28.2853 13.9929 28.274 13.9088 28.2467C13.9588 28.2285 13.9974 28.2626 14.0543 28.2467C13.7895 28.2757 13.5217 28.258 13.2631 28.1943C13.2131 28.2285 13.4427 28.258 13.2927 28.2808C13.1971 28.2164 13.0869 28.1772 12.9721 28.167C12.888 28.2125 13.0676 28.1852 13.129 28.2239C13.0389 28.2314 12.9482 28.2237 12.8607 28.2012C12.8607 28.1738 12.8994 28.1443 12.9335 28.117C12.6997 28.1214 12.4662 28.0985 12.2378 28.0487C12.2196 28.0328 12.2764 28.026 12.2492 28.01C12.2219 27.9941 12.1696 27.9873 12.1355 27.96C12.0423 27.9714 12.0855 27.9827 11.9786 27.9759C11.9786 27.9532 11.9627 27.9327 11.9059 27.8985C11.7881 27.8757 11.6719 27.8453 11.558 27.8075C11.5194 27.7734 11.6035 27.7916 11.6422 27.8075C11.5893 27.7764 11.5297 27.7583 11.4684 27.7547C11.4072 27.7511 11.3459 27.7622 11.2898 27.7871C11.1784 27.7234 11.2898 27.7302 11.3625 27.7234C11.1941 27.71 11.0274 27.6802 10.8647 27.6346C10.8237 27.6119 10.9147 27.6005 10.9465 27.6346C10.9465 27.5959 10.8578 27.5618 10.7624 27.5231C10.7965 27.5231 10.8965 27.5618 10.8192 27.5004C10.8692 27.5004 10.8965 27.5573 10.9647 27.53C10.8965 27.4776 10.8124 27.4776 10.7373 27.4344C10.7601 27.4663 10.676 27.489 10.6078 27.4344C10.5737 27.4344 10.6419 27.4549 10.6646 27.4845C10.5653 27.4579 10.4626 27.4464 10.36 27.4503C10.2667 27.3889 10.435 27.423 10.36 27.3661C10.2827 27.3661 10.1713 27.3275 10.1485 27.3661C9.9803 27.2771 9.80549 27.201 9.62564 27.1386C9.62564 27.1568 9.62564 27.1887 9.53016 27.1614C9.48697 27.084 9.6211 27.1159 9.44604 27.0158C9.52561 27.0158 9.57108 27.0613 9.62564 27.084C9.64383 27.0385 9.43013 26.993 9.35738 26.9361C9.34147 26.9361 9.35738 26.9771 9.31191 26.9703C9.25508 26.9157 9.20052 26.9043 9.17323 26.836C9.0823 26.8133 9.12095 26.8588 9.03228 26.836C8.94362 26.8133 8.95271 26.7018 8.80494 26.7132C8.75493 26.6631 8.82086 26.6745 8.75493 26.6176C8.81013 26.6266 8.86193 26.6501 8.90497 26.6859C8.62989 26.4583 8.11382 26.2308 7.76826 25.9783C7.78418 25.9555 7.83419 25.9601 7.89785 25.9783C7.83419 25.9214 7.73871 25.9009 7.68415 25.8327C7.62276 25.8167 7.62731 25.844 7.62276 25.8713C7.43634 25.7712 7.20673 25.4573 6.95438 25.4163C6.9271 25.3435 7.0385 25.4436 7.05668 25.4163C6.93847 25.323 6.90891 25.3048 6.82934 25.2275C6.80206 25.2275 6.81343 25.2502 6.77933 25.2434C6.64292 25.1592 6.51561 24.9294 6.39739 24.9294C6.37466 24.8794 6.41331 24.8794 6.36329 24.8065C6.31328 24.7337 6.21779 24.7451 6.20188 24.6655C6.04956 24.6655 5.9268 24.3743 5.7472 24.2946C5.77675 24.2946 5.71537 24.2104 5.75856 24.2286C5.65853 24.1604 5.53122 24.1035 5.51758 23.9761C5.47136 23.9567 5.42959 23.928 5.39482 23.8919C5.39482 23.8919 5.39482 23.8692 5.39482 23.835C5.35617 23.835 5.27205 23.7395 5.33343 23.7668C5.24478 23.7018 5.17177 23.6179 5.11973 23.5211C5.11973 23.5666 5.0629 23.5211 5.00152 23.4596C5.00152 23.4369 5.04244 23.4596 5.0629 23.4596C5.00152 23.3641 4.90603 23.289 4.83556 23.1957C4.93104 23.2344 4.90831 23.289 4.98105 23.289C4.94768 23.2286 4.90468 23.174 4.85374 23.1274C4.85374 23.1001 4.90376 23.1274 4.93786 23.1502C4.99242 23.2162 4.99924 23.3117 5.09927 23.3459C5.02198 23.2776 5.09927 23.2685 5.03334 23.2003C5.04926 23.1547 5.11064 23.2162 5.16747 23.2685C5.16747 23.3117 5.12201 23.2844 5.09927 23.289C5.13792 23.3732 5.19476 23.3686 5.24477 23.3845C5.3047 23.4342 5.35088 23.4985 5.3789 23.5711C5.27433 23.4369 5.24477 23.5097 5.17202 23.4073C5.11746 23.3959 5.25614 23.5256 5.12655 23.4414C5.04244 23.3914 5.19021 23.4187 5.10609 23.3686C5.02198 23.3186 5.07654 23.3686 5.08791 23.4369C5.06232 23.4193 5.04128 23.3959 5.02652 23.3686C5.06517 23.4642 5.30615 23.6598 5.40164 23.8237C5.40164 23.7554 5.46984 23.8851 5.50849 23.8578C5.43712 23.7714 5.35455 23.6948 5.26296 23.6303C5.32889 23.512 5.54941 23.8191 5.64944 23.8828C5.73356 24.033 5.58124 23.9488 5.62216 24.0557C5.67672 24.0216 5.72219 24.174 5.81767 24.19C5.76084 24.1467 5.62671 23.9943 5.72219 24.0057C5.76766 24.1331 5.83359 24.0671 5.92907 24.2195C5.98136 24.3037 5.86769 24.2355 5.91316 24.3197L6.03592 24.3697C6.02001 24.3356 6.00182 24.3083 6.03592 24.3151C6.21321 24.4395 6.38324 24.5739 6.54517 24.7178C6.52925 24.6405 6.4565 24.6177 6.41558 24.5563C6.5338 24.6291 6.72477 24.7633 6.7134 24.8475C6.66762 24.8011 6.60904 24.7694 6.54517 24.7565C6.4997 24.7565 6.61792 24.8361 6.56335 24.8361C6.68612 24.9135 6.83162 24.9362 6.85435 25.0636C6.9271 25.0636 6.94983 25.1182 6.98848 25.1592C6.98848 25.1478 7.0385 25.1592 7.0385 25.141C7.15217 25.2639 7.42498 25.3935 7.45453 25.505C7.53648 25.5655 7.62493 25.6167 7.71825 25.6575C7.71825 25.6757 7.68869 25.6802 7.66823 25.6802C7.72961 25.7417 7.74098 25.6802 7.79554 25.7075C7.85238 25.7803 7.79554 25.7758 7.73416 25.7803C7.81373 25.8486 7.9365 25.9055 7.9365 25.9783C7.98651 25.9601 7.9365 25.8827 8.04335 25.91C7.94104 25.8099 7.94786 25.9487 7.816 25.8145C7.816 25.769 7.8592 25.769 7.94332 25.8031C8.107 25.8873 8.19567 26.0556 8.3639 26.1284C8.39345 26.2081 8.27978 26.1125 8.21385 26.1011C8.27369 26.1532 8.34436 26.1913 8.42073 26.2126C8.42232 26.2029 8.42171 26.193 8.41896 26.1835C8.4162 26.1741 8.41137 26.1654 8.40482 26.158C8.45938 26.1785 8.4662 26.2194 8.49348 26.1899C8.5776 26.2968 8.7572 26.2695 8.8254 26.4037C8.85723 26.3764 9.03683 26.4606 9.03228 26.5107C9.14368 26.4765 9.33465 26.5789 9.45287 26.6677C9.49833 26.6677 9.48015 26.6563 9.5097 26.6563C9.60518 26.7405 9.73704 26.7746 9.70522 26.8315C9.7666 26.8315 9.82798 26.8315 9.88936 26.8315C10.0189 26.9157 9.81207 26.8702 9.88936 26.9316C10.0064 26.9199 10.1239 26.9497 10.2213 27.0158C10.2486 26.993 10.3554 26.9976 10.3941 26.9816C10.4395 27.0385 10.2531 27.0089 10.344 27.084C10.3895 26.9976 10.6646 27.1113 10.776 27.2001C10.8988 27.2296 10.9056 27.1728 11.017 27.2342C11.0011 27.2615 10.8988 27.2683 11.0397 27.3024C11.0397 27.3343 10.9783 27.3411 10.8942 27.3411C10.9 27.3465 10.9068 27.3507 10.9142 27.3535C10.9216 27.3562 10.9295 27.3574 10.9374 27.357L10.9715 27.3912C11.0556 27.3912 11.0102 27.3525 11.0965 27.348C11.2239 27.348 11.1738 27.4185 11.2921 27.4822C11.3875 27.4708 11.4489 27.5436 11.5444 27.5436C11.5094 27.5104 11.4679 27.4847 11.4225 27.4683C11.3771 27.4518 11.3289 27.4449 11.2807 27.4481C11.2807 27.4253 11.242 27.3912 11.1898 27.3525C11.2852 27.3912 11.2921 27.3525 11.3921 27.4185C11.4989 27.4185 11.3534 27.3684 11.4603 27.3798C11.6036 27.4577 11.7565 27.5166 11.915 27.555C11.9468 27.5368 11.7899 27.4867 11.7399 27.4867C11.7399 27.4094 11.9536 27.4867 12.0491 27.5254C12.0991 27.5868 11.8922 27.4822 11.9468 27.5254C12.0423 27.6028 12.0423 27.5254 12.1491 27.5755C12.0718 27.5982 12.1491 27.621 12.2787 27.6483C12.4017 27.6579 12.5214 27.692 12.6311 27.7484C12.6925 27.7211 12.8744 27.7325 13.0085 27.7097C12.9744 27.7893 13.3609 27.7825 13.4223 27.762C13.4564 27.778 13.4836 27.8007 13.4632 27.8053C13.5064 27.7825 13.5905 27.8394 13.6905 27.8053C13.7519 27.8781 13.8542 27.8166 14.0224 27.8053C14.0497 27.828 13.9883 27.8439 14.077 27.8735C14.3748 27.8439 14.5317 27.9008 14.8295 27.8894C14.8636 27.919 14.8022 27.935 14.8954 27.9395C14.9068 27.8667 15.0591 27.9122 15.1228 27.9623C15.0773 27.9076 15.2342 27.8621 15.3637 27.8894C15.4024 27.935 15.216 27.8894 15.2387 27.9349C15.2614 27.9805 15.3183 27.9463 15.3569 27.9623C15.391 27.9395 15.3342 27.919 15.4297 27.919C15.4592 27.919 15.3683 27.9463 15.4024 27.9623C15.5547 27.985 15.6047 27.9623 15.5934 27.9236C15.7116 27.9008 15.5934 27.985 15.7116 27.9691C15.6934 27.919 15.8002 27.9008 15.9003 27.8781C15.9412 27.9349 15.9753 27.8781 16.064 27.919C16.064 27.8781 16.1822 27.8735 16.2481 27.8894C16.2595 27.9122 16.1981 27.9076 16.2276 27.9395C16.2595 27.8781 16.6255 27.9076 16.5755 27.8166C16.6641 27.8394 16.7483 27.7438 16.8324 27.7666C16.9165 27.7893 16.7528 27.8007 16.6914 27.8553C16.7755 27.8553 16.8665 27.8326 16.9506 27.8326C16.9847 27.7097 17.2984 27.7211 17.3871 27.6824C17.3871 27.7211 17.2689 27.7484 17.2257 27.7711C17.1825 27.7939 17.2029 27.7552 17.2257 27.7393C17.1234 27.7393 17.1575 27.778 17.0393 27.8007C17.15 27.7747 17.2662 27.7842 17.3712 27.828C17.4667 27.7939 17.353 27.7893 17.3939 27.762C17.5326 27.8121 18.0759 27.6323 18.2669 27.6028C18.2965 27.6028 18.4533 27.5186 18.3738 27.5072C18.4874 27.4344 18.6011 27.4913 18.6011 27.4117C18.6738 27.4117 18.6011 27.4685 18.617 27.4913C18.6381 27.4838 18.6587 27.4747 18.6784 27.464C18.6856 27.4721 18.6943 27.4786 18.7041 27.4833C18.7138 27.488 18.7244 27.4907 18.7352 27.4913C18.8012 27.4412 18.6784 27.4799 18.7011 27.4299C18.7625 27.3957 18.8353 27.4071 18.8966 27.3411C18.5443 27.3957 18.1964 27.4799 17.844 27.5413C17.7417 27.5413 17.8986 27.4913 17.7918 27.4913C17.6849 27.4913 17.7372 27.5254 17.6872 27.5641C17.5917 27.5413 17.7372 27.4754 17.8099 27.4185C18.0338 27.4225 18.2563 27.3823 18.4647 27.3002C18.5329 27.2842 18.6056 27.3002 18.6738 27.2774C18.6011 27.2501 18.6238 27.2547 18.7625 27.2342C18.8353 27.1932 18.7625 27.1932 18.7966 27.1659C18.9762 27.1887 19.0035 27.1204 19.149 27.0772C19.2172 27.0772 19.1672 27.1091 19.2513 27.1045C19.2331 27.0704 19.2968 27.0203 19.3968 27.0089C19.4582 27.0089 19.2899 27.0863 19.4082 27.0658C19.4194 27.0538 19.4332 27.0445 19.4486 27.0386C19.4639 27.0327 19.4804 27.0303 19.4968 27.0317C19.4968 27.0135 19.515 26.9907 19.5491 26.9634C19.6978 26.9216 19.85 26.8934 20.0038 26.8793C20.0038 26.7837 20.1493 26.8406 20.2311 26.7496C20.288 26.7678 20.1538 26.7951 20.1425 26.8406C20.2184 26.8011 20.2995 26.7728 20.3835 26.7564C20.4221 26.7291 20.4517 26.6654 20.4948 26.6654C20.463 26.6267 20.4948 26.6153 20.579 26.5311C20.4221 26.6222 20.3334 26.588 20.2152 26.6768C20.1197 26.6768 20.2539 26.6267 20.1697 26.6267C20.0925 26.6881 20.097 26.7177 20.1311 26.7336C20.0816 26.7599 20.0345 26.7903 19.9902 26.8247C19.9674 26.7609 19.8401 26.852 19.7628 26.8861C19.6946 26.8679 19.8469 26.8178 19.8515 26.7609C19.8014 26.7724 19.7575 26.8025 19.7287 26.8451C19.6522 26.8344 19.5742 26.8422 19.5014 26.8679C19.5014 26.8906 19.44 26.9407 19.3877 26.9907C19.3559 26.9703 19.3763 26.9248 19.2808 26.9248C19.2308 26.9748 19.1649 26.9589 19.1035 26.9816C19.124 26.9521 19.0626 26.9475 19.0694 26.9248C18.8408 27.0082 18.6037 27.0662 18.3624 27.0977C18.2396 27.1932 18.0987 27.1432 17.9691 27.216C17.7236 27.1591 17.403 27.3912 17.2302 27.2842C17.1848 27.3229 17.1393 27.307 17.0961 27.3411C17.0378 27.3233 16.9774 27.3133 16.9165 27.3115C17.0052 27.2729 17.0779 27.3002 17.112 27.2342C17.0779 27.2888 17.1688 27.2501 17.2461 27.2501C17.303 27.2046 17.212 27.2274 17.1575 27.2274C17.2542 27.1842 17.3585 27.161 17.4644 27.1591C17.5099 27.1705 17.3689 27.2114 17.3371 27.2001C17.3757 27.2501 17.5985 27.15 17.7122 27.1386C17.6554 27.1159 17.6122 27.1659 17.5553 27.1386C17.7101 27.1029 17.8621 27.0557 18.01 26.9976C18.0828 26.9976 17.8736 27.0726 17.9986 27.0658L18.0828 27.0089C18.2722 26.9916 18.4559 26.9342 18.6216 26.8406C18.5079 26.9316 18.7102 26.8588 18.8216 26.8292C18.8216 26.8019 18.8785 26.7678 18.7943 26.7905C18.9239 26.679 18.9739 26.7791 19.0853 26.6836C19.1581 26.6836 19.1308 26.7291 19.1308 26.7632C19.1605 26.7546 19.1879 26.7396 19.2111 26.7191C19.2343 26.6987 19.2527 26.6733 19.2649 26.6449C19.3445 26.588 19.5355 26.6176 19.5355 26.538C19.5673 26.538 19.7037 26.5038 19.7037 26.538C19.8477 26.4309 20.014 26.3578 20.1902 26.3241C20.1244 26.3581 20.067 26.4063 20.022 26.4652L20.2493 26.431C20.3062 26.3992 20.1652 26.3924 20.2493 26.381C20.2721 26.315 20.1538 26.4197 20.1266 26.431C20.0856 26.3764 20.3152 26.2422 20.4448 26.2513C20.579 26.1899 20.6722 26.0101 20.8313 26.0056L20.8995 25.9259C20.9723 25.91 20.8995 25.9669 20.9223 25.9828C21.0064 25.9555 21.0564 25.8418 21.1496 25.8372C21.2064 25.8486 21.0814 25.9032 21.07 25.9373C21.2395 25.7966 21.4361 25.6921 21.6475 25.6302C21.7205 25.5964 21.7833 25.5438 21.8293 25.4777C21.7725 25.4937 21.7543 25.4777 21.7884 25.4504C21.8839 25.4504 22.059 25.2525 22.2204 25.2229C22.2094 25.2487 22.1933 25.2719 22.1729 25.291C22.1526 25.3102 22.1285 25.325 22.1022 25.3344C22.2299 25.2881 22.3507 25.2245 22.4614 25.1456C22.5227 25.0432 22.4 25.1888 22.3431 25.166C22.3954 25.0932 22.4682 25.0773 22.5114 25.0045C22.4886 25.0045 22.4841 24.9863 22.5114 24.9476C22.45 24.9476 22.4432 24.9931 22.4204 24.9635C22.4455 24.9456 22.4671 24.9233 22.4841 24.8976C22.6114 24.8976 22.6296 24.8589 22.7637 24.802C22.7251 24.8862 22.6296 24.8703 22.5887 24.9544C22.6523 24.9544 22.6796 24.8976 22.741 24.9021C22.6841 24.9021 22.8365 24.7519 22.9092 24.6951C22.932 24.6951 22.9092 24.7292 22.8933 24.7565C22.9661 24.7565 22.9888 24.6837 23.0547 24.6723C23.0774 24.6336 22.9888 24.6837 22.9888 24.6564C23.0956 24.5267 23.2525 24.4766 23.3525 24.3538C23.3253 24.3083 23.273 24.4311 23.207 24.4493C23.1911 24.4493 23.1957 24.438 23.1775 24.438C23.273 24.3879 23.273 24.331 23.3594 24.2355C23.3184 24.1968 23.2525 24.281 23.2457 24.347C23.1502 24.3925 23.2843 24.2355 23.1775 24.3242C23.2116 24.2582 23.3253 24.1513 23.2116 24.1854C23.1616 24.2241 23.1616 24.2582 23.2116 24.2355C23.1957 24.2628 23.1616 24.2696 23.1343 24.281C23.0775 24.347 23.1116 24.3538 23.0843 24.4038C22.9696 24.4772 22.8656 24.566 22.7751 24.6678C22.5955 24.6837 22.5 24.8475 22.3545 24.9203C22.3249 24.852 22.5455 24.7519 22.5273 24.6928C22.3416 24.8181 22.164 24.9549 21.9953 25.1023C21.9559 25.0939 21.9148 25.0995 21.8791 25.1182C21.8434 25.1369 21.8153 25.1675 21.7998 25.2047C21.7316 25.2047 21.7361 25.1433 21.7998 25.075C21.7543 25.075 21.7361 25.1205 21.6975 25.1251C21.7475 25.1251 21.6634 25.2206 21.7202 25.2206C21.5793 25.2661 21.4792 25.3958 21.3451 25.4482C21.5065 25.3071 21.5975 25.207 21.6361 25.1842C21.5474 25.1547 21.3678 25.3685 21.2542 25.4595C21.2269 25.4186 21.0973 25.5028 21.0268 25.5483C21.0155 25.5665 21.0587 25.5596 21.0427 25.5824C21.0268 25.6051 21.0041 25.6051 20.9859 25.6211C20.9677 25.637 20.9973 25.5756 20.9473 25.5869C20.7858 25.6711 20.6381 25.7963 20.4698 25.8804C20.4585 25.8804 20.4698 25.8577 20.4426 25.8577C20.571 25.7801 20.6927 25.6918 20.8063 25.5938C20.6608 25.6279 20.538 25.728 20.3857 25.7667C20.3516 25.8236 20.4539 25.7508 20.4812 25.7667C20.4564 25.7962 20.4263 25.8209 20.3925 25.8395C20.2902 25.8577 20.3357 25.7849 20.247 25.8236C20.2129 25.8577 20.247 25.8622 20.2016 25.8964C20.2243 25.8964 20.2402 25.8736 20.2584 25.8622C20.313 25.8622 20.3243 25.935 20.3516 25.8622C20.488 25.8622 20.3516 25.9419 20.2743 25.9692C20.363 25.8964 20.1447 25.9919 20.2061 25.9123C20.1516 25.9237 20.1175 26.0147 20.0606 26.0261C20.0038 26.0374 20.1288 25.9305 20.1788 25.8964C20.2289 25.8622 20.1106 25.8736 20.1561 25.8236C20.072 25.8349 20.0174 25.9077 19.9288 25.9077C19.9288 25.8691 20.0038 25.8509 20.0243 25.7894C19.9356 25.7667 19.8856 25.8691 19.7969 25.8509C19.7674 25.8964 19.8856 25.8304 19.931 25.8509C19.8725 25.8791 19.8106 25.8998 19.7469 25.9123C19.8469 25.9123 19.8083 25.9578 19.7969 26.0079C19.7763 26.0161 19.7571 26.0277 19.7401 26.042C19.6446 26.0579 19.7787 25.9851 19.6855 26.001C19.6173 26.1034 19.124 26.2285 19.1399 26.1421C19.0967 26.1921 19.0217 26.199 19.033 26.2376C18.9216 26.249 18.983 26.199 18.9103 26.1921C19.0171 26.1648 19.1058 26.092 19.2126 26.0738C19.0629 26.0851 18.9165 26.1236 18.7807 26.1876C18.7375 26.1876 18.8034 26.1421 18.7261 26.1489C18.6401 26.2182 18.5318 26.2538 18.4215 26.249C18.4215 26.2991 18.3328 26.3173 18.3988 26.356C18.3328 26.3264 18.2646 26.4106 18.1487 26.3946C18.2214 26.4515 17.9804 26.4674 17.9895 26.5129C17.8327 26.5243 18.0691 26.4333 17.9577 26.4333C17.9336 26.458 17.9045 26.4772 17.8723 26.4898C17.8402 26.5023 17.8058 26.5079 17.7713 26.5061C17.7599 26.4834 17.7713 26.4561 17.7895 26.4333C17.9845 26.39 18.1754 26.3299 18.3601 26.2536C18.3055 26.2308 18.2646 26.2991 18.2101 26.265C17.9577 26.4401 17.6644 26.3332 17.4075 26.4743C17.1325 26.4288 16.6505 26.6017 16.5209 26.5061C16.4368 26.5061 16.3527 26.5175 16.2686 26.5061C16.2231 26.5835 16.0776 26.5516 15.9776 26.5676C15.9776 26.5516 16.0003 26.5334 15.9548 26.5221C15.9435 26.5721 15.798 26.5835 15.8093 26.5403C15.582 26.6131 15.3547 26.5403 15.1137 26.5676C15.1751 26.5903 15.0568 26.6062 15.0227 26.6244C14.9841 26.6017 15.1137 26.5789 15.0909 26.5562C14.8953 26.5365 14.6984 26.5327 14.5021 26.5448C14.5203 26.472 14.2748 26.4492 14.2339 26.4947C14.1998 26.4606 14.1543 26.4765 14.1156 26.4492C13.9929 26.5516 13.5928 26.3719 13.3404 26.4037C13.1835 26.2695 12.8084 26.3833 12.6902 26.2536C12.7526 26.2694 12.8168 26.277 12.8812 26.2763C12.8471 26.2149 12.6243 26.2581 12.472 26.1967C12.4106 26.1694 12.2037 26.0511 12.1741 26.1011C12.1241 26.1125 12.1014 26.0511 12.0673 26.0352C11.9172 26.0352 11.7877 25.9623 11.6308 25.9623C11.4035 25.8713 11.1261 25.7599 10.8851 25.6643C9.29098 24.9817 7.85633 23.9744 6.67248 22.7065C5.51606 21.4441 4.63429 19.955 4.08306 18.3336C3.79275 17.5048 3.60419 16.6438 3.52152 15.7694C3.27547 13.2234 3.86785 10.6666 5.2084 8.48878C5.25386 8.45466 5.24932 8.51154 5.24932 8.55021C5.09323 8.75317 4.95768 8.97115 4.84465 9.20092C4.75081 9.43704 4.6383 9.66528 4.50819 9.88348C4.52637 9.94036 4.50818 9.95629 4.48545 10.0359C4.45817 10.0359 4.48545 10.0063 4.48545 9.97449C4.43089 10.0359 4.45817 10.136 4.3786 10.1815C4.3786 10.2475 4.43089 10.1929 4.43089 10.2543C4.2641 10.4857 4.15923 10.7559 4.12625 11.0393C4.01829 11.2402 3.95545 11.4623 3.9421 11.69C3.92619 11.7127 3.91482 11.7196 3.908 11.7014C3.87854 11.8972 3.83369 12.0905 3.77387 12.2793C3.73481 12.4408 3.71949 12.6071 3.7284 12.773C3.6943 12.8253 3.6943 12.773 3.67839 12.8458C3.67839 12.8686 3.70567 12.8299 3.72386 12.8185C3.66682 13.022 3.63101 13.231 3.617 13.4419C3.62431 13.6585 3.60754 13.8752 3.56699 14.0881C3.62155 14.1313 3.56699 14.3565 3.54426 14.468C3.52607 14.6546 3.61018 14.7888 3.56017 14.873C3.60775 15.0287 3.60775 15.1951 3.56017 15.3508C3.5829 15.4464 3.59882 15.3053 3.62155 15.3963C3.64429 15.4122 3.59427 15.5192 3.5829 15.4737C3.63292 15.5738 3.59882 15.6693 3.62837 15.7717H3.66247C3.64429 15.7103 3.62155 15.5851 3.66247 15.5965C3.66247 15.658 3.6943 15.7148 3.66247 15.7717H3.88982C3.8575 15.4542 3.84232 15.1352 3.84435 14.8161C3.84199 13.1798 4.19303 11.5623 4.87344 10.0743C5.55384 8.5864 6.54753 7.26321 7.78645 6.19538C7.85437 6.12805 7.9257 6.06426 8.00015 6.00426C8.11278 5.90504 8.23039 5.81164 8.35253 5.72441C8.35253 5.72441 8.35253 5.72441 8.35253 5.72441C8.4654 5.62538 8.58546 5.53489 8.71173 5.45366C8.85041 5.34673 8.99136 5.24662 9.13686 5.15561C9.32328 5.03275 9.51197 4.91444 9.70976 4.80978C9.72859 4.79314 9.75124 4.78141 9.77569 4.77565C9.97632 4.65842 10.1827 4.55135 10.3941 4.45485L10.4373 4.40479C10.8419 4.26373 11.2284 4.02939 11.649 3.94975C11.7217 3.92018 11.7672 3.84282 11.8013 3.89742C11.9037 3.83344 12.0216 3.79882 12.1423 3.79731L12.2105 3.74726C12.3613 3.72199 12.5081 3.67685 12.647 3.61302C13.013 3.58345 13.3722 3.51064 13.736 3.44466C14.1007 3.40657 14.4678 3.39668 14.834 3.41508C14.8614 3.40215 14.8895 3.39076 14.9182 3.38095C14.9528 3.39408 14.9886 3.40398 15.025 3.41053V3.41053C15.0978 3.41053 15.1751 3.41053 15.2524 3.41053H15.2819C15.2931 3.41342 15.3048 3.41342 15.316 3.41053C15.3274 3.41053 15.3274 3.41053 15.3319 3.41053C15.3675 3.40714 15.4032 3.40714 15.4388 3.41053C15.557 3.41053 15.6661 3.41053 15.7911 3.41053C15.9038 3.40372 16.0169 3.41137 16.1276 3.43328C16.2798 3.43664 16.4317 3.44956 16.5823 3.47196C16.5874 3.47004 16.5931 3.47004 16.5982 3.47196C16.6458 3.47212 16.6931 3.47824 16.7392 3.49016C16.7937 3.49016 16.8506 3.49016 16.9074 3.50609L17.1211 3.54022H17.1416C17.2666 3.55614 17.3825 3.57434 17.5076 3.58572L17.5417 3.61302C17.5522 3.61523 17.563 3.61523 17.5735 3.61302C17.5735 3.61302 17.5735 3.61302 17.5621 3.61302C17.6862 3.61329 17.81 3.62241 17.9327 3.64033C17.9327 3.68583 18.0896 3.70176 17.9895 3.71313C18.0023 3.71559 18.0154 3.71559 18.0282 3.71313C18.055 3.70657 18.083 3.70688 18.1096 3.71404C18.1362 3.7212 18.1606 3.73497 18.1805 3.75409C18.2874 3.74271 18.1396 3.71313 18.1191 3.69721C18.276 3.68128 18.3874 3.78139 18.5397 3.77684C18.5556 3.79731 18.5102 3.79276 18.4874 3.79731C18.5215 3.82007 18.5715 3.79731 18.5943 3.85875C18.5784 3.79731 18.667 3.85875 18.7511 3.85875C18.9124 3.94324 19.087 3.99942 19.2672 4.02483C19.4367 4.05772 19.5939 4.13641 19.7219 4.25235C19.8174 4.20685 20.0083 4.31379 20.1334 4.35246C20.0993 4.40934 19.9697 4.29558 19.8901 4.29558C19.9083 4.32516 19.9424 4.32971 19.9583 4.36384C19.9083 4.35246 19.8515 4.34791 19.8015 4.33654C19.881 4.37067 19.9583 4.40934 20.0288 4.44802C20.1129 4.48215 20.1902 4.52311 20.2743 4.56633C20.2743 4.56633 20.3198 4.56633 20.3312 4.54358C20.3971 4.56633 20.3698 4.59591 20.3812 4.62321C20.3938 4.62337 20.4063 4.6263 20.4177 4.6318C20.4291 4.63731 20.4391 4.64525 20.4471 4.65507C20.4503 4.65248 20.4543 4.65107 20.4585 4.65107C20.4626 4.65107 20.4666 4.65248 20.4698 4.65507C22.3286 5.61613 23.8871 7.07071 24.9746 8.8594C26.0622 10.6481 26.6367 12.7019 26.6353 14.7956C26.6367 15.2238 26.6117 15.6516 26.5603 16.0766C26.6558 16.3178 26.7513 16.5749 26.8422 16.8797C26.9657 16.9522 27.0789 17.0409 27.1787 17.1437C27.2333 17.2096 27.2946 17.3712 27.3469 17.4167C27.5538 17.5805 27.7266 17.3735 27.9244 17.7034H27.9357C27.9698 17.7034 27.963 17.6488 27.9926 17.6192C28.3177 17.5646 28.5677 17.3735 28.8383 17.3917C28.9451 17.1346 29.1247 17.1505 29.2361 16.9548C29.3089 16.8365 29.3589 16.6181 29.4271 16.4702C29.4509 16.4192 29.4714 16.3668 29.4885 16.3132C29.5315 16.2064 29.584 16.1036 29.6453 16.0061C29.7477 16.0061 29.7477 15.8081 29.8249 15.7649C29.8349 15.7096 29.8478 15.6549 29.8636 15.6011V15.6011C29.8636 15.5556 29.8636 15.5169 29.8636 15.4714C29.848 15.4198 29.8351 15.3674 29.8249 15.3144C29.9022 15.0869 29.7727 14.8594 29.7067 14.6182C29.7128 14.6056 29.7182 14.5927 29.7226 14.5795C29.8136 14.6682 29.8295 14.8434 29.8795 14.9595L30 15.005ZM0.256895 13.765C0.218247 13.8901 0.222794 13.9447 0.256895 13.9925C0.20006 14.0653 0.206881 13.9197 0.195514 13.8241C0.211428 13.79 0.234162 13.7218 0.245529 13.7559L0.256895 13.765ZM0.150045 13.6558L0.111397 13.5147C0.134131 13.4533 0.156866 13.4305 0.17278 13.476C0.188694 13.5215 0.138678 13.5375 0.145499 13.5761C0.152319 13.6148 0.161412 13.633 0.145499 13.6558H0.150045ZM0.20688 14.6887C0.170534 14.56 0.170534 14.4238 0.20688 14.2951C0.219207 14.426 0.219207 14.5578 0.20688 14.6887V14.6887ZM0.275083 14.8798C0.236435 14.8161 0.218248 14.5204 0.275083 14.4703C0.209154 14.3907 0.275083 14.3452 0.275083 14.261C0.225068 14.3224 0.197787 14.1882 0.168232 14.1381C0.220521 14.0198 0.240982 14.3065 0.293271 14.1836C0.293271 14.154 0.263716 14.1654 0.252349 14.0994C0.240982 14.0335 0.297817 13.9015 0.316005 13.9538C0.275083 14.0994 0.416035 14.666 0.281903 14.5204C0.263716 14.6273 0.325098 14.8685 0.259169 14.8798H0.275083ZM0.325099 15.1938C0.295576 15.1122 0.295576 15.0229 0.325099 14.9413C0.35008 15.0236 0.35008 15.1115 0.325099 15.1938ZM0.341012 13.3645C0.386481 13.3122 0.329645 13.2394 0.38648 13.1894C0.402394 13.269 0.386481 13.4487 0.341012 13.3645ZM0.475143 12.6297C0.466205 12.5663 0.460891 12.5025 0.459229 12.4385C0.475143 12.459 0.497878 12.3316 0.509245 12.3202C0.520612 12.3089 0.475144 12.3089 0.463777 12.2793C0.481964 12.145 0.538799 12.1177 0.55926 12.2292C0.540421 12.3645 0.512315 12.4983 0.475143 12.6297V12.6297ZM0.627463 11.7969C0.627463 11.781 0.627463 11.7628 0.609276 11.7969C0.599838 11.7157 0.622701 11.634 0.672931 11.5694C0.674026 11.6476 0.658529 11.7252 0.627463 11.7969ZM1.99151 7.84035C2.02561 7.92453 1.94604 8.06787 1.88011 8.16571C1.88503 8.04876 1.92372 7.93574 1.99151 7.84035V7.84035ZM2.04153 7.97004C2.02012 8.10801 1.96201 8.23768 1.87329 8.34545C1.92089 8.21667 1.97709 8.09125 2.04153 7.97004V7.97004ZM1.86875 8.40233C1.83919 8.43646 1.82783 8.47513 1.80055 8.50926C1.80055 8.47968 1.77326 8.50926 1.76644 8.49106C1.77584 8.48152 1.78312 8.4701 1.78782 8.45756C1.79252 8.44502 1.79453 8.43163 1.79373 8.41825C1.83919 8.3682 1.86875 8.35682 1.86875 8.40233V8.40233ZM1.77781 8.43645C1.72098 8.50244 1.71188 8.59799 1.64368 8.66397C1.65505 8.59117 1.74371 8.4046 1.77781 8.43645ZM1.55047 8.72313C1.56184 8.80504 1.50045 8.85054 1.47772 8.91197C1.47772 8.91197 1.51637 8.88012 1.51182 8.91197C1.50728 8.94383 1.4709 8.93928 1.45499 8.93928C1.47276 8.8632 1.50519 8.79133 1.55047 8.72768V8.72313ZM1.47772 17.8285C1.45044 17.9514 1.3936 17.8285 1.42771 18.031C1.3936 17.9172 1.33222 17.7102 1.37087 17.6647C1.32085 17.5873 1.33222 17.4121 1.27084 17.4076L1.29357 17.3052C1.33677 17.3666 1.32085 17.4303 1.3595 17.4235C1.3595 17.5646 1.38224 17.6374 1.45044 17.651C1.45044 17.758 1.41634 17.6738 1.40497 17.7079L1.47772 17.8285ZM1.51182 20.1469C1.46635 20.0718 1.43225 20.1742 1.40497 20.0445C1.43907 20.0787 1.40497 19.9672 1.44362 19.9831C1.46537 20.0045 1.48262 20.03 1.49434 20.0581C1.50605 20.0862 1.512 20.1164 1.51182 20.1469ZM1.29812 19.883C1.27429 19.8623 1.25569 19.8363 1.24384 19.807C1.23199 19.7777 1.22722 19.7461 1.22992 19.7146C1.25223 19.7365 1.2698 19.7627 1.28154 19.7917C1.29327 19.8207 1.29892 19.8518 1.29812 19.883ZM1.40497 17.3962C1.38224 17.3666 1.37087 17.3962 1.35496 17.378C1.3254 17.221 1.40497 17.262 1.31403 17.1505C1.34814 17.0117 1.43225 17.3029 1.40497 17.378V17.3962ZM1.34814 16.2654C1.38596 16.3349 1.40031 16.4147 1.38906 16.493C1.36696 16.4599 1.35191 16.4226 1.34487 16.3835C1.33783 16.3443 1.33894 16.3041 1.34814 16.2654V16.2654ZM1.40042 9.26918C1.40042 9.37156 1.36178 9.52855 1.31176 9.4967C1.33017 9.41697 1.36003 9.34033 1.40042 9.26918V9.26918ZM1.11397 9.69692C1.17763 9.60136 1.17081 9.66734 1.16626 9.75152C1.14353 9.7811 1.11397 9.80385 1.10943 9.83798C1.13216 9.81978 1.12534 9.85846 1.12534 9.90396L1.07078 9.96539C1.07078 9.81523 1.08669 9.84253 1.07078 9.78565C1.10488 9.74242 1.10943 9.78565 1.14353 9.7356C1.17763 9.68554 1.12534 9.71284 1.12534 9.69692H1.11397ZM0.727493 11.0165C0.772961 10.9142 0.807062 10.6571 0.857077 10.6502C0.831017 10.7237 0.814215 10.8001 0.807062 10.8777C0.834343 10.8459 0.834344 10.8004 0.868445 10.7663C0.868445 10.8391 0.845711 10.9506 0.868445 10.9619C0.825753 10.9974 0.771579 11.016 0.716127 11.0143L0.727493 11.0165ZM0.857077 10.5706C0.891178 10.425 0.879812 10.3909 0.907093 10.2839C0.907093 10.2998 0.92528 10.2998 0.941194 10.2839C0.942002 10.2484 0.955747 10.2144 0.979842 10.1884C0.950002 10.3228 0.908936 10.4544 0.857077 10.582V10.5706ZM0.99803 10.582C0.979842 10.5137 0.902546 10.6548 0.907093 10.5137C0.979842 10.4091 1.01394 10.4364 1.04123 10.4932C1.02192 10.5202 1.00732 10.5502 0.99803 10.582V10.582ZM0.99803 10.4182C0.99803 10.3294 0.952562 10.3749 0.952562 10.2839C1.0094 10.1952 1.03213 10.0928 1.08215 10.0041C1.08215 10.0382 1.12079 10.0041 1.13898 10.0041C1.11547 10.149 1.06782 10.289 0.99803 10.4182V10.4182ZM1.12761 14.9572C1.1799 14.823 1.26402 15.1984 1.1799 15.1847C1.20036 15.0778 1.13898 15.0892 1.12761 14.9572ZM1.31858 16.9503C1.31858 16.9889 1.34813 17.0276 1.31858 17.0731C1.23901 16.9889 1.27311 16.9321 1.19354 16.882C1.21628 16.7592 1.26857 16.882 1.31176 16.9503H1.31858ZM1.20491 20.1037C1.2231 20.1037 1.28448 20.1993 1.31176 20.1538C1.28138 20.0999 1.27016 20.0373 1.27993 19.9763C1.36515 20.0799 1.42439 20.2023 1.45271 20.3335C1.34586 20.1606 1.23901 20.3335 1.20491 20.106V20.1037ZM1.48681 20.6179C1.48681 20.5496 1.4027 20.4996 1.41861 20.4268C1.46863 20.4655 1.53683 20.6338 1.48681 20.6179ZM1.4368 20.3653C1.51864 20.4313 1.52546 20.5155 1.55956 20.5929C1.50536 20.525 1.46378 20.4479 1.4368 20.3653ZM1.55956 17.7102C1.60958 17.7489 1.63231 17.9059 1.58684 17.8785C1.58684 17.8217 1.53228 17.7716 1.55956 17.7102ZM1.60503 18.6089C1.65239 18.6701 1.68154 18.7434 1.68915 18.8205C1.64823 18.8205 1.57548 18.6931 1.60503 18.6089ZM1.83237 19.4098C1.83237 19.2596 1.70961 19.2755 1.69824 19.114C1.77554 19.2323 1.74371 19.1754 1.80509 19.2141C1.86648 19.2528 1.91194 19.4666 1.83237 19.4098ZM1.88239 19.4507C1.92331 19.2983 1.80964 19.18 1.79827 19.0457C1.88239 19.1072 1.92331 19.3779 1.97333 19.5281C1.93468 19.4666 1.93468 19.5281 1.88239 19.4507V19.4507ZM2.05062 19.4325C2.02334 19.4325 1.97333 19.3256 1.97333 19.2528C2.01573 19.3041 2.04256 19.3664 2.05062 19.4325ZM2.19157 20.6111C2.16884 20.4541 1.99606 20.2084 2.01879 20.1242C2.06199 20.2698 2.28706 20.5792 2.19157 20.6111ZM2.13019 20.1173C2.17967 20.1649 2.21439 20.2257 2.23022 20.2925C2.19612 20.2925 2.13019 20.1902 2.13019 20.1173ZM2.39845 7.37621C2.42801 7.35801 2.42801 7.37621 2.47802 7.33526C2.46008 7.44863 2.39999 7.55103 2.30979 7.62193C2.37799 7.51045 2.41664 7.39441 2.39845 7.37621ZM2.45984 21.2049C2.44392 21.0707 2.30297 20.9774 2.2916 20.8454C2.34389 20.9524 2.56214 21.2163 2.45984 21.2049ZM17.3621 29.746C17.4803 29.746 17.4576 29.7187 17.6258 29.7073C17.5835 29.751 17.5287 29.7804 17.4689 29.7915C17.5189 29.7415 17.3575 29.7915 17.3894 29.8074C17.3166 29.7961 17.3462 29.7756 17.3621 29.746ZM15.8366 29.8529C15.7411 29.8529 15.5002 29.8825 15.4933 29.837C15.608 29.8275 15.7234 29.8329 15.8366 29.8529V29.8529ZM15.3046 29.8529C15.2478 29.8689 15.0637 29.8302 15.0955 29.7961C15.1523 29.7961 15.3433 29.812 15.3046 29.8529ZM13.5086 29.5708C13.4609 29.5916 13.4095 29.6022 13.3575 29.6022C13.3054 29.6022 13.254 29.5916 13.2063 29.5708C13.3064 29.5539 13.4086 29.5539 13.5086 29.5708V29.5708ZM13.0153 29.5936C13.0449 29.6505 13.1108 29.6391 13.2063 29.6846C13.0267 29.6664 12.8584 29.7392 12.7811 29.6505C12.9312 29.6618 12.9312 29.6232 13.0085 29.5936H13.0153ZM12.7129 29.6618C12.6061 29.6163 12.6675 29.6004 12.5765 29.5594C12.6483 29.556 12.7201 29.5621 12.7902 29.5776C12.7334 29.6004 12.7902 29.6436 12.7129 29.6618V29.6618ZM12.7448 29.4343C12.7061 29.4502 12.5379 29.4229 12.5765 29.4616C12.6152 29.5003 12.8175 29.4889 12.7743 29.5344C12.6759 29.5332 12.5792 29.5082 12.4924 29.4616C12.5493 29.4616 12.5379 29.4343 12.4811 29.4116C12.5696 29.4013 12.6593 29.409 12.7448 29.4343V29.4343ZM12.5538 29.539C12.4765 29.5731 12.2969 29.4844 12.3265 29.4662C12.4059 29.4771 12.4828 29.5017 12.5538 29.539V29.539ZM11.433 29.1636C11.533 29.2022 11.5217 29.2591 11.6785 29.2546C11.7013 29.225 11.533 29.1931 11.624 29.1704C11.6606 29.1755 11.6958 29.188 11.7275 29.2072C11.7592 29.2264 11.7866 29.2518 11.8081 29.2819C11.6581 29.2819 11.3716 29.2432 11.3534 29.1704C11.4035 29.1977 11.3853 29.1704 11.4421 29.1704L11.433 29.1636ZM11.0443 29.0407C11.0939 29.0579 11.1395 29.085 11.1784 29.1203C11.1064 29.1258 11.0347 29.1057 10.9761 29.0635C11.0009 29.0651 11.0254 29.0569 11.0443 29.0407V29.0407ZM10.8647 28.936C10.7805 28.936 10.7305 28.8837 10.6691 28.861C10.7578 28.8337 10.8033 28.8905 10.8647 28.936ZM11.0056 29.2728C10.8708 29.2636 10.7401 29.2231 10.6237 29.1545C10.7536 29.1849 10.8812 29.2244 11.0056 29.2728V29.2728ZM10.1417 28.6312C10.1207 28.6448 10.0962 28.652 10.0712 28.652C10.0462 28.652 10.0217 28.6448 10.0008 28.6312C10.0235 28.6152 10.0508 28.5697 10.1417 28.6312ZM10.3304 28.8951C10.2804 28.9247 10.1576 28.8564 10.0735 28.8951C9.94392 28.8223 10.1917 28.8951 10.1303 28.845C10.069 28.795 9.97802 28.8268 9.92801 28.7654C10.0688 28.787 10.2049 28.8324 10.3304 28.8996V28.8951ZM9.55289 28.4787C9.65293 28.5515 9.56881 28.5925 9.47333 28.5584C9.43922 28.5083 9.45741 28.4787 9.55289 28.4787ZM9.23007 28.1534C9.2528 28.1807 9.29145 28.1807 9.31419 28.2103C9.26726 28.2137 9.22016 28.2137 9.17323 28.2103C9.11867 28.1556 9.17323 28.167 9.23007 28.1602V28.1534ZM9.19142 28.3877C9.19142 28.456 9.30282 28.4423 9.38694 28.5174C9.26417 28.4992 9.17323 28.4264 9.05729 28.4105C9.02858 28.3746 8.99203 28.3458 8.95044 28.3263C9.07775 28.3604 9.08457 28.4105 9.19142 28.3877ZM8.66854 28.0442C8.70264 28.0737 8.74129 28.0851 8.77084 28.1238C8.65944 28.0851 8.6799 28.1238 8.59579 28.0669C8.64126 28.0669 8.57987 28.0169 8.66854 28.0442ZM8.44119 27.9941C8.55487 28.1283 8.87314 28.1898 8.90725 28.2853C8.77311 28.2125 8.3639 28.0737 8.44119 27.9941ZM7.80236 27.6415C7.76826 27.6415 7.77963 27.6688 7.75235 27.6642C7.7228 27.6073 7.6455 27.6073 7.6114 27.5459C7.68116 27.5637 7.74629 27.5963 7.80236 27.6415V27.6415ZM6.87026 26.9839L6.70203 26.9452C6.67475 26.8611 6.56335 26.8611 6.5338 26.7814C6.65016 26.8417 6.76255 26.9093 6.87026 26.9839V26.9839ZM22.1931 27.6187C22.1704 27.646 22.1931 27.6528 22.1363 27.6961C22.0931 27.6961 22.059 27.7302 22.0135 27.7302C22.0336 27.6997 22.0601 27.674 22.0911 27.6547C22.1221 27.6355 22.1569 27.6232 22.1931 27.6187V27.6187ZM21.5884 27.8985C21.6497 27.9418 21.6816 27.853 21.7839 27.8303C21.8225 27.8803 21.452 28.0214 21.5884 27.8985ZM20.9427 28.0897C21.0314 28.0897 20.9586 28.1556 21.0814 28.101C20.9359 28.2353 20.8745 28.1329 20.729 28.1829C20.7904 28.1101 20.8859 28.167 20.9427 28.0897V28.0897ZM20.0902 28.258C20.1061 28.3013 20.1902 28.2398 20.2311 28.1829C20.3312 28.2057 20.1015 28.3581 19.9833 28.365C19.972 28.3308 20.0402 28.2785 20.0902 28.258ZM21.3292 27.4549C21.3678 27.4549 21.502 27.3593 21.4747 27.4253C21.4133 27.4481 21.2792 27.5391 21.3292 27.4549ZM21.1769 27.555C21.1223 27.5209 21.0996 27.5777 21.0086 27.6005C21.0427 27.5732 20.9473 27.6005 20.97 27.5664C21.0814 27.5209 21.0655 27.5664 21.1564 27.4822H21.2292C21.211 27.5095 21.2292 27.5209 21.1769 27.5595V27.555ZM21.2678 27.2956C21.1201 27.3734 20.9683 27.4433 20.8131 27.5049C20.9445 27.3976 21.1009 27.3256 21.2678 27.2956V27.2956ZM20.9313 27.5368C20.9045 27.5705 20.8696 27.597 20.8299 27.6137C20.7901 27.6304 20.7469 27.6368 20.704 27.6324C20.7813 27.5937 20.8495 27.5322 20.9313 27.5368ZM20.072 27.869H20.1516C20.1305 27.8905 20.1054 27.9076 20.0777 27.9193C20.05 27.931 20.0202 27.9371 19.9902 27.9372L20.072 27.869ZM16.6005 29.3228C16.5505 29.3228 16.4436 29.2955 16.5277 29.2614C16.5914 29.2773 16.6573 29.2955 16.6005 29.3228ZM17.4098 29.407C17.453 29.3797 17.3371 29.3797 17.4098 29.3501C17.5349 29.316 17.5394 29.407 17.4098 29.407ZM19.4559 28.4309C19.4832 28.4309 19.5332 28.4309 19.5105 28.4537C19.4877 28.4765 19.4673 28.5151 19.365 28.4969L19.4559 28.4309ZM19.0239 28.5993C19.124 28.5993 19.3377 28.4696 19.3718 28.5356H19.3195C19.2763 28.5811 19.3036 28.6039 19.3195 28.6312C19.2672 28.6312 19.224 28.6767 19.1672 28.6539C19.3513 28.5311 18.9808 28.6767 19.033 28.6039L19.0239 28.5993ZM18.9035 28.6266C18.8807 28.6425 18.9194 28.6471 18.9603 28.6471C18.8353 28.704 18.7079 28.6767 18.5829 28.7313C18.6819 28.6758 18.7908 28.6403 18.9035 28.6266V28.6266ZM18.6238 28.8155C18.5641 28.821 18.504 28.821 18.4442 28.8155C18.5102 28.7654 18.6898 28.7426 18.6238 28.8155ZM18.3965 28.7085C18.4761 28.7085 18.5488 28.6767 18.6238 28.6812C18.567 28.7313 18.3828 28.7609 18.3965 28.7085ZM19.4127 28.0646C19.34 28.0874 19.2786 28.1716 19.2058 28.1534C19.2672 28.1033 19.3331 28.0419 19.4127 28.0646ZM19.0308 28.1761H19.1103L19.0421 28.2262C19.0035 28.2603 19.1103 28.2489 19.0421 28.2808C18.9898 28.2535 18.9512 28.3331 18.8944 28.3035C18.9626 28.2535 18.9353 28.2262 19.0239 28.1693L19.0308 28.1761ZM18.4851 28.4173C18.5608 28.4114 18.6368 28.4114 18.7125 28.4173C18.6056 28.4446 18.5056 28.5015 18.3988 28.5402C18.4442 28.5129 18.426 28.5015 18.3715 28.5015L18.4851 28.4173ZM18.4851 28.9042C18.4351 28.9042 18.4351 28.8837 18.451 28.8655C18.6034 28.8268 18.6466 28.8314 18.5852 28.8837C18.6988 28.8382 19.0512 28.7131 19.1694 28.7813C19.0399 28.7813 19.0785 28.8155 18.9671 28.8314C18.983 28.8496 18.9285 28.8883 18.8989 28.9156C18.8349 28.9429 18.7677 28.962 18.6988 28.9724C18.6647 28.9497 18.6988 28.911 18.7148 28.8769C18.6116 28.9508 18.4924 28.9992 18.3669 29.0179C18.2371 28.9921 18.1035 28.9921 17.9736 29.0179C18.1365 28.9524 18.3097 28.9162 18.4851 28.911V28.9042ZM18.0191 28.8905C18.0441 28.8726 18.0732 28.8611 18.1038 28.8571C18.1343 28.8531 18.1654 28.8568 18.1942 28.8678L18.0987 28.9224C18.0418 28.9224 18.0691 28.8951 18.0191 28.8905V28.8905ZM17.935 28.4969C17.9804 28.5584 18.0987 28.4673 18.2101 28.4742C18.1532 28.5697 17.8736 28.5857 17.935 28.4969ZM18.0873 28.7882C18.0873 28.8223 18.0077 28.8678 17.9418 28.8769C17.8281 28.8769 17.9964 28.8268 17.885 28.8268C17.9468 28.7932 18.0175 28.7797 18.0873 28.7882V28.7882ZM17.9736 28.9793C17.9146 28.9924 17.8545 29.0001 17.794 29.002C17.7667 29.0339 17.9691 29.0179 17.8509 29.068C17.7326 29.1181 17.8509 29.0293 17.7213 29.0248L17.8463 28.9565C17.8736 28.9724 18.0259 28.9292 17.9736 28.9793V28.9793ZM17.5985 28.6767C17.6326 28.6266 17.6781 28.5925 17.8259 28.5925C17.6644 28.6198 17.7758 28.6585 17.5985 28.6767ZM17.5371 28.4969C17.5854 28.4562 17.6468 28.4344 17.7099 28.4355C17.6826 28.4582 17.6599 28.4742 17.7099 28.4742C17.8009 28.44 17.7395 28.4287 17.8054 28.4014C17.9191 28.4014 17.7599 28.4787 17.7395 28.5197C17.6485 28.5311 17.7054 28.4628 17.6372 28.4969C17.569 28.5311 17.6599 28.5402 17.6167 28.5697L17.5144 28.547C17.553 28.5242 17.6031 28.5015 17.5371 28.4969ZM17.6599 28.8769C17.6258 28.8996 17.6826 28.8996 17.6599 28.9178C17.5189 28.8996 17.3894 28.9724 17.2507 28.9611C17.3894 28.9611 17.5189 28.8564 17.6531 28.8769H17.6599ZM17.4507 28.3399C17.4507 28.3559 17.4507 28.3672 17.4848 28.3627C17.4235 28.44 17.2439 28.3741 17.4507 28.3399ZM17.3507 28.3399C17.2529 28.3799 17.1464 28.394 17.0415 28.3809C17.0881 28.3527 17.1402 28.3346 17.1943 28.328C17.2483 28.3213 17.3032 28.3262 17.3553 28.3422L17.3507 28.3399ZM17.0529 28.7973L16.9506 28.8473C16.9233 28.8246 16.8619 28.8086 16.8778 28.7859C16.9347 28.82 16.9915 28.77 17.0529 28.7973V28.7973ZM16.6982 29.2182C16.6437 29.2568 16.7937 29.2182 16.8278 29.2523C16.9301 29.184 17.0302 29.2409 17.137 29.2022C17.2191 29.2334 17.3086 29.239 17.3939 29.2182C17.4326 29.1954 17.3325 29.1954 17.3666 29.1727C17.594 29.1909 17.4667 29.2523 17.3666 29.3479C17.3052 29.3479 17.3507 29.3183 17.3393 29.3024C17.2939 29.3251 17.2507 29.3024 17.2098 29.3024C17.2552 29.3024 17.2825 29.3183 17.2893 29.3365C17.1938 29.3797 17.1256 29.3592 17.1597 29.4025C17.1005 29.4252 17.0349 29.4252 16.9756 29.4025C17.0074 29.3797 17.0825 29.3797 17.0529 29.3638C16.9676 29.3732 16.8818 29.377 16.796 29.3752C16.896 29.3296 16.7846 29.3638 16.7437 29.341C16.8005 29.2955 16.8619 29.341 16.9256 29.3114C16.8392 29.2682 16.7505 29.2955 16.6664 29.2796C16.6437 29.2796 16.5482 29.2113 16.6937 29.2113L16.6982 29.2182ZM16.6505 28.795C16.5637 28.8315 16.4685 28.8433 16.3754 28.8291C16.4659 28.8095 16.558 28.7981 16.6505 28.795V28.795ZM16.1322 28.415C16.048 28.4651 15.9707 28.415 15.8866 28.4696C15.8457 28.4537 15.8184 28.4423 15.8184 28.4264C15.9214 28.4003 16.0292 28.4003 16.1322 28.4264V28.415ZM15.9253 28.7062C15.8457 28.7449 15.6457 28.7222 15.6502 28.7062C15.7416 28.696 15.8339 28.696 15.9253 28.7062V28.7062ZM15.7843 28.9338C15.8184 28.9338 15.8525 28.9338 15.8866 28.9451C15.9207 28.9565 15.6957 29.0475 15.5774 29.0134C15.6457 28.9906 15.7184 28.9611 15.7843 28.9338V28.9338ZM15.7843 29.0862C15.9867 29.0179 15.9366 28.911 16.1435 28.9338C15.998 28.9724 15.8184 29.0976 16.0594 29.1203C16.0594 29.1522 15.9753 29.1476 15.9025 29.1636C15.8639 29.109 15.7184 29.1636 15.6002 29.1363C15.7229 29.0794 15.4933 29.1363 15.4547 29.0794C15.5661 29.0566 15.682 29.1021 15.7843 29.0794V29.0862ZM14.3043 28.3672C14.243 28.3945 14.1929 28.3672 14.1316 28.3991C14.0065 28.3445 14.2361 28.3331 14.3043 28.3672ZM13.7724 29.1795C13.6541 29.1181 13.5086 29.1909 13.395 29.1135C13.4132 29.0839 13.861 29.1135 13.7724 29.1795ZM13.0903 28.9952C13.129 29.027 13.1858 29.0111 13.229 29.0566C13.1624 29.0573 13.0964 29.0688 13.0335 29.0908C12.9607 29.027 12.8721 29.0339 12.8062 28.9884C12.9062 28.9724 12.9835 29.0407 13.0972 28.9884L13.0903 28.9952ZM12.8221 28.2125C12.7931 28.221 12.7624 28.2218 12.7329 28.2151C12.7035 28.2083 12.6763 28.1941 12.6538 28.1738C12.683 28.1673 12.7132 28.1674 12.7423 28.1741C12.7714 28.1808 12.7987 28.1939 12.8221 28.2125ZM11.9286 28.8359C12.0227 28.8256 12.1178 28.8439 12.2014 28.8883C12.1076 28.8929 12.0141 28.875 11.9286 28.8359V28.8359ZM12.2082 28.0214C12.1582 28.0396 12.2696 28.0396 12.2423 28.0737C12.1241 28.0897 11.9059 28.0055 11.9059 27.9486C11.9832 28.0282 12.1082 28.0009 12.2082 28.0214V28.0214ZM11.0079 28.5447C11.0647 28.5788 11.142 28.5675 11.192 28.6175C11.1306 28.6289 10.9647 28.5606 11.0079 28.5447ZM11.2489 28.6789C11.1488 28.6334 11.2102 28.5834 11.2989 28.6243C11.2216 28.6243 11.3603 28.6858 11.2489 28.6789ZM11.4898 28.3536C11.4604 28.357 11.4306 28.3536 11.4026 28.3438C11.3746 28.3339 11.3493 28.3178 11.3284 28.2967C11.358 28.2913 11.3884 28.2938 11.4167 28.3037C11.445 28.3137 11.4702 28.3309 11.4898 28.3536V28.3536ZM11.3944 28.4605C11.4239 28.4605 11.4171 28.4332 11.4671 28.4719C11.4671 28.4878 11.4239 28.4992 11.3512 28.4992C11.2375 28.4264 11.0875 28.4423 10.9624 28.3923C11.0693 28.349 11.2102 28.4218 11.3944 28.4605V28.4605ZM10.5987 28.1693C10.6259 28.2125 10.6487 28.2421 10.7601 28.2353C10.7942 28.2649 10.8169 28.2853 10.8124 28.3035C10.7412 28.3038 10.6706 28.2923 10.6032 28.2694C10.56 28.208 10.4918 28.1966 10.435 28.1625C10.5418 28.1852 10.4986 28.1625 10.5987 28.1625V28.1693ZM10.0712 28.1625C10.0242 28.1415 9.98225 28.1104 9.94847 28.0715C10.0326 28.0601 10.1553 28.1625 10.0712 28.1625ZM10.0099 27.2865C9.88798 27.2774 9.76942 27.2425 9.66202 27.1841C9.78358 27.195 9.90179 27.2298 10.0099 27.2865V27.2865ZM9.8348 28.0214C9.75504 28.0205 9.67681 27.9994 9.60746 27.96C9.68021 27.9873 9.78024 27.96 9.8348 28.0214ZM8.40255 27.3753C8.53213 27.398 8.47984 27.4253 8.55941 27.5004C8.46393 27.5004 8.38663 27.4048 8.40255 27.3753ZM8.67081 27.4253C8.63216 27.3753 8.53213 27.4253 8.5094 27.3593L8.64808 27.3753C8.66172 27.398 8.70036 27.4253 8.67081 27.4253ZM9.30509 27.7802C9.38466 27.7802 9.43468 27.8303 9.50288 27.8462C9.48015 27.8872 9.35511 27.8462 9.30509 27.7802ZM9.51879 27.762C9.44605 27.6961 9.32783 27.7074 9.26645 27.6164C9.3733 27.6164 9.54153 27.7234 9.51879 27.762ZM9.21643 27.5345C9.24826 27.5686 9.26644 27.5914 9.25962 27.6073C9.21576 27.6072 9.17249 27.5972 9.13309 27.5778C9.0937 27.5585 9.05922 27.5305 9.03228 27.4958C9.14368 27.4958 9.14368 27.5641 9.21188 27.5345H9.21643ZM9.17096 27.6528C9.13913 27.687 9.05502 27.6528 8.95953 27.6073C9.03683 27.6756 8.9709 27.6642 8.99136 27.6983C9.13231 27.7256 9.18233 27.7484 9.2187 27.7097C9.30282 27.7484 9.25735 27.7666 9.28009 27.8053C9.21866 27.7971 9.15838 27.7819 9.10049 27.7598C9.12777 27.7825 9.16187 27.7939 9.13459 27.8053C9.02713 27.7705 8.93278 27.7038 8.86405 27.6141C8.89133 27.6141 8.89133 27.5959 8.95499 27.6141C8.86839 27.5642 8.78556 27.5079 8.70718 27.4458C8.86816 27.495 9.02128 27.567 9.16187 27.6597L9.17096 27.6528ZM8.72992 26.5425C8.77084 26.588 8.78221 26.6108 8.72992 26.6108C8.65035 26.5539 8.52304 26.5607 8.4662 26.4583C8.55487 26.4765 8.62762 26.5198 8.7231 26.5425H8.72992ZM8.38663 27.0658C8.4321 27.1318 8.40937 27.1432 8.5776 27.2615C8.40482 27.2387 8.29797 27.0886 8.38663 27.0658ZM5.26523 23.5302C5.21522 23.4369 5.34935 23.4983 5.37208 23.5711C5.31525 23.5302 5.33798 23.587 5.26523 23.5302ZM17.935 27.646C17.9782 27.6619 17.8327 27.7302 17.7986 27.712C17.7645 27.6938 17.8668 27.6119 17.935 27.646ZM22.7523 24.7155C22.841 24.7269 22.841 24.6041 22.932 24.6154C22.8979 24.711 22.7342 24.8111 22.7046 24.777C22.7501 24.761 22.7228 24.7497 22.7455 24.7155H22.7523ZM20.0538 26.017C20.034 26.0419 20.0082 26.0613 19.9787 26.0733C19.9492 26.0852 19.9171 26.0893 19.8856 26.0852C19.9401 26.0625 19.9856 26.0056 20.0538 26.017ZM17.619 27.0954C17.5621 27.1341 17.3916 27.191 17.3916 27.1341C17.4644 27.1227 17.5303 27.0795 17.619 27.0954ZM17.1757 26.5334C17.1451 26.5525 17.1111 26.5653 17.0756 26.5712C17.0401 26.577 17.0038 26.5758 16.9688 26.5676C16.9688 26.5289 17.1029 26.5061 17.1757 26.5334ZM15.4865 27.8985C15.5615 27.8985 15.7502 27.8826 15.7389 27.9213C15.6729 27.9213 15.4774 27.9441 15.4865 27.8985ZM17.5803 27.7302L17.4962 27.6983C17.5358 27.6678 17.585 27.6525 17.6349 27.6551C17.5349 27.6938 17.6917 27.6824 17.5917 27.7211L17.5803 27.7302ZM17.619 27.4799C17.6644 27.5186 17.4962 27.5527 17.5803 27.5709C17.538 27.5932 17.4916 27.6063 17.4439 27.6096C17.5462 27.5641 17.4667 27.4867 17.619 27.4799V27.4799ZM17.4621 27.5595C17.4352 27.5741 17.4051 27.5817 17.3746 27.5817C17.344 27.5817 17.3139 27.5741 17.2871 27.5595C17.3449 27.5482 17.4043 27.5482 17.4621 27.5595ZM16.8005 27.5595C16.8892 27.6255 16.8778 27.5413 16.9347 27.5982C17.0529 27.5709 17.2825 27.4913 17.3212 27.53C17.3052 27.53 17.1825 27.5527 17.2325 27.5641C17.2484 27.5641 17.2598 27.5641 17.2757 27.5641C17.2052 27.6028 17.0802 27.6073 17.0756 27.6597C16.9301 27.6415 16.7505 27.7529 16.6596 27.6597C16.6596 27.7211 16.4914 27.737 16.4072 27.7143C16.6346 27.6801 16.5937 27.6187 16.8005 27.5527V27.5595ZM16.6209 26.6199C16.5368 26.604 16.4527 26.654 16.3686 26.6199C16.4345 26.5858 16.6209 26.5858 16.6209 26.6199ZM15.7957 27.5914C15.8525 27.5914 15.8753 27.5914 15.8866 27.6255C16.0435 27.5686 16.2049 27.6255 16.3618 27.5686C16.4345 27.5846 16.3618 27.6528 16.48 27.5846C16.5596 27.6028 16.5641 27.6801 16.43 27.6642C16.4573 27.6528 16.48 27.6369 16.43 27.6255C16.4141 27.7416 16.139 27.7325 15.9889 27.7643L15.8753 27.7211C15.7798 27.7325 15.6843 27.7939 15.5956 27.7552C15.6411 27.6915 15.8525 27.6688 15.9707 27.6801C15.948 27.6801 15.9821 27.6642 16.0162 27.6597C15.9366 27.6597 15.8639 27.6255 15.7889 27.6301C15.7389 27.6651 15.6818 27.6887 15.6218 27.6993C15.5617 27.7099 15.5 27.7073 15.441 27.6915C15.6252 27.6915 15.582 27.6483 15.6547 27.6187C15.6547 27.6688 15.7434 27.6187 15.7934 27.5914H15.7957ZM15.5411 26.5926C15.4638 26.6313 15.3842 26.5926 15.3137 26.5926C15.3871 26.5658 15.4677 26.5658 15.5411 26.5926V26.5926ZM15.166 27.6915C15.1924 27.7116 15.2248 27.7225 15.258 27.7225C15.2913 27.7225 15.3236 27.7116 15.3501 27.6915L15.4183 27.7211C15.3035 27.7418 15.1864 27.7456 15.0705 27.7325L15.166 27.6915ZM14.684 27.6642C14.7219 27.6518 14.7622 27.6485 14.8017 27.6544C14.8412 27.6603 14.8787 27.6754 14.9113 27.6983C14.8341 27.7003 14.7572 27.6888 14.684 27.6642V27.6642ZM14.8863 26.5971C14.8863 26.6381 14.7567 26.6381 14.6954 26.6153C14.6954 26.563 14.8227 26.5858 14.8863 26.5971ZM14.2043 27.6187C14.2919 27.6531 14.388 27.6595 14.4794 27.6369C14.4453 27.6028 14.4407 27.5732 14.5362 27.5459C14.6049 27.559 14.672 27.5796 14.7363 27.6073C14.6635 27.6369 14.5976 27.6073 14.5249 27.6415C14.559 27.6801 14.7363 27.6756 14.7522 27.7143C14.7159 27.7029 14.6771 27.7029 14.6408 27.7143L14.5271 27.6597C14.4045 27.6679 14.2815 27.6679 14.1588 27.6597C14.2089 27.6597 14.1293 27.621 14.2134 27.6096L14.2043 27.6187ZM14.1247 27.6096C14.0565 27.6437 13.8838 27.6551 13.911 27.6096C14.0065 27.6392 14.0065 27.5755 14.1247 27.6096ZM12.547 27.4117C12.5293 27.419 12.5104 27.4227 12.4913 27.4227C12.4722 27.4227 12.4532 27.419 12.4356 27.4117C12.5119 27.3949 12.5915 27.4029 12.6629 27.4344C12.6228 27.4457 12.5803 27.4457 12.5402 27.4344C12.5561 27.4344 12.5674 27.4344 12.5402 27.4162L12.547 27.4117ZM13.5905 26.4674C13.5291 26.447 13.4609 26.4674 13.4041 26.4242C13.4677 26.3742 13.6746 26.4902 13.5905 26.4674ZM13.4041 27.5459C13.3 27.5297 13.1974 27.5054 13.0972 27.4731C13.1972 27.4503 13.4723 27.4845 13.4041 27.5459ZM13.0744 27.4617C13.0017 27.4617 12.9335 27.4617 12.8653 27.4617C12.8972 27.4438 12.9332 27.4344 12.9698 27.4344C13.0065 27.4344 13.0425 27.4438 13.0744 27.4617V27.4617ZM12.5515 27.6255C12.6197 27.6688 12.7152 27.6141 12.7789 27.6642C12.7039 27.6801 12.5197 27.6642 12.5515 27.6255ZM12.7652 27.398L12.6879 27.4139C12.6356 27.3821 12.5811 27.3821 12.6356 27.3525C12.6766 27.3821 12.7311 27.3525 12.7652 27.398V27.398ZM12.722 26.2604C12.6652 26.3173 12.4947 26.2399 12.3947 26.183C12.5129 26.1944 12.6038 26.2604 12.722 26.2604ZM11.5421 27.3661C11.3785 27.3545 11.2194 27.3071 11.0761 27.2274C11.2784 27.282 11.3694 27.3115 11.5421 27.3661ZM11.0215 26.8497C10.9488 26.8497 10.9988 26.8838 10.9192 26.8497C10.8374 26.7814 10.9715 26.7814 11.0215 26.8497ZM10.1122 26.811C10.1758 26.8451 10.1758 26.8952 10.2872 26.9293C10.2076 26.9452 10.169 26.8906 10.0962 26.8952C10.0235 26.8383 10.0053 26.7996 10.1122 26.811V26.811ZM8.33434 25.9692C8.42265 25.9982 8.5013 26.0509 8.56169 26.1216C8.47596 26.0875 8.39846 26.0356 8.33434 25.9692V25.9692ZM8.28433 25.4755L8.31161 25.5141C8.3298 25.5141 8.34571 25.5141 8.35253 25.5369C8.30765 25.5414 8.26235 25.5351 8.22042 25.5185C8.17848 25.5018 8.14115 25.4754 8.11155 25.4413C8.18885 25.4413 8.2616 25.5096 8.28433 25.4755V25.4755ZM3.49424 23.4892C3.46696 23.4892 3.2669 23.2753 3.29873 23.248C3.37148 23.3254 3.42831 23.4096 3.49424 23.4892ZM3.41467 22.9204C3.47329 22.9664 3.52398 23.0218 3.56472 23.0842C3.56472 23.0842 3.67839 23.2526 3.5829 23.1957C3.53289 23.1001 3.46923 23.0114 3.41467 22.9204ZM3.31237 22.6633C3.33055 22.6064 3.17369 22.4995 3.23962 22.5063C3.28509 22.5609 3.41467 22.6952 3.31237 22.6633ZM3.15096 6.02019C3.13504 6.08845 3.20097 5.95876 3.23962 5.96558C3.23962 6.02702 3.10549 6.1385 3.11231 6.08844C3.1555 6.05432 3.11231 6.05432 3.15096 6.02019V6.02019ZM2.98272 21.6031C2.95544 21.5075 2.79176 21.3323 2.84177 21.2936C2.89179 21.3778 3.02137 21.5689 2.98272 21.6031ZM2.92589 19.6259C2.84177 19.5076 2.84177 19.5144 2.78721 19.519C2.79547 19.4957 2.79545 19.4704 2.78717 19.4472C2.77888 19.4239 2.76283 19.4043 2.74174 19.3916C2.76902 19.2892 2.91452 19.4962 2.92589 19.6191V19.6259ZM2.85314 21.6235C2.85314 21.578 2.80312 21.5667 2.79176 21.5735C2.76447 21.437 2.65762 21.346 2.63489 21.2072C2.73655 21.3302 2.81373 21.4715 2.86223 21.6235H2.85314ZM2.6599 21.396V21.4461C2.59169 21.4233 2.61443 21.4916 2.6599 21.6053C2.5485 21.4961 2.57578 21.4574 2.57123 21.3505C2.60533 21.3846 2.63262 21.4028 2.64853 21.396H2.6599ZM2.64853 22.9113C2.67126 22.9113 2.70082 22.9295 2.7622 22.9727C2.7622 23.0524 2.83495 23.0865 2.84632 23.1593L2.80085 23.1252C2.80085 23.0455 2.70991 23.0251 2.64853 22.9113ZM2.89633 23.4892C2.82358 23.3663 2.70082 23.2753 2.66899 23.1365C2.75765 23.2435 2.78721 23.1752 2.85996 23.2708C2.93271 23.3663 2.78039 23.3095 2.85996 23.3936C2.89861 23.4118 2.88269 23.3504 2.96226 23.4232C2.98272 23.5006 2.93271 23.4847 2.90543 23.4892H2.89633ZM2.86678 23.2094C2.94174 23.2598 3.00148 23.3299 3.03956 23.4118C2.96845 23.3572 2.90959 23.2882 2.86678 23.2094V23.2094ZM3.05774 22.4062C3.05774 22.2151 2.8304 22.0035 2.75993 21.7782C2.85996 21.9011 2.98727 22.115 3.08957 22.2765C3.08957 22.2378 3.08957 22.1764 3.13959 22.2265C3.08503 22.2879 3.17369 22.3288 3.21461 22.4676C3.13504 22.4062 3.09639 22.3402 3.05774 22.4062ZM3.13504 23.6303C3.16914 23.653 3.13504 23.562 3.15778 23.5848C3.18051 23.6462 3.25326 23.6871 3.26463 23.76C3.20697 23.7341 3.16084 23.688 3.13504 23.6303V23.6303ZM3.47833 24.1194C3.42149 24.0011 3.32601 23.9056 3.26917 23.7873C3.38739 23.8987 3.44877 24.0466 3.55562 24.1627L3.47833 24.1194ZM3.57154 24.215C3.58094 24.2227 3.59197 24.2281 3.60379 24.2309C3.61561 24.2336 3.62791 24.2336 3.63974 24.2309C3.66247 24.2923 3.80343 24.4334 3.75114 24.438C3.71249 24.3492 3.60109 24.3106 3.57154 24.2104V24.215ZM3.73522 24.2264C3.75796 24.2104 3.86935 24.265 3.89664 24.3379C3.84662 24.2992 3.75796 24.2833 3.73522 24.2264ZM3.67839 24.4539C3.75114 24.4744 3.76932 24.5381 3.84207 24.5654C3.81479 24.4971 3.7625 24.4584 3.84207 24.4744C3.88072 24.5426 4.03759 24.7019 3.98757 24.7224C3.86787 24.6586 3.76561 24.5664 3.68975 24.4539H3.67839ZM4.23992 25.025C4.18309 24.8953 4.04441 24.8748 3.98757 24.8179C3.95347 24.7064 4.05577 24.8338 4.13307 24.8407C4.13307 24.9021 4.20582 24.918 4.25129 24.9476C4.29676 24.9772 4.28539 25.0432 4.25129 25.025H4.23992ZM4.06032 23.7918C4.1217 23.8919 4.24674 23.9488 4.28766 24.0648C4.17627 23.9875 4.1649 23.9078 4.08078 23.876C4.06941 23.8419 4.04213 23.7804 4.06942 23.7918H4.06032ZM4.29676 23.9989C4.25356 23.942 4.21264 23.9033 4.16944 23.8464C4.24674 23.8919 4.28084 23.8692 4.34904 23.9647C4.30358 23.942 4.34905 24.0375 4.29676 23.9989V23.9989ZM4.42179 24.2787C4.47181 24.2969 4.34904 24.19 4.34904 24.1445C4.44021 24.2088 4.51753 24.2908 4.57639 24.3856C4.56047 24.397 4.46954 24.3288 4.42634 24.2787H4.42179ZM4.90149 24.8293C4.95377 24.868 5.11519 24.9749 5.05835 24.9908C5.01516 24.9362 4.93559 24.8953 4.90149 24.8293ZM5.0197 25.3503C5.05087 25.3575 5.07989 25.372 5.10439 25.3925C5.12889 25.4131 5.14817 25.4392 5.16065 25.4686C5.12984 25.4607 5.10119 25.4459 5.07681 25.4254C5.05242 25.405 5.03291 25.3793 5.0197 25.3503V25.3503ZM5.54714 25.4686C5.50167 25.4072 5.42892 25.3685 5.39027 25.3071C5.45165 25.3276 5.60397 25.4459 5.54714 25.4686ZM5.71537 25.6529C5.74947 25.6939 5.80403 25.7053 5.8154 25.7712C5.74947 25.7712 5.66535 25.637 5.71537 25.6529ZM6.51788 26.6927C6.43831 26.6472 6.33146 26.6358 6.29054 26.5585C6.37906 26.5768 6.459 26.624 6.51788 26.6927V26.6927ZM6.3201 26.0465C6.3542 26.0465 6.3201 25.9851 6.33828 25.9623C6.39967 25.9623 6.43377 26.0306 6.46787 26.0761C6.40421 26.0465 6.36556 26.0966 6.3201 26.0465V26.0465ZM6.50652 26.0693C6.47696 25.9965 6.27918 25.9055 6.311 25.8782C6.38375 25.9282 6.61337 26.0579 6.50652 26.0693ZM6.3201 25.9737C6.30418 25.9919 6.3201 26.0238 6.21552 25.9737C6.12913 25.8782 6.27008 25.8964 6.3201 25.9737ZM6.26553 26.0647L6.311 26.1307C6.23143 26.1307 6.20188 26.0693 6.15868 26.0306L6.26553 26.0647ZM6.29736 26.5471C6.18828 26.4751 6.08695 26.392 5.995 26.2991C6.10867 26.3605 6.29736 26.4788 6.29736 26.5471ZM5.80403 26.1648C5.82677 26.1421 5.94498 26.2103 5.98363 26.2763C5.91477 26.2562 5.85269 26.2176 5.80403 26.1648V26.1648ZM5.94498 25.6142C5.81085 25.5596 5.8836 25.5187 5.78812 25.4186C5.86087 25.4641 5.96317 25.5869 5.94498 25.6142ZM5.84495 25.4004C5.83391 25.3842 5.81818 25.3718 5.79988 25.3649C5.78159 25.358 5.76161 25.3569 5.74265 25.3617L5.69945 25.2661C5.76084 25.2775 5.89952 25.3913 5.84495 25.4004V25.4004ZM5.7722 25.4686C5.83813 25.571 5.75402 25.5187 5.74947 25.5528C5.80625 25.6066 5.87059 25.6519 5.94044 25.6871C5.99045 25.7599 5.92225 25.7439 5.84495 25.7053C5.79948 25.5915 5.68127 25.5414 5.61761 25.4413C5.69718 25.4573 5.65853 25.3799 5.77675 25.4686H5.7722ZM5.5244 24.8407L5.55623 24.9067C5.52671 24.8999 5.49918 24.8863 5.47589 24.8669C5.45259 24.8475 5.43416 24.823 5.4221 24.7952L5.5244 24.8407ZM4.9515 24.6996C5.0525 24.8641 5.18641 25.0058 5.3448 25.116C5.40883 25.1066 5.47409 25.1203 5.52895 25.1547C5.48348 25.2161 5.61306 25.2047 5.65853 25.3071C5.53754 25.2388 5.40947 25.1839 5.2766 25.1433C5.22658 24.9681 4.93559 24.8452 4.79463 24.6882C4.82192 24.6882 4.92877 24.7838 4.90603 24.7269C4.82192 24.6769 4.7719 24.6041 4.67869 24.5472C4.69461 24.5813 4.74462 24.6314 4.70597 24.6268C4.67187 24.5358 4.47863 24.3993 4.51501 24.3629C4.57639 24.4675 4.75599 24.5699 4.72189 24.4584C4.66732 24.4857 4.49454 24.2446 4.49454 24.1991C4.56275 24.2719 4.70824 24.4857 4.72189 24.3947C4.68718 24.3693 4.66038 24.3346 4.64459 24.2946C4.806 24.4016 4.7719 24.5472 4.82419 24.6314L4.9515 24.6996ZM4.49682 22.5495C4.4809 22.4881 4.44226 22.4494 4.49682 22.4722C4.5582 22.5495 4.49682 22.5382 4.53774 22.6337C4.63777 22.6906 4.63322 22.8089 4.7378 22.8612C4.69593 22.814 4.66903 22.7554 4.6605 22.6929C4.71052 22.7156 4.71507 22.768 4.7719 22.7839C4.81055 22.8612 4.69915 22.8112 4.7719 22.8908C4.84465 22.9705 4.7719 22.8066 4.84692 22.8726C4.87806 22.9088 4.9006 22.9516 4.91285 22.9978C4.88103 23.0091 4.80145 22.9454 4.79463 22.9978C4.8249 23.0418 4.85151 23.0882 4.87421 23.1365C4.65793 22.8929 4.46958 22.6258 4.31267 22.3402C4.43089 22.3857 4.39224 22.5086 4.49227 22.5677L4.49682 22.5495ZM4.31949 22.1923C4.36496 22.2993 4.20582 22.2037 4.18991 22.1309C4.23992 22.1309 4.27857 22.2378 4.31949 22.1923ZM4.21264 22.0399V22.115C4.13989 22.0581 4.04895 22.0126 4.03304 21.9239C4.07169 21.9011 4.11716 22.0126 4.20127 22.0399H4.21264ZM4.04441 23.4733C4.08306 23.6075 4.09442 23.4733 4.15126 23.5233C4.16717 23.5779 4.22855 23.6075 4.23537 23.6735C4.16755 23.6349 4.09773 23.6 4.02622 23.5688C4.02234 23.5263 4.00745 23.4855 3.98302 23.4505L4.02622 23.4824C4.02622 23.4665 4.02622 23.4551 4.04441 23.4824V23.4733ZM3.71931 23.1001C3.77387 23.1729 3.75796 23.2116 3.73068 23.2071C3.88026 23.3343 3.98275 23.5082 4.02167 23.7008C3.93371 23.5187 3.81 23.3562 3.65793 23.223C3.69657 23.223 3.69657 23.1957 3.68975 23.1434C3.65111 23.1434 3.64656 23.1434 3.57836 23.066C3.56244 23.0091 3.59427 23.0387 3.60564 23.0205C3.52834 23.0046 3.56244 22.9864 3.50106 22.909C3.50106 22.9864 3.41012 22.8635 3.39876 22.7975C3.42604 22.7793 3.47833 22.8703 3.55562 22.909C3.65111 23.0546 3.63519 23.0774 3.71931 23.1001V23.1001ZM3.55108 20.9888C3.48287 20.9455 3.42604 20.9159 3.48287 21.0456C3.42824 20.9879 3.39808 20.9113 3.39876 20.8318C3.46014 20.8818 3.52152 20.8591 3.55108 20.9888ZM4.4809 10.5456C4.45362 10.5729 4.43089 10.5842 4.41497 10.5774C4.41497 10.5274 4.45362 10.3749 4.48772 10.4159C4.4468 10.4546 4.45817 10.5387 4.48772 10.5456H4.4809ZM4.59457 10.1065C4.59457 10.1861 4.56729 10.2976 4.52183 10.2748C4.54911 10.1679 4.61731 9.96084 4.70143 9.96084C4.61049 10.0792 4.70143 10.0382 4.70143 10.1065C4.63322 10.1565 4.61731 10.1065 4.58321 10.1065H4.59457ZM4.71279 9.86073C4.65141 9.84253 4.77417 9.63321 4.78554 9.71967C4.75144 9.75835 4.75144 9.81978 4.71279 9.86073ZM5.32889 8.49561C5.39709 8.43873 5.43119 8.22031 5.50394 8.24989C5.44029 8.32269 5.40164 8.51836 5.32889 8.49561ZM5.3789 3.69721C5.43574 3.66308 5.46302 3.58572 5.54259 3.57889C5.51985 3.64033 5.37436 3.75409 5.3789 3.69721ZM5.90179 7.70839C5.84495 7.70839 5.83359 7.77665 5.79494 7.80395C5.80061 7.769 5.81343 7.73561 5.8326 7.70585C5.85177 7.6761 5.87687 7.65063 5.90633 7.63103C5.90633 7.65834 5.92452 7.65834 5.90633 7.70839H5.90179ZM6.18597 7.40124L6.11322 7.43537C6.11322 7.35118 6.23143 7.31023 6.18597 7.40124ZM6.80206 6.64359C6.80206 6.59126 6.76341 6.60947 6.74068 6.66635C6.74625 6.66634 6.75176 6.66747 6.75688 6.66967C6.762 6.67187 6.76662 6.67509 6.77045 6.67913C6.77428 6.68318 6.77725 6.68797 6.77916 6.6932C6.78108 6.69844 6.78191 6.70401 6.7816 6.70958C6.74068 6.70958 6.72931 6.77783 6.68612 6.78238C6.73613 6.68682 6.6452 6.73915 6.68612 6.64359C6.73158 6.62084 6.75432 6.57534 6.80434 6.55941C6.78842 6.59126 6.86117 6.59809 6.80434 6.64359H6.80206ZM6.99076 6.45248C6.93392 6.45248 6.89982 6.40242 6.99076 6.36147C6.99076 6.40242 7.01349 6.40242 6.99076 6.45248ZM7.05668 6.37967C7.06281 6.35561 7.0757 6.33382 7.09384 6.31688C7.11197 6.29994 7.13458 6.28857 7.15899 6.28411C7.15369 6.30857 7.14106 6.33083 7.12277 6.34791C7.10449 6.36498 7.08143 6.37607 7.05668 6.37967V6.37967ZM7.47272 6.03156C7.41588 6.05432 7.3886 6.11575 7.33177 6.14305C7.38178 6.02019 7.26584 6.14305 7.28857 6.08162C7.38178 6.04749 7.4227 5.94056 7.5 5.89733C7.46135 5.97013 7.43862 6.02474 7.47272 6.03156ZM10.6964 0.766743C10.6464 0.743991 10.485 0.812247 10.5123 0.766743C10.5918 0.782669 10.7601 0.698486 10.6964 0.766743ZM11.7899 0.507369H11.7126C11.8536 0.450489 11.8309 0.461865 11.8809 0.393609C11.9478 0.382237 12.0162 0.382237 12.0832 0.393609C11.9912 0.448353 11.8927 0.491168 11.7899 0.521022V0.507369ZM12.4856 0.293501C12.547 0.293501 12.738 0.254822 12.7129 0.311702C12.6015 0.277574 12.4629 0.377684 12.4856 0.293501ZM15.2683 0.143337C15.1773 0.11376 15.2683 0.102384 15.2228 0.0819075C15.2977 0.0651463 15.3753 0.0651463 15.4501 0.0819075C15.4501 0.116036 15.3387 0.0978339 15.266 0.138788L15.2683 0.143337ZM15.5456 0.138788C15.5229 0.116036 15.7934 0.0728067 15.7525 0.138788C15.6297 0.116036 15.6525 0.177466 15.5456 0.138788ZM29.4544 11.4943C29.4134 11.4354 29.3971 11.3627 29.4089 11.2918C29.4486 11.3514 29.4648 11.4235 29.4544 11.4943ZM29.3544 10.9824C29.2866 10.8681 29.2461 10.7396 29.2361 10.607C29.2919 10.7264 29.3316 10.8526 29.3544 10.9824V10.9824ZM29.1406 10.0905C29.1975 10.1292 29.2293 10.3044 29.1861 10.2703C29.1975 10.202 29.1179 10.1565 29.1406 10.0905ZM28.5746 11.8129C28.545 11.8129 28.4905 11.7173 28.5064 11.6513C28.5518 11.7287 28.5859 11.7059 28.5746 11.8129ZM28.5246 11.4033C28.5246 11.4761 28.6087 11.5103 28.636 11.5444C28.636 11.6445 28.6019 11.5671 28.5905 11.5944C28.5983 11.6181 28.5983 11.6436 28.5905 11.6672C28.5496 11.5489 28.5336 11.4397 28.4836 11.5103C28.4654 11.4488 28.4836 11.4033 28.5177 11.4033H28.5246ZM27.8357 12.4317C27.8357 12.3794 27.8152 12.3293 27.8357 12.2724C27.8698 12.3248 27.863 12.3794 27.9085 12.4317C27.8925 12.4977 27.8516 12.4317 27.8289 12.4317H27.8357ZM27.2855 10.2407C27.3469 10.3658 27.5333 10.4887 27.5788 10.7458C27.5027 10.5938 27.4021 10.4555 27.281 10.3363L27.2855 10.2407ZM27.2583 10.1065C27.2583 10.1474 27.2401 10.1747 27.2196 10.1633C27.1468 10.0257 27.0844 9.88269 27.0332 9.7356C27.1173 9.87666 27.1741 9.96312 27.2605 10.1065H27.2583ZM26.7104 9.07351C26.8354 9.2152 26.948 9.36745 27.0468 9.52855C27.0468 9.60818 26.9968 9.56951 26.9354 9.52855C26.8672 9.43299 26.8013 9.28738 26.6945 9.15314C26.6945 9.12584 26.6945 9.08034 26.7104 9.09626V9.07351ZM21.0859 4.80296C21.0705 4.80837 21.054 4.80953 21.038 4.80633C21.022 4.80312 21.0071 4.79567 20.995 4.78475C21.0132 4.78475 20.995 4.762 20.9791 4.7347C21.0013 4.73574 21.0229 4.7426 21.0416 4.75457C21.0603 4.76655 21.0756 4.78323 21.0859 4.80296V4.80296ZM20.9336 4.69602C20.9677 4.75063 20.9177 4.75745 20.9109 4.79158C20.8791 4.74607 20.7995 4.76883 20.7768 4.7074C20.8495 4.7074 20.8609 4.7074 20.9336 4.7074V4.69602ZM20.4357 4.53221C20.4176 4.50945 20.4016 4.48215 20.3744 4.48215C20.3471 4.48215 20.3403 4.56178 20.2607 4.5049C20.2607 4.48215 20.313 4.48215 20.2789 4.44347C20.3789 4.48215 20.413 4.40934 20.5062 4.45485C20.5062 4.50035 20.5244 4.55041 20.4289 4.53221H20.4357ZM20.5062 4.53221C20.5176 4.52232 20.5309 4.515 20.5454 4.51075C20.5598 4.5065 20.575 4.50542 20.5899 4.50758C20.6048 4.50974 20.619 4.51509 20.6316 4.52327C20.6443 4.53145 20.655 4.54225 20.6631 4.55496C20.4676 4.50945 20.8222 4.67782 20.5972 4.64369C20.5631 4.57771 20.579 4.58226 20.5062 4.53221ZM29.5999 15.7899C29.5658 15.7899 29.5385 15.683 29.5317 15.6215C29.5591 15.6391 29.5804 15.6647 29.5926 15.6949C29.6048 15.725 29.6074 15.7582 29.5999 15.7899" fill="white"/>
</svg>
