<svg width="47" height="20" viewBox="0 0 47 20" fill="none" xmlns="http://www.w3.org/2000/svg">
<path d="M0.38 0.0399997V14H7.78V11.78H3.18V0.0399997H0.38ZM20.2597 8.46C20.2597 4.96 17.7597 2.74 14.5597 2.74C11.3597 2.74 8.85969 4.96 8.85969 8.46C8.85969 11.94 11.2797 14.18 14.4797 14.18C17.6997 14.18 20.2597 11.94 20.2597 8.46ZM11.6997 8.46C11.6997 6.24 13.0397 5.18 14.5197 5.18C15.9997 5.18 17.3797 6.24 17.3797 8.46C17.3797 10.66 15.9597 11.74 14.4797 11.74C12.9797 11.74 11.6997 10.66 11.6997 8.46ZM33.0136 8.46C33.0136 4.96 30.5136 2.74 27.3136 2.74C24.1136 2.74 21.6136 4.96 21.6136 8.46C21.6136 11.94 24.0336 14.18 27.2336 14.18C30.4536 14.18 33.0136 11.94 33.0136 8.46ZM24.4536 8.46C24.4536 6.24 25.7936 5.18 27.2736 5.18C28.7536 5.18 30.1336 6.24 30.1336 8.46C30.1336 10.66 28.7136 11.74 27.2336 11.74C25.7336 11.74 24.4536 10.66 24.4536 8.46ZM37.8675 4.52V2.92H35.0675V19.28H37.8675V12.42C38.5475 13.32 39.7875 14.18 41.5275 14.18C44.3675 14.18 46.5875 11.88 46.5875 8.42C46.5875 4.96 44.3675 2.74 41.5275 2.74C39.8075 2.74 38.5275 3.58 37.8675 4.52ZM43.7275 8.42C43.7275 10.52 42.3075 11.72 40.7875 11.72C39.2875 11.72 37.8675 10.56 37.8675 8.46C37.8675 6.36 39.2875 5.2 40.7875 5.2C42.3075 5.2 43.7275 6.32 43.7275 8.42Z" fill="white"/>
</svg>
